SplineFontDB: 3.0
FontName: LiberationSerif
FullName: Liberation Serif
FamilyName: Liberation Serif
Weight: Book
Copyright: Copyright © 2007 Red Hat, Inc. All rights reserved. LIBERATION is a trademark of Red Hat, Inc.
Version: 1.06
ItalicAngle: 0
UnderlinePosition: -173
UnderlineWidth: 100
Ascent: 1638
Descent: 410
LayerCount: 2
Layer: 0 1 "Back"  1
Layer: 1 1 "Fore"  0
NeedsXUIDChange: 1
XUID: [1021 131 222397055 16509670]
FSType: 8
OS2Version: 3
OS2_WeightWidthSlopeOnly: 0
OS2_UseTypoMetrics: 1
CreationTime: 1123398000
ModificationTime: 1273470819
PfmFamily: 17
TTFWeight: 400
TTFWidth: 5
LineGap: 87
VLineGap: 0
Panose: 2 2 6 3 5 4 5 2 3 4
OS2TypoAscent: -218
OS2TypoAOffset: 1
OS2TypoDescent: -32
OS2TypoDOffset: 1
OS2TypoLinegap: 307
OS2WinAscent: -185
OS2WinAOffset: 1
OS2WinDescent: -178
OS2WinDOffset: 1
HheadAscent: -185
HheadAOffset: 1
HheadDescent: 178
HheadDOffset: 1
OS2SubXSize: 1434
OS2SubYSize: 1331
OS2SubXOff: 0
OS2SubYOff: 293
OS2SupXSize: 1434
OS2SupYSize: 1331
OS2SupXOff: 0
OS2SupYOff: 928
OS2StrikeYSize: 100
OS2StrikeYPos: 420
OS2FamilyClass: 261
OS2Vendor: '1ASC'
OS2CodePages: 6000009f.dfd70000
OS2UnicodeRanges: a00002af.500078fb.00000000.00000000
Lookup: 258 0 0 "'kern' Horizontal Kerning lookup 0"  {"'kern' Horizontal Kerning lookup 0 subtable"  } ['kern' ('DFLT' <'dflt' > 'cyrl' <'dflt' > 'grek' <'dflt' > 'latn' <'dflt' > ) ]
DEI: 91125
TtTable: prep
PUSHB_2
 9
 96
PUSHW_7
 263
 1
 63
 263
 1
 191
 260
NPUSHB
 89
 1
 224
 253
 1
 207
 253
 1
 32
 253
 1
 127
 251
 1
 80
 251
 1
 128
 242
 144
 242
 2
 241
 240
 41
 31
 175
 240
 191
 240
 2
 79
 239
 95
 239
 175
 239
 3
 48
 239
 1
 15
 239
 1
 8
 0
 237
 16
 237
 80
 237
 96
 237
 112
 237
 160
 237
 6
 10
 15
 236
 1
 12
 0
 235
 1
 17
 227
 224
 56
 31
 223
 51
 221
 85
 222
 51
 220
 85
 0
 221
 1
 60
 80
 221
 128
 221
 176
 221
 3
PUSHW_1
 -64
NPUSHB
 90
 221
 8
 11
 70
 221
 1
 3
 85
 220
 3
 22
 31
 16
 192
 32
 192
 48
 192
 112
 192
 128
 192
 208
 192
 224
 192
 240
 192
 8
 128
 190

StartChar: .notdef
Encoding: 1114112 -1 0
Width: 748
Flags: W
LayerCount: 2
Fore
SplineSet
68 0 m 1,0,-1
 68 1365 l 1,1,-1
 612 1365 l 1,2,-1
 612 0 l 1,3,-1
 68 0 l 1,0,-1
136 68 m 1,4,-1
 544 68 l 1,5,-1
 544 1297 l 1,6,-1
 136 1297 l 1,7,-1
 136 68 l 1,4,-1
EndSplineSet
EndChar

StartChar: exclam
Encoding: 33 33 4
Width: 682
Flags: W
LayerCount: 2
Fore
SplineSet
461 92 m 256,0,1
 461 67 461 67 451.5 45 c 128,-1,2
 442 23 442 23 426 6.5 c 128,-1,3
 410 -10 410 -10 387.5 -19.5 c 128,-1,4
 365 -29 365 -29 340 -29 c 0,5,6
 314 -29 314 -29 292 -19.5 c 128,-1,7
 270 -10 270 -10 254 6.5 c 128,-1,8
 238 23 238 23 228.5 45 c 128,-1,9
 219 67 219 67 219 92 c 256,10,11
 219 117 219 117 228.5 139.5 c 128,-1,12
 238 162 238 162 254 178 c 128,-1,13
 270 194 270 194 292 203.5 c 128,-1,14
 314 213 314 213 340 213 c 0,15,16
 365 213 365 213 387.5 203.5 c 128,-1,17
 410 194 410 194 426 178 c 128,-1,18
 442 162 442 162 451.5 139.5 c 128,-1,19
 461 117 461 117 461 92 c 256,0,1
231 1341 m 1,20,-1
 449 1341 l 1,21,-1
 387 389 l 1,22,-1
 293 389 l 1,23,-1
 231 1341 l 1,20,-1
EndSplineSet
EndChar

StartChar: quotedbl
Encoding: 34 34 5
Width: 836
Flags: W
LayerCount: 2
Fore
SplineSet
512 1341 m 1,0,-1
 709 1341 l 1,1,-1
 647 860 l 1,2,-1
 573 860 l 1,3,-1
 512 1341 l 1,0,-1
127 1341 m 1,4,-1
 324 1341 l 1,5,-1
 262 860 l 1,6,-1
 188 860 l 1,7,-1
 127 1341 l 1,4,-1
EndSplineSet
EndChar

StartChar: numbersign
Encoding: 35 35 6
Width: 1024
Flags: W
LayerCount: 2
Fore
SplineSet
987 524 m 1,0,-1
 987 422 l 1,1,-1
 727 422 l 1,2,-1
 649 0 l 1,3,-1
 545 0 l 1,4,-1
 623 422 l 1,5,-1
 313 422 l 1,6,-1
 236 0 l 1,7,-1
 131 0 l 1,8,-1
 209 422 l 1,9,-1
 37 422 l 1,10,-1
 37 524 l 1,11,-1
 229 524 l 1,12,-1
 287 831 l 1,13,-1
 37 831 l 1,14,-1
 37 934 l 1,15,-1
 305 934 l 1,16,-1
 381 1341 l 1,17,-1
 485 1341 l 1,18,-1
 410 934 l 1,19,-1
 719 934 l 1,20,-1
 795 1341 l 1,21,-1
 899 1341 l 1,22,-1
 823 934 l 1,23,-1
 987 934 l 1,24,-1
 987 831 l 1,25,-1
 805 831 l 1,26,-1
 748 524 l 1,27,-1
 987 524 l 1,0,-1
334 524 m 1,28,-1
 643 524 l 1,29,-1
 700 831 l 1,30,-1
 391 831 l 1,31,-1
 334 524 l 1,28,-1
EndSplineSet
EndChar

StartChar: dollar
Encoding: 36 36 7
Width: 1024
Flags: W
LayerCount: 2
Fore
SplineSet
481 -20 m 1,0,1
 425 -19 425 -19 367.5 -12.5 c 128,-1,2
 310 -6 310 -6 257.5 4 c 128,-1,3
 205 14 205 14 161 26 c 128,-1,4
 117 38 117 38 88 51 c 1,5,-1
 88 371 l 1,6,-1
 154 371 l 1,7,-1
 188 180 l 1,8,9
 205 157 205 157 238 136.5 c 128,-1,10
 271 116 271 116 311.5 99.5 c 128,-1,11
 352 83 352 83 396.5 73 c 128,-1,12
 441 63 441 63 481 61 c 1,13,-1
 481 627 l 1,14,15
 435 643 435 643 390 659.5 c 128,-1,16
 345 676 345 676 303 697.5 c 128,-1,17
 261 719 261 719 225 746.5 c 128,-1,18
 189 774 189 774 162.5 812 c 128,-1,19
 136 850 136 850 121 899.5 c 128,-1,20
 106 949 106 949 106 1014 c 0,21,22
 106 1087 106 1087 133 1146.5 c 128,-1,23
 160 1206 160 1206 209 1249.5 c 128,-1,24
 258 1293 258 1293 327.5 1320 c 128,-1,25
 397 1347 397 1347 481 1354 c 1,26,-1
 481 1483 l 1,27,-1
 563 1483 l 1,28,-1
 563 1356 l 1,29,30
 644 1353 644 1353 726 1340.5 c 128,-1,31
 808 1328 808 1328 870 1313 c 1,32,-1
 870 1034 l 1,33,-1
 805 1034 l 1,34,-1
 776 1198 l 1,35,36
 760 1213 760 1213 736 1225.5 c 128,-1,37
 712 1238 712 1238 684 1247.5 c 128,-1,38
 656 1257 656 1257 625 1263.5 c 128,-1,39
 594 1270 594 1270 563 1272 c 1,40,-1
 563 795 l 1,41,42
 610 778 610 778 657.5 760.5 c 128,-1,43
 705 743 705 743 749.5 720.5 c 128,-1,44
 794 698 794 698 832.5 669 c 128,-1,45
 871 640 871 640 899.5 600 c 128,-1,46
 928 560 928 560 944.5 508 c 128,-1,47
 961 456 961 456 961 387 c 0,48,49
 961 301 961 301 934 230 c 128,-1,50
 907 159 907 159 856 107 c 128,-1,51
 805 55 805 55 731 23 c 128,-1,52
 657 -9 657 -9 563 -16 c 1,53,-1
 563 -156 l 1,54,-1
 481 -156 l 1,55,-1
 481 -20 l 1,0,1
791 330 m 0,56,57
 791 391 791 391 773 433 c 128,-1,58
 755 475 755 475 724 505 c 128,-1,59
 693 535 693 535 651.5 556.5 c 128,-1,60
 610 578 610 578 563 596 c 1,61,-1
 563 66 l 1,62,63
 673 83 673 83 732 149 c 128,-1,64
 791 215 791 215 791 330 c 0,56,57
274 1067 m 0,65,66
 274 1012 274 1012 290 974 c 128,-1,67
 306 936 306 936 334 908.5 c 128,-1,68
 362 881 362 881 399.5 862 c 128,-1,69
 437 843 437 843 481 825 c 1,70,-1
 481 1268 l 1,71,72
 381 1255 381 1255 327.5 1202 c 128,-1,73
 274 1149 274 1149 274 1067 c 0,65,66
EndSplineSet
EndChar

StartChar: percent
Encoding: 37 37 8
Width: 1706
Flags: W
LayerCount: 2
Fore
SplineSet
440 -20 m 1,0,-1
 330 -20 l 1,1,-1
 1278 1362 l 1,2,-1
 1389 1362 l 1,3,-1
 440 -20 l 1,0,-1
721 995 m 0,4,5
 721 816 721 816 640.5 719.5 c 128,-1,6
 560 623 560 623 391 623 c 0,7,8
 230 623 230 623 150 718 c 128,-1,9
 70 813 70 813 70 995 c 0,10,11
 70 1173 70 1173 150.5 1267.5 c 128,-1,12
 231 1362 231 1362 397 1362 c 0,13,14
 556 1362 556 1362 638.5 1270 c 128,-1,15
 721 1178 721 1178 721 995 c 0,4,5
565 995 m 0,16,17
 565 1065 565 1065 556 1119.5 c 128,-1,18
 547 1174 547 1174 527 1211.5 c 128,-1,19
 507 1249 507 1249 473.5 1268.5 c 128,-1,20
 440 1288 440 1288 391 1288 c 256,21,22
 342 1288 342 1288 310 1268.5 c 128,-1,23
 278 1249 278 1249 259 1211.5 c 128,-1,24
 240 1174 240 1174 232.5 1119.5 c 128,-1,25
 225 1065 225 1065 225 995 c 0,26,27
 225 924 225 924 232.5 868.5 c 128,-1,28
 240 813 240 813 259 775 c 128,-1,29
 278 737 278 737 310 716.5 c 128,-1,30
 342 696 342 696 391 696 c 256,31,32
 440 696 440 696 473.5 716.5 c 128,-1,33
 507 737 507 737 527 775 c 128,-1,34
 547 813 547 813 556 868.5 c 128,-1,35
 565 924 565 924 565 995 c 0,16,17
1636 346 m 0,36,37
 1636 166 1636 166 1556 69.5 c 128,-1,38
 1476 -27 1476 -27 1307 -27 c 0,39,40
 1146 -27 1146 -27 1065.5 68 c 128,-1,41
 985 163 985 163 985 346 c 0,42,43
 985 524 985 524 1066 618.5 c 128,-1,44
 1147 713 1147 713 1313 713 c 0,45,46
 1472 713 1472 713 1554 621 c 128,-1,47
 1636 529 1636 529 1636 346 c 0,36,37
1481 346 m 0,48,49
 1481 416 1481 416 1472 470.5 c 128,-1,50
 1463 525 1463 525 1443 562.5 c 128,-1,51
 1423 600 1423 600 1389.5 619.5 c 128,-1,52
 1356 639 1356 639 1307 639 c 256,53,54
 1258 639 1258 639 1226 619.5 c 128,-1,55
 1194 600 1194 600 1175 562.5 c 128,-1,56
 1156 525 1156 525 1148.5 470.5 c 128,-1,57
 1141 416 1141 416 1141 346 c 0,58,59
 1141 275 1141 275 1148.5 219.5 c 128,-1,60
 1156 164 1156 164 1175 126 c 128,-1,61
 1194 88 1194 88 1226 67.5 c 128,-1,62
 1258 47 1258 47 1307 47 c 256,63,64
 1356 47 1356 47 1389.5 67.5 c 128,-1,65
 1423 88 1423 88 1443 126 c 128,-1,66
 1463 164 1463 164 1472 219.5 c 128,-1,67
 1481 275 1481 275 1481 346 c 0,48,49
EndSplineSet
EndChar

StartChar: ampersand
Encoding: 38 38 9
Width: 1593
Flags: W
LayerCount: 2
Fore
SplineSet
989 1083 m 0,0,1
 989 1009 989 1009 960.5 957 c 128,-1,2
 932 905 932 905 885.5 866.5 c 128,-1,3
 839 828 839 828 779 800 c 128,-1,4
 719 772 719 772 657 748 c 1,5,-1
 1079 364 l 1,6,7
 1125 458 1125 458 1152 550.5 c 128,-1,8
 1179 643 1179 643 1182 727 c 1,9,-1
 1040 754 l 1,10,-1
 1040 807 l 1,11,-1
 1497 807 l 1,12,-1
 1497 754 l 1,13,-1
 1358 727 l 1,14,15
 1346 685 1346 685 1328.5 633.5 c 128,-1,16
 1311 582 1311 582 1287.5 524.5 c 128,-1,17
 1264 467 1264 467 1233.5 406 c 128,-1,18
 1203 345 1203 345 1163 286 c 1,19,-1
 1391 78 l 1,20,-1
 1556 53 l 1,21,-1
 1556 0 l 1,22,-1
 1212 0 l 1,23,-1
 1041 155 l 1,24,25
 1002 120 1002 120 955.5 88 c 128,-1,26
 909 56 909 56 852 32 c 128,-1,27
 795 8 795 8 726.5 -6 c 128,-1,28
 658 -20 658 -20 575 -20 c 0,29,30
 327 -20 327 -20 202.5 76.5 c 128,-1,31
 78 173 78 173 78 356 c 0,32,33
 78 449 78 449 109 513.5 c 128,-1,34
 140 578 140 578 188 622 c 128,-1,35
 236 666 236 666 294.5 694 c 128,-1,36
 353 722 353 722 408 743 c 1,37,38
 380 770 380 770 353 803.5 c 128,-1,39
 326 837 326 837 304.5 877.5 c 128,-1,40
 283 918 283 918 270 966 c 128,-1,41
 257 1014 257 1014 257 1070 c 0,42,43
 257 1133 257 1133 277.5 1186.5 c 128,-1,44
 298 1240 298 1240 343 1279 c 128,-1,45
 388 1318 388 1318 459 1340 c 128,-1,46
 530 1362 530 1362 631 1362 c 0,47,48
 729 1362 729 1362 797.5 1340.5 c 128,-1,49
 866 1319 866 1319 908.5 1281.5 c 128,-1,50
 951 1244 951 1244 970 1193 c 128,-1,51
 989 1142 989 1142 989 1083 c 0,0,1
602 66 m 0,52,53
 666 66 666 66 720.5 78 c 128,-1,54
 775 90 775 90 820 111 c 128,-1,55
 865 132 865 132 902.5 159.5 c 128,-1,56
 940 187 940 187 972 219 c 1,57,-1
 473 676 l 1,58,59
 436 660 436 660 400.5 636.5 c 128,-1,60
 365 613 365 613 337 577 c 128,-1,61
 309 541 309 541 291.5 490 c 128,-1,62
 274 439 274 439 274 367 c 0,63,64
 274 291 274 291 297 234.5 c 128,-1,65
 320 178 320 178 362.5 140.5 c 128,-1,66
 405 103 405 103 465.5 84.5 c 128,-1,67
 526 66 526 66 602 66 c 0,52,53
434 1090 m 0,68,69
 434 1036 434 1036 449 992.5 c 128,-1,70
 464 949 464 949 486.5 915 c 128,-1,71
 509 881 509 881 536.5 855 c 128,-1,72
 564 829 564 829 588 811 c 1,73,74
 639 830 639 830 681 851.5 c 128,-1,75
 723 873 723 873 752 904 c 128,-1,76
 781 935 781 935 797 979.5 c 128,-1,77
 813 1024 813 1024 813 1090 c 0,78,79
 813 1282 813 1282 631 1282 c 0,80,81
 526 1282 526 1282 480 1234 c 128,-1,82
 434 1186 434 1186 434 1090 c 0,68,69
EndSplineSet
EndChar

StartChar: quotesingle
Encoding: 39 39 10
Width: 369
Flags: W
LayerCount: 2
Fore
SplineSet
86 1341 m 1,0,-1
 283 1341 l 1,1,-1
 221 860 l 1,2,-1
 147 860 l 1,3,-1
 86 1341 l 1,0,-1
EndSplineSet
EndChar

StartChar: parenleft
Encoding: 40 40 11
Width: 682
Flags: W
LayerCount: 2
Fore
SplineSet
283 494 m 0,0,1
 283 410 283 410 287 326.5 c 128,-1,2
 291 243 291 243 302.5 163.5 c 128,-1,3
 314 84 314 84 336.5 9.5 c 128,-1,4
 359 -65 359 -65 396 -130.5 c 128,-1,5
 433 -196 433 -196 487 -252.5 c 128,-1,6
 541 -309 541 -309 616 -352 c 1,7,-1
 616 -436 l 1,8,9
 482 -365 482 -365 383.5 -281.5 c 128,-1,10
 285 -198 285 -198 219.5 -88.5 c 128,-1,11
 154 21 154 21 122 163 c 128,-1,12
 90 305 90 305 90 494 c 256,13,14
 90 683 90 683 122 824.5 c 128,-1,15
 154 966 154 966 219.5 1075 c 128,-1,16
 285 1184 285 1184 383.5 1267 c 128,-1,17
 482 1350 482 1350 616 1421 c 1,18,-1
 616 1337 l 1,19,20
 503 1272 503 1272 437 1179.5 c 128,-1,21
 371 1087 371 1087 336.5 976.5 c 128,-1,22
 302 866 302 866 292.5 743 c 128,-1,23
 283 620 283 620 283 494 c 0,0,1
EndSplineSet
EndChar

StartChar: parenright
Encoding: 41 41 12
Width: 682
Flags: W
LayerCount: 2
Fore
SplineSet
66 -436 m 1,0,-1
 66 -352 l 1,1,2
 141 -309 141 -309 195 -252.5 c 128,-1,3
 249 -196 249 -196 286 -130.5 c 128,-1,4
 323 -65 323 -65 345.5 9.5 c 128,-1,5
 368 84 368 84 379.5 163.5 c 128,-1,6
 391 243 391 243 395 326.5 c 128,-1,7
 399 410 399 410 399 494 c 0,8,9
 399 620 399 620 389.5 743 c 128,-1,10
 380 866 380 866 345.5 976.5 c 128,-1,11
 311 1087 311 1087 245 1179.5 c 128,-1,12
 179 1272 179 1272 66 1337 c 1,13,-1
 66 1421 l 1,14,15
 199 1350 199 1350 298 1267 c 128,-1,16
 397 1184 397 1184 462.5 1075 c 128,-1,17
 528 966 528 966 560 824.5 c 128,-1,18
 592 683 592 683 592 494 c 256,19,20
 592 305 592 305 560 163 c 128,-1,21
 528 21 528 21 462.5 -88.5 c 128,-1,22
 397 -198 397 -198 298 -281.5 c 128,-1,23
 199 -365 199 -365 66 -436 c 1,0,-1
EndSplineSet
EndChar

StartChar: asterisk
Encoding: 42 42 13
Width: 1024
Flags: W
LayerCount: 2
Fore
SplineSet
100 1065 m 1,0,-1
 164 1208 l 1,1,-1
 479 1014 l 1,2,-1
 436 1341 l 1,3,-1
 592 1341 l 1,4,-1
 545 1014 l 1,5,-1
 862 1204 l 1,6,-1
 926 1063 l 1,7,-1
 594 965 l 1,8,-1
 926 868 l 1,9,-1
 862 727 l 1,10,-1
 545 915 l 1,11,-1
 592 590 l 1,12,-1
 436 590 l 1,13,-1
 479 918 l 1,14,-1
 164 723 l 1,15,-1
 100 866 l 1,16,-1
 428 965 l 1,17,-1
 100 1065 l 1,0,-1
EndSplineSet
EndChar

StartChar: plus
Encoding: 43 43 14
Width: 1155
Flags: W
LayerCount: 2
Fore
SplineSet
629 629 m 1,0,-1
 629 203 l 1,1,-1
 526 203 l 1,2,-1
 526 629 l 1,3,-1
 102 629 l 1,4,-1
 102 731 l 1,5,-1
 526 731 l 1,6,-1
 526 1157 l 1,7,-1
 629 1157 l 1,8,-1
 629 731 l 1,9,-1
 1055 731 l 1,10,-1
 1055 629 l 1,11,-1
 629 629 l 1,0,-1
EndSplineSet
EndChar

StartChar: comma
Encoding: 44 44 15
Width: 512
Flags: W
LayerCount: 2
Fore
SplineSet
383 49 m 0,0,1
 383 -10 383 -10 366.5 -65.5 c 128,-1,2
 350 -121 350 -121 313.5 -168 c 128,-1,3
 277 -215 277 -215 219 -253 c 128,-1,4
 161 -291 161 -291 78 -315 c 1,5,-1
 78 -238 l 1,6,7
 169 -209 169 -209 211.5 -167 c 128,-1,8
 254 -125 254 -125 254 -70 c 0,9,10
 254 -52 254 -52 244 -39.5 c 128,-1,11
 234 -27 234 -27 219 -17.5 c 128,-1,12
 204 -8 204 -8 186.5 1 c 128,-1,13
 169 10 169 10 154 22.5 c 128,-1,14
 139 35 139 35 129 53.5 c 128,-1,15
 119 72 119 72 119 100 c 0,16,17
 119 154 119 154 153 182.5 c 128,-1,18
 187 211 187 211 240 211 c 0,19,20
 268 211 268 211 294 200.5 c 128,-1,21
 320 190 320 190 339.5 169.5 c 128,-1,22
 359 149 359 149 371 118.5 c 128,-1,23
 383 88 383 88 383 49 c 0,0,1
EndSplineSet
EndChar

StartChar: uni00AD
Encoding: 173 173 16
AltUni2: 00002d.ffffffff.0 00002d.ffffffff.0
Width: 682
Flags: W
LayerCount: 2
Fore
SplineSet
76 406 m 1,0,-1
 76 559 l 1,1,-1
 608 559 l 1,2,-1
 608 406 l 1,3,-1
 76 406 l 1,0,-1
EndSplineSet
EndChar

StartChar: period
Encoding: 46 46 17
Width: 512
Flags: W
LayerCount: 2
Fore
SplineSet
377 92 m 256,0,1
 377 67 377 67 367.5 45 c 128,-1,2
 358 23 358 23 342 6.5 c 128,-1,3
 326 -10 326 -10 303.5 -19.5 c 128,-1,4
 281 -29 281 -29 256 -29 c 0,5,6
 230 -29 230 -29 208 -19.5 c 128,-1,7
 186 -10 186 -10 170 6.5 c 128,-1,8
 154 23 154 23 144.5 45 c 128,-1,9
 135 67 135 67 135 92 c 256,10,11
 135 117 135 117 144.5 139.5 c 128,-1,12
 154 162 154 162 170 178 c 128,-1,13
 186 194 186 194 208 203.5 c 128,-1,14
 230 213 230 213 256 213 c 0,15,16
 281 213 281 213 303.5 203.5 c 128,-1,17
 326 194 326 194 342 178 c 128,-1,18
 358 162 358 162 367.5 139.5 c 128,-1,19
 377 117 377 117 377 92 c 256,0,1
EndSplineSet
EndChar

StartChar: slash
Encoding: 47 47 18
Width: 569
Flags: W
LayerCount: 2
Fore
SplineSet
100 -20 m 1,0,-1
 0 -20 l 1,1,-1
 471 1350 l 1,2,-1
 569 1350 l 1,3,-1
 100 -20 l 1,0,-1
EndSplineSet
EndChar

StartChar: zero
Encoding: 48 48 19
Width: 1024
Flags: W
LayerCount: 2
Fore
SplineSet
946 676 m 0,0,1
 946 508 946 508 919.5 378 c 128,-1,2
 893 248 893 248 839 159.5 c 128,-1,3
 785 71 785 71 702 25.5 c 128,-1,4
 619 -20 619 -20 506 -20 c 0,5,6
 294 -20 294 -20 186 158 c 128,-1,7
 78 336 78 336 78 676 c 0,8,9
 78 1009 78 1009 186 1185.5 c 128,-1,10
 294 1362 294 1362 514 1362 c 0,11,12
 726 1362 726 1362 836 1187.5 c 128,-1,13
 946 1013 946 1013 946 676 c 0,0,1
762 676 m 256,14,15
 762 820 762 820 749.5 933 c 128,-1,16
 737 1046 737 1046 707.5 1123.5 c 128,-1,17
 678 1201 678 1201 628.5 1241.5 c 128,-1,18
 579 1282 579 1282 506 1282 c 0,19,20
 432 1282 432 1282 384.5 1241.5 c 128,-1,21
 337 1201 337 1201 310 1123.5 c 128,-1,22
 283 1046 283 1046 272.5 933 c 128,-1,23
 262 820 262 820 262 676 c 256,24,25
 262 532 262 532 272.5 417.5 c 128,-1,26
 283 303 283 303 310 223.5 c 128,-1,27
 337 144 337 144 384.5 101.5 c 128,-1,28
 432 59 432 59 506 59 c 0,29,30
 579 59 579 59 628.5 101.5 c 128,-1,31
 678 144 678 144 707.5 223.5 c 128,-1,32
 737 303 737 303 749.5 417.5 c 128,-1,33
 762 532 762 532 762 676 c 256,14,15
EndSplineSet
EndChar

StartChar: one
Encoding: 49 49 20
Width: 1024
Flags: W
LayerCount: 2
Fore
SplineSet
627 80 m 1,0,-1
 901 53 l 1,1,-1
 901 0 l 1,2,-1
 180 0 l 1,3,-1
 180 53 l 1,4,-1
 455 80 l 1,5,-1
 455 1174 l 1,6,-1
 184 1077 l 1,7,-1
 184 1130 l 1,8,-1
 575 1352 l 1,9,-1
 627 1352 l 1,10,-1
 627 80 l 1,0,-1
EndSplineSet
EndChar

StartChar: two
Encoding: 50 50 21
Width: 1024
Flags: W
LayerCount: 2
Fore
SplineSet
911 0 m 1,0,-1
 90 0 l 1,1,-1
 90 147 l 1,2,3
 191 241 191 241 275.5 315.5 c 128,-1,4
 360 390 360 390 427.5 454.5 c 128,-1,5
 495 519 495 519 545.5 578 c 128,-1,6
 596 637 596 637 629.5 701 c 128,-1,7
 663 765 663 765 679.5 839 c 128,-1,8
 696 913 696 913 696 1006 c 0,9,10
 696 1136 696 1136 637 1204 c 128,-1,11
 578 1272 578 1272 444 1272 c 0,12,13
 414 1272 414 1272 384.5 1267.5 c 128,-1,14
 355 1263 355 1263 328 1255.5 c 128,-1,15
 301 1248 301 1248 277.5 1238.5 c 128,-1,16
 254 1229 254 1229 236 1219 c 1,17,-1
 201 1055 l 1,18,-1
 135 1055 l 1,19,-1
 135 1313 l 1,20,21
 211 1331 211 1331 284.5 1343.5 c 128,-1,22
 358 1356 358 1356 444 1356 c 0,23,24
 664 1356 664 1356 774.5 1264.5 c 128,-1,25
 885 1173 885 1173 885 1006 c 0,26,27
 885 924 885 924 863.5 854 c 128,-1,28
 842 784 842 784 802 719.5 c 128,-1,29
 762 655 762 655 704 592.5 c 128,-1,30
 646 530 646 530 572 463 c 128,-1,31
 498 396 498 396 409.5 320.5 c 128,-1,32
 321 245 321 245 221 154 c 1,33,-1
 911 154 l 1,34,-1
 911 0 l 1,0,-1
EndSplineSet
EndChar

StartChar: three
Encoding: 51 51 22
Width: 1024
Flags: W
LayerCount: 2
Fore
SplineSet
944 365 m 0,0,1
 944 274 944 274 912 202.5 c 128,-1,2
 880 131 880 131 819.5 81.5 c 128,-1,3
 759 32 759 32 670.5 6 c 128,-1,4
 582 -20 582 -20 469 -20 c 0,5,6
 370 -20 370 -20 277 -8 c 128,-1,7
 184 4 184 4 109 23 c 1,8,-1
 98 305 l 1,9,-1
 164 305 l 1,10,-1
 209 117 l 1,11,12
 227 107 227 107 256 97 c 128,-1,13
 285 87 285 87 318.5 79.5 c 128,-1,14
 352 72 352 72 387.5 67.5 c 128,-1,15
 423 63 423 63 453 63 c 0,16,17
 546 63 546 63 605.5 86 c 128,-1,18
 665 109 665 109 699.5 150.5 c 128,-1,19
 734 192 734 192 747 249.5 c 128,-1,20
 760 307 760 307 760 375 c 0,21,22
 760 453 760 453 738 504.5 c 128,-1,23
 716 556 716 556 677.5 587.5 c 128,-1,24
 639 619 639 619 587.5 633.5 c 128,-1,25
 536 648 536 648 477 651 c 2,26,-1
 334 659 l 1,27,-1
 334 741 l 1,28,-1
 477 750 l 1,29,30
 590 756 590 756 644 820 c 128,-1,31
 698 884 698 884 698 1014 c 0,32,33
 698 1079 698 1079 684.5 1127.5 c 128,-1,34
 671 1176 671 1176 642 1208 c 128,-1,35
 613 1240 613 1240 566.5 1256 c 128,-1,36
 520 1272 520 1272 453 1272 c 0,37,38
 423 1272 423 1272 392.5 1267.5 c 128,-1,39
 362 1263 362 1263 334 1255.5 c 128,-1,40
 306 1248 306 1248 282 1238.5 c 128,-1,41
 258 1229 258 1229 240 1219 c 1,42,-1
 205 1055 l 1,43,-1
 139 1055 l 1,44,-1
 139 1313 l 1,45,46
 174 1322 174 1322 209 1330 c 128,-1,47
 244 1338 244 1338 282 1343.5 c 128,-1,48
 320 1349 320 1349 362 1352.5 c 128,-1,49
 404 1356 404 1356 453 1356 c 0,50,51
 664 1356 664 1356 773.5 1275 c 128,-1,52
 883 1194 883 1194 883 1026 c 0,53,54
 883 963 883 963 866 908.5 c 128,-1,55
 849 854 849 854 813 812 c 128,-1,56
 777 770 777 770 721.5 741.5 c 128,-1,57
 666 713 666 713 590 702 c 1,58,59
 772 681 772 681 858 597.5 c 128,-1,60
 944 514 944 514 944 365 c 0,0,1
EndSplineSet
EndChar

StartChar: four
Encoding: 52 52 23
Width: 1024
Flags: W
LayerCount: 2
Fore
SplineSet
810 295 m 1,0,-1
 810 0 l 1,1,-1
 638 0 l 1,2,-1
 638 295 l 1,3,-1
 40 295 l 1,4,-1
 40 428 l 1,5,-1
 695 1348 l 1,6,-1
 810 1348 l 1,7,-1
 810 438 l 1,8,-1
 992 438 l 1,9,-1
 992 295 l 1,10,-1
 810 295 l 1,0,-1
638 1113 m 1,11,-1
 633 1113 l 1,12,-1
 153 438 l 1,13,-1
 638 438 l 1,14,-1
 638 1113 l 1,11,-1
EndSplineSet
EndChar

StartChar: five
Encoding: 53 53 24
Width: 1024
Flags: W
LayerCount: 2
Fore
SplineSet
485 784 m 0,0,1
 597 784 597 784 683 761.5 c 128,-1,2
 769 739 769 739 827 692 c 128,-1,3
 885 645 885 645 914.5 572.5 c 128,-1,4
 944 500 944 500 944 399 c 0,5,6
 944 304 944 304 915.5 227 c 128,-1,7
 887 150 887 150 828 95 c 128,-1,8
 769 40 769 40 679.5 10 c 128,-1,9
 590 -20 590 -20 469 -20 c 0,10,11
 375 -20 375 -20 290.5 -9.5 c 128,-1,12
 206 1 206 1 130 23 c 1,13,-1
 119 305 l 1,14,-1
 185 305 l 1,15,-1
 230 117 l 1,16,17
 248 107 248 107 273.5 97 c 128,-1,18
 299 87 299 87 329 79.5 c 128,-1,19
 359 72 359 72 391 67.5 c 128,-1,20
 423 63 423 63 453 63 c 0,21,22
 546 63 546 63 605.5 86.5 c 128,-1,23
 665 110 665 110 699.5 153 c 128,-1,24
 734 196 734 196 747 256 c 128,-1,25
 760 316 760 316 760 389 c 0,26,27
 760 467 760 467 746.5 525 c 128,-1,28
 733 583 733 583 697 622 c 128,-1,29
 661 661 661 661 598.5 680.5 c 128,-1,30
 536 700 536 700 438 700 c 0,31,32
 379 700 379 700 334 692 c 128,-1,33
 289 684 289 684 260 676 c 1,34,-1
 164 676 l 1,35,-1
 164 1341 l 1,36,-1
 844 1341 l 1,37,-1
 844 1188 l 1,38,-1
 254 1188 l 1,39,-1
 254 760 l 1,40,41
 272 764 272 764 294.5 768 c 128,-1,42
 317 772 317 772 344.5 775.5 c 128,-1,43
 372 779 372 779 406.5 781.5 c 128,-1,44
 441 784 441 784 485 784 c 0,0,1
EndSplineSet
EndChar

StartChar: six
Encoding: 54 54 25
Width: 1024
Flags: W
LayerCount: 2
Fore
SplineSet
963 416 m 0,0,1
 963 312 963 312 936.5 231 c 128,-1,2
 910 150 910 150 858 94 c 128,-1,3
 806 38 806 38 729.5 9 c 128,-1,4
 653 -20 653 -20 553 -20 c 0,5,6
 443 -20 443 -20 356.5 23 c 128,-1,7
 270 66 270 66 210.5 151.5 c 128,-1,8
 151 237 151 237 119.5 364.5 c 128,-1,9
 88 492 88 492 88 662 c 0,10,11
 88 844 88 844 129.5 975 c 128,-1,12
 171 1106 171 1106 240.5 1191 c 128,-1,13
 310 1276 310 1276 401 1316 c 128,-1,14
 492 1356 492 1356 590 1356 c 0,15,16
 665 1356 665 1356 742 1346 c 128,-1,17
 819 1336 819 1336 881 1321 c 1,18,-1
 881 1090 l 1,19,-1
 815 1090 l 1,20,-1
 780 1227 l 1,21,22
 762 1237 762 1237 738.5 1245 c 128,-1,23
 715 1253 715 1253 689.5 1259 c 128,-1,24
 664 1265 664 1265 638.5 1268.5 c 128,-1,25
 613 1272 613 1272 590 1272 c 0,26,27
 519 1272 519 1272 462.5 1238 c 128,-1,28
 406 1204 406 1204 365 1135 c 128,-1,29
 324 1066 324 1066 300.5 962 c 128,-1,30
 277 858 277 858 273 717 c 1,31,32
 345 755 345 755 430.5 779 c 128,-1,33
 516 803 516 803 600 803 c 256,34,35
 684 803 684 803 751.5 779.5 c 128,-1,36
 819 756 819 756 866 708 c 128,-1,37
 913 660 913 660 938 587 c 128,-1,38
 963 514 963 514 963 416 c 0,0,1
549 59 m 0,39,40
 613 59 613 59 657 80 c 128,-1,41
 701 101 701 101 728 143.5 c 128,-1,42
 755 186 755 186 766.5 249.5 c 128,-1,43
 778 313 778 313 778 397 c 0,44,45
 778 561 778 561 726.5 634 c 128,-1,46
 675 707 675 707 563 707 c 0,47,48
 495 707 495 707 420.5 694 c 128,-1,49
 346 681 346 681 272 657 c 1,50,51
 272 513 272 513 287.5 402 c 128,-1,52
 303 291 303 291 337 214.5 c 128,-1,53
 371 138 371 138 423 98.5 c 128,-1,54
 475 59 475 59 549 59 c 0,39,40
EndSplineSet
EndChar

StartChar: seven
Encoding: 55 55 26
Width: 1024
Flags: W
LayerCount: 2
Fore
SplineSet
201 1024 m 1,0,-1
 135 1024 l 1,1,-1
 135 1341 l 1,2,-1
 965 1341 l 1,3,-1
 965 1264 l 1,4,-1
 367 0 l 1,5,-1
 238 0 l 1,6,-1
 825 1188 l 1,7,-1
 236 1188 l 1,8,-1
 201 1024 l 1,0,-1
EndSplineSet
EndChar

StartChar: eight
Encoding: 56 56 27
Width: 1024
Flags: W
LayerCount: 2
Fore
SplineSet
905 1014 m 0,0,1
 905 904 905 904 851.5 827.5 c 128,-1,2
 798 751 798 751 707 711 c 1,3,4
 761 691 761 691 805 659 c 128,-1,5
 849 627 849 627 880.5 583.5 c 128,-1,6
 912 540 912 540 929 484.5 c 128,-1,7
 946 429 946 429 946 362 c 0,8,9
 946 172 946 172 839 76 c 128,-1,10
 732 -20 732 -20 506 -20 c 0,11,12
 292 -20 292 -20 185 74.5 c 128,-1,13
 78 169 78 169 78 362 c 0,14,15
 78 495 78 495 142 582.5 c 128,-1,16
 206 670 206 670 315 711 c 1,17,18
 228 751 228 751 173.5 827 c 128,-1,19
 119 903 119 903 119 1014 c 0,20,21
 119 1093 119 1093 143.5 1157.5 c 128,-1,22
 168 1222 168 1222 217 1267.5 c 128,-1,23
 266 1313 266 1313 340 1337.5 c 128,-1,24
 414 1362 414 1362 514 1362 c 0,25,26
 610 1362 610 1362 683 1338 c 128,-1,27
 756 1314 756 1314 805.5 1269 c 128,-1,28
 855 1224 855 1224 880 1159.5 c 128,-1,29
 905 1095 905 1095 905 1014 c 0,0,1
766 362 m 0,30,31
 766 435 766 435 753 491.5 c 128,-1,32
 740 548 740 548 709.5 587 c 128,-1,33
 679 626 679 626 629 646 c 128,-1,34
 579 666 579 666 506 666 c 0,35,36
 432 666 432 666 384 646 c 128,-1,37
 336 626 336 626 308 587 c 128,-1,38
 280 548 280 548 269 491.5 c 128,-1,39
 258 435 258 435 258 362 c 0,40,41
 258 288 258 288 269 231.5 c 128,-1,42
 280 175 280 175 308 137 c 128,-1,43
 336 99 336 99 384 79 c 128,-1,44
 432 59 432 59 506 59 c 0,45,46
 579 59 579 59 629 79 c 128,-1,47
 679 99 679 99 709.5 137 c 128,-1,48
 740 175 740 175 753 231.5 c 128,-1,49
 766 288 766 288 766 362 c 0,30,31
725 1014 m 0,50,51
 725 1073 725 1073 714.5 1122 c 128,-1,52
 704 1171 704 1171 679 1206.5 c 128,-1,53
 654 1242 654 1242 612 1262 c 128,-1,54
 570 1282 570 1282 508 1282 c 256,55,56
 446 1282 446 1282 405.5 1262 c 128,-1,57
 365 1242 365 1242 341.5 1206.5 c 128,-1,58
 318 1171 318 1171 308.5 1122 c 128,-1,59
 299 1073 299 1073 299 1014 c 0,60,61
 299 954 299 954 308.5 906 c 128,-1,62
 318 858 318 858 341.5 824 c 128,-1,63
 365 790 365 790 405.5 772 c 128,-1,64
 446 754 446 754 508 754 c 256,65,66
 570 754 570 754 612 772 c 128,-1,67
 654 790 654 790 679 824 c 128,-1,68
 704 858 704 858 714.5 906 c 128,-1,69
 725 954 725 954 725 1014 c 0,50,51
EndSplineSet
EndChar

StartChar: nine
Encoding: 57 57 28
Width: 1024
Flags: W
LayerCount: 2
Fore
SplineSet
66 932 m 0,0,1
 66 1035 66 1035 96 1114.5 c 128,-1,2
 126 1194 126 1194 182 1247.5 c 128,-1,3
 238 1301 238 1301 318 1328.5 c 128,-1,4
 398 1356 398 1356 498 1356 c 0,5,6
 612 1356 612 1356 695 1316 c 128,-1,7
 778 1276 778 1276 832.5 1192.5 c 128,-1,8
 887 1109 887 1109 913.5 980 c 128,-1,9
 940 851 940 851 940 674 c 0,10,11
 940 545 940 545 920.5 443.5 c 128,-1,12
 901 342 901 342 866 265 c 128,-1,13
 831 188 831 188 782.5 133.5 c 128,-1,14
 734 79 734 79 676 45 c 128,-1,15
 618 11 618 11 552.5 -4.5 c 128,-1,16
 487 -20 487 -20 418 -20 c 0,17,18
 330 -20 330 -20 258.5 -11.5 c 128,-1,19
 187 -3 187 -3 119 14 c 1,20,-1
 119 246 l 1,21,-1
 184 246 l 1,22,-1
 219 102 l 1,23,24
 238 93 238 93 261.5 86 c 128,-1,25
 285 79 285 79 310.5 73.5 c 128,-1,26
 336 68 336 68 362.5 65.5 c 128,-1,27
 389 63 389 63 414 63 c 0,28,29
 484 63 484 63 544.5 92.5 c 128,-1,30
 605 122 605 122 650 188 c 128,-1,31
 695 254 695 254 722.5 359.5 c 128,-1,32
 750 465 750 465 755 617 c 1,33,34
 689 580 689 580 612 556 c 128,-1,35
 535 532 535 532 446 532 c 0,36,37
 362 532 362 532 292 557.5 c 128,-1,38
 222 583 222 583 171.5 633.5 c 128,-1,39
 121 684 121 684 93.5 759 c 128,-1,40
 66 834 66 834 66 932 c 0,0,1
500 1276 m 0,41,42
 371 1276 371 1276 310.5 1186.5 c 128,-1,43
 250 1097 250 1097 250 928 c 0,44,45
 250 846 250 846 266.5 789 c 128,-1,46
 283 732 283 732 314.5 696.5 c 128,-1,47
 346 661 346 661 391.5 645 c 128,-1,48
 437 629 437 629 496 629 c 0,49,50
 562 629 562 629 628 643 c 128,-1,51
 694 657 694 657 756 682 c 1,52,53
 756 829 756 829 742 940.5 c 128,-1,54
 728 1052 728 1052 698 1126.5 c 128,-1,55
 668 1201 668 1201 619 1238.5 c 128,-1,56
 570 1276 570 1276 500 1276 c 0,41,42
EndSplineSet
EndChar

StartChar: colon
Encoding: 58 58 29
Width: 569
Flags: W
LayerCount: 2
Fore
SplineSet
403 92 m 256,0,1
 403 67 403 67 393.5 45 c 128,-1,2
 384 23 384 23 368 6.5 c 128,-1,3
 352 -10 352 -10 330 -19.5 c 128,-1,4
 308 -29 308 -29 283 -29 c 0,5,6
 257 -29 257 -29 235 -19.5 c 128,-1,7
 213 -10 213 -10 197 6.5 c 128,-1,8
 181 23 181 23 171.5 45 c 128,-1,9
 162 67 162 67 162 92 c 256,10,11
 162 117 162 117 171.5 139.5 c 128,-1,12
 181 162 181 162 197 178 c 128,-1,13
 213 194 213 194 235 203.5 c 128,-1,14
 257 213 257 213 283 213 c 0,15,16
 308 213 308 213 330 203.5 c 128,-1,17
 352 194 352 194 368 178 c 128,-1,18
 384 162 384 162 393.5 139.5 c 128,-1,19
 403 117 403 117 403 92 c 256,0,1
403 840 m 0,20,21
 403 814 403 814 393.5 792 c 128,-1,22
 384 770 384 770 368 754 c 128,-1,23
 352 738 352 738 330 728.5 c 128,-1,24
 308 719 308 719 283 719 c 0,25,26
 257 719 257 719 235 728.5 c 128,-1,27
 213 738 213 738 197 754 c 128,-1,28
 181 770 181 770 171.5 792 c 128,-1,29
 162 814 162 814 162 840 c 0,30,31
 162 865 162 865 171.5 887 c 128,-1,32
 181 909 181 909 197 925.5 c 128,-1,33
 213 942 213 942 235 951.5 c 128,-1,34
 257 961 257 961 283 961 c 0,35,36
 308 961 308 961 330 951.5 c 128,-1,37
 352 942 352 942 368 925.5 c 128,-1,38
 384 909 384 909 393.5 887 c 128,-1,39
 403 865 403 865 403 840 c 0,20,21
EndSplineSet
EndChar

StartChar: uni037E
Encoding: 894 894 30
AltUni2: 00003b.ffffffff.0 00003b.ffffffff.0
Width: 569
Flags: W
LayerCount: 2
Fore
SplineSet
403 840 m 0,0,1
 403 814 403 814 393.5 792 c 128,-1,2
 384 770 384 770 368 754 c 128,-1,3
 352 738 352 738 330 728.5 c 128,-1,4
 308 719 308 719 283 719 c 0,5,6
 257 719 257 719 235 728.5 c 128,-1,7
 213 738 213 738 197 754 c 128,-1,8
 181 770 181 770 171.5 792 c 128,-1,9
 162 814 162 814 162 840 c 0,10,11
 162 865 162 865 171.5 887 c 128,-1,12
 181 909 181 909 197 925.5 c 128,-1,13
 213 942 213 942 235 951.5 c 128,-1,14
 257 961 257 961 283 961 c 0,15,16
 308 961 308 961 330 951.5 c 128,-1,17
 352 942 352 942 368 925.5 c 128,-1,18
 384 909 384 909 393.5 887 c 128,-1,19
 403 865 403 865 403 840 c 0,0,1
412 49 m 0,20,21
 412 -10 412 -10 395.5 -65.5 c 128,-1,22
 379 -121 379 -121 342.5 -168 c 128,-1,23
 306 -215 306 -215 247.5 -253 c 128,-1,24
 189 -291 189 -291 106 -315 c 1,25,-1
 106 -238 l 1,26,27
 197 -209 197 -209 240 -167 c 128,-1,28
 283 -125 283 -125 283 -70 c 0,29,30
 283 -52 283 -52 273 -39.5 c 128,-1,31
 263 -27 263 -27 248 -17.5 c 128,-1,32
 233 -8 233 -8 215 1 c 128,-1,33
 197 10 197 10 182 22.5 c 128,-1,34
 167 35 167 35 157 53.5 c 128,-1,35
 147 72 147 72 147 100 c 0,36,37
 147 154 147 154 181.5 182.5 c 128,-1,38
 216 211 216 211 268 211 c 0,39,40
 296 211 296 211 322.5 200.5 c 128,-1,41
 349 190 349 190 368.5 169.5 c 128,-1,42
 388 149 388 149 400 118.5 c 128,-1,43
 412 88 412 88 412 49 c 0,20,21
EndSplineSet
EndChar

StartChar: less
Encoding: 60 60 31
Width: 1155
Flags: W
LayerCount: 2
Fore
SplineSet
102 655 m 1,0,-1
 102 705 l 1,1,-1
 1055 1174 l 1,2,-1
 1055 1071 l 1,3,-1
 246 680 l 1,4,-1
 1055 289 l 1,5,-1
 1055 186 l 1,6,-1
 102 655 l 1,0,-1
EndSplineSet
EndChar

StartChar: equal
Encoding: 61 61 32
Width: 1155
Flags: W
LayerCount: 2
Fore
SplineSet
1055 526 m 1,0,-1
 1055 424 l 1,1,-1
 102 424 l 1,2,-1
 102 526 l 1,3,-1
 1055 526 l 1,0,-1
1055 936 m 1,4,-1
 1055 834 l 1,5,-1
 102 834 l 1,6,-1
 102 936 l 1,7,-1
 1055 936 l 1,4,-1
EndSplineSet
EndChar

StartChar: greater
Encoding: 62 62 33
Width: 1155
Flags: W
LayerCount: 2
Fore
SplineSet
104 186 m 1,0,-1
 104 289 l 1,1,-1
 913 680 l 1,2,-1
 104 1071 l 1,3,-1
 104 1174 l 1,4,-1
 1057 705 l 1,5,-1
 1057 655 l 1,6,-1
 104 186 l 1,0,-1
EndSplineSet
EndChar

StartChar: question
Encoding: 63 63 34
Width: 909
Flags: W
LayerCount: 2
Fore
SplineSet
440 350 m 1,0,-1
 360 350 l 1,1,-1
 334 684 l 1,2,-1
 477 713 l 2,3,4
 513 720 513 720 543 737.5 c 128,-1,5
 573 755 573 755 595 788.5 c 128,-1,6
 617 822 617 822 629 874.5 c 128,-1,7
 641 927 641 927 641 1004 c 0,8,9
 641 1077 641 1077 628.5 1128 c 128,-1,10
 616 1179 616 1179 588 1211 c 128,-1,11
 560 1243 560 1243 514 1257.5 c 128,-1,12
 468 1272 468 1272 401 1272 c 0,13,14
 341 1272 341 1272 291.5 1258 c 128,-1,15
 242 1244 242 1244 207 1223 c 1,16,-1
 172 1059 l 1,17,-1
 106 1059 l 1,18,-1
 106 1313 l 1,19,20
 176 1332 176 1332 246.5 1344 c 128,-1,21
 317 1356 317 1356 401 1356 c 0,22,23
 613 1356 613 1356 719 1270 c 128,-1,24
 825 1184 825 1184 825 1016 c 0,25,26
 825 946 825 946 808.5 882.5 c 128,-1,27
 792 819 792 819 754.5 767.5 c 128,-1,28
 717 716 717 716 657 678.5 c 128,-1,29
 597 641 597 641 510 623 c 1,30,-1
 453 610 l 1,31,-1
 440 350 l 1,0,-1
530 92 m 256,32,33
 530 67 530 67 520.5 45 c 128,-1,34
 511 23 511 23 495 6.5 c 128,-1,35
 479 -10 479 -10 457 -19.5 c 128,-1,36
 435 -29 435 -29 410 -29 c 0,37,38
 384 -29 384 -29 362 -19.5 c 128,-1,39
 340 -10 340 -10 324 6.5 c 128,-1,40
 308 23 308 23 298.5 45 c 128,-1,41
 289 67 289 67 289 92 c 256,42,43
 289 117 289 117 298.5 139.5 c 128,-1,44
 308 162 308 162 324 178 c 128,-1,45
 340 194 340 194 362 203.5 c 128,-1,46
 384 213 384 213 410 213 c 0,47,48
 435 213 435 213 457 203.5 c 128,-1,49
 479 194 479 194 495 178 c 128,-1,50
 511 162 511 162 520.5 139.5 c 128,-1,51
 530 117 530 117 530 92 c 256,32,33
EndSplineSet
EndChar

StartChar: at
Encoding: 64 64 35
Width: 1886
Flags: W
LayerCount: 2
Fore
SplineSet
1458 -184 m 1,0,1
 1404 -226 1404 -226 1343.5 -263 c 128,-1,2
 1283 -300 1283 -300 1210.5 -328 c 128,-1,3
 1138 -356 1138 -356 1052.5 -372.5 c 128,-1,4
 967 -389 967 -389 864 -389 c 0,5,6
 683 -389 683 -389 542.5 -330.5 c 128,-1,7
 402 -272 402 -272 305.5 -170 c 128,-1,8
 209 -68 209 -68 159 69 c 128,-1,9
 109 206 109 206 109 362 c 0,10,11
 109 505 109 505 141.5 635 c 128,-1,12
 174 765 174 765 234.5 876 c 128,-1,13
 295 987 295 987 381.5 1077.5 c 128,-1,14
 468 1168 468 1168 575 1231.5 c 128,-1,15
 682 1295 682 1295 807.5 1329.5 c 128,-1,16
 933 1364 933 1364 1073 1364 c 0,17,18
 1248 1364 1248 1364 1380 1320.5 c 128,-1,19
 1512 1277 1512 1277 1600.5 1197 c 128,-1,20
 1689 1117 1689 1117 1733.5 1004 c 128,-1,21
 1778 891 1778 891 1778 752 c 0,22,23
 1778 649 1778 649 1750 555 c 128,-1,24
 1722 461 1722 461 1673 380.5 c 128,-1,25
 1624 300 1624 300 1557 234 c 128,-1,26
 1490 168 1490 168 1412 121.5 c 128,-1,27
 1334 75 1334 75 1248 50 c 128,-1,28
 1162 25 1162 25 1075 25 c 0,29,30
 1063 25 1063 25 1051.5 27 c 128,-1,31
 1040 29 1040 29 1031 35 c 128,-1,32
 1022 41 1022 41 1016 51 c 128,-1,33
 1010 61 1010 61 1010 76 c 0,34,35
 1010 104 1010 104 1012.5 138.5 c 128,-1,36
 1015 173 1015 173 1018 201 c 1,37,38
 991 174 991 174 954.5 143 c 128,-1,39
 918 112 918 112 876 86 c 128,-1,40
 834 60 834 60 788 42.5 c 128,-1,41
 742 25 742 25 696 25 c 0,42,43
 624 25 624 25 584.5 79.5 c 128,-1,44
 545 134 545 134 545 225 c 0,45,46
 545 308 545 308 560 389.5 c 128,-1,47
 575 471 575 471 604 545 c 128,-1,48
 633 619 633 619 677 682 c 128,-1,49
 721 745 721 745 778 791 c 0,50,51
 826 829 826 829 870 853.5 c 128,-1,52
 914 878 914 878 960.5 891.5 c 128,-1,53
 1007 905 1007 905 1059 910 c 128,-1,54
 1111 915 1111 915 1174 915 c 0,55,56
 1194 915 1194 915 1209.5 915 c 128,-1,57
 1225 915 1225 915 1239 914.5 c 128,-1,58
 1253 914 1253 914 1266.5 912.5 c 128,-1,59
 1280 911 1280 911 1296 909 c 1,60,-1
 1182 379 l 2,61,62
 1177 358 1177 358 1173 333 c 128,-1,63
 1169 308 1169 308 1166 284.5 c 128,-1,64
 1163 261 1163 261 1161 240 c 128,-1,65
 1159 219 1159 219 1159 205 c 0,66,67
 1159 193 1159 193 1161 181.5 c 128,-1,68
 1163 170 1163 170 1170.5 161.5 c 128,-1,69
 1178 153 1178 153 1192.5 148 c 128,-1,70
 1207 143 1207 143 1233 143 c 0,71,72
 1298 143 1298 143 1355 168 c 128,-1,73
 1412 193 1412 193 1458.5 236.5 c 128,-1,74
 1505 280 1505 280 1541.5 339 c 128,-1,75
 1578 398 1578 398 1602.5 465.5 c 128,-1,76
 1627 533 1627 533 1640 605.5 c 128,-1,77
 1653 678 1653 678 1653 750 c 0,78,79
 1653 879 1653 879 1612 978 c 128,-1,80
 1571 1077 1571 1077 1494.5 1144.5 c 128,-1,81
 1418 1212 1418 1212 1309.5 1247 c 128,-1,82
 1201 1282 1201 1282 1067 1282 c 0,83,84
 939 1282 939 1282 828.5 1248.5 c 128,-1,85
 718 1215 718 1215 626.5 1155 c 128,-1,86
 535 1095 535 1095 464.5 1010.5 c 128,-1,87
 394 926 394 926 345.5 824.5 c 128,-1,88
 297 723 297 723 271.5 606.5 c 128,-1,89
 246 490 246 490 246 365 c 0,90,91
 246 233 246 233 285 112 c 128,-1,92
 324 -9 324 -9 404.5 -101.5 c 128,-1,93
 485 -194 485 -194 607 -249.5 c 128,-1,94
 729 -305 729 -305 895 -305 c 0,95,96
 990 -305 990 -305 1066.5 -291 c 128,-1,97
 1143 -277 1143 -277 1206 -253.5 c 128,-1,98
 1269 -230 1269 -230 1322.5 -199 c 128,-1,99
 1376 -168 1376 -168 1425 -133 c 1,100,-1
 1458 -184 l 1,0,1
1139 807 m 1,101,102
 1129 808 1129 808 1120 809 c 0,103,104
 1112 810 1112 810 1104 810.5 c 128,-1,105
 1096 811 1096 811 1090 811 c 0,106,107
 1061 811 1061 811 1026.5 808 c 128,-1,108
 992 805 992 805 956.5 796.5 c 128,-1,109
 921 788 921 788 886 773 c 128,-1,110
 851 758 851 758 823 733 c 0,111,112
 794 707 794 707 768 663.5 c 128,-1,113
 742 620 742 620 722.5 564 c 128,-1,114
 703 508 703 508 691.5 443 c 128,-1,115
 680 378 680 378 680 309 c 0,116,117
 680 238 680 238 700 199 c 128,-1,118
 720 160 720 160 760 160 c 0,119,120
 796 160 796 160 833.5 171 c 128,-1,121
 871 182 871 182 906.5 198.5 c 128,-1,122
 942 215 942 215 972.5 235.5 c 128,-1,123
 1003 256 1003 256 1024 274 c 1,124,-1
 1139 807 l 1,101,102
EndSplineSet
EndChar

StartChar: A
Encoding: 65 65 36
Width: 1479
Flags: W
LayerCount: 2
Fore
SplineSet
461 53 m 1,0,-1
 461 0 l 1,1,-1
 20 0 l 1,2,-1
 20 53 l 1,3,-1
 172 80 l 1,4,-1
 629 1352 l 1,5,-1
 819 1352 l 1,6,-1
 1294 80 l 1,7,-1
 1464 53 l 1,8,-1
 1464 0 l 1,9,-1
 897 0 l 1,10,-1
 897 53 l 1,11,-1
 1077 80 l 1,12,-1
 944 467 l 1,13,-1
 416 467 l 1,14,-1
 281 80 l 1,15,-1
 461 53 l 1,0,-1
676 1208 m 1,16,-1
 446 557 l 1,17,-1
 913 557 l 1,18,-1
 676 1208 l 1,16,-1
EndSplineSet
EndChar

StartChar: B
Encoding: 66 66 37
Width: 1366
Flags: W
LayerCount: 2
Fore
SplineSet
958 1016 m 0,0,1
 958 1075 958 1075 940.5 1119 c 128,-1,2
 923 1163 923 1163 884 1192.5 c 128,-1,3
 845 1222 845 1222 783 1236.5 c 128,-1,4
 721 1251 721 1251 631 1251 c 2,5,-1
 424 1251 l 1,6,-1
 424 744 l 1,7,-1
 643 744 l 2,8,9
 736 744 736 744 797 763.5 c 128,-1,10
 858 783 858 783 893.5 818.5 c 128,-1,11
 929 854 929 854 943.5 904 c 128,-1,12
 958 954 958 954 958 1016 c 0,0,1
1059 382 m 0,13,14
 1059 452 1059 452 1036.5 503 c 128,-1,15
 1014 554 1014 554 966.5 587.5 c 128,-1,16
 919 621 919 621 844 637.5 c 128,-1,17
 769 654 769 654 664 654 c 2,18,-1
 424 654 l 1,19,-1
 424 90 l 1,20,21
 470 88 470 88 520 87 c 1,22,23
 563 85 563 85 615 84.5 c 128,-1,24
 667 84 667 84 718 84 c 0,25,26
 812 84 812 84 877 105 c 128,-1,27
 942 126 942 126 982.5 164.5 c 128,-1,28
 1023 203 1023 203 1041 258 c 128,-1,29
 1059 313 1059 313 1059 382 c 0,13,14
59 0 m 1,30,-1
 59 53 l 1,31,-1
 231 80 l 1,32,-1
 231 1262 l 1,33,-1
 59 1288 l 1,34,-1
 59 1341 l 1,35,-1
 672 1341 l 2,36,37
 813 1341 813 1341 907 1319.5 c 128,-1,38
 1001 1298 1001 1298 1058 1257 c 128,-1,39
 1115 1216 1115 1216 1139 1157.5 c 128,-1,40
 1163 1099 1163 1099 1163 1026 c 0,41,42
 1163 963 1163 963 1142.5 911 c 128,-1,43
 1122 859 1122 859 1085.5 819.5 c 128,-1,44
 1049 780 1049 780 998 753.5 c 128,-1,45
 947 727 947 727 887 714 c 1,46,47
 974 705 974 705 1044.5 679 c 128,-1,48
 1115 653 1115 653 1164 611.5 c 128,-1,49
 1213 570 1213 570 1239.5 513 c 128,-1,50
 1266 456 1266 456 1266 386 c 0,51,52
 1266 299 1266 299 1236.5 226.5 c 128,-1,53
 1207 154 1207 154 1144 102.5 c 128,-1,54
 1081 51 1081 51 982 22.5 c 128,-1,55
 883 -6 883 -6 743 -6 c 0,56,57
 631 -6 631 -6 520 -3 c 128,-1,58
 409 0 409 0 315 0 c 2,59,-1
 59 0 l 1,30,-1
EndSplineSet
EndChar

StartChar: C
Encoding: 67 67 38
Width: 1366
Flags: W
LayerCount: 2
Fore
SplineSet
774 -20 m 0,0,1
 610 -20 610 -20 481.5 26 c 128,-1,2
 353 72 353 72 264.5 159 c 128,-1,3
 176 246 176 246 130 371.5 c 128,-1,4
 84 497 84 497 84 655 c 0,5,6
 84 835 84 835 130.5 967 c 128,-1,7
 177 1099 177 1099 265.5 1185.5 c 128,-1,8
 354 1272 354 1272 483 1314 c 128,-1,9
 612 1356 612 1356 778 1356 c 0,10,11
 847 1356 847 1356 908 1351.5 c 128,-1,12
 969 1347 969 1347 1024.5 1340 c 128,-1,13
 1080 1333 1080 1333 1130 1324 c 128,-1,14
 1180 1315 1180 1315 1227 1305 c 1,15,-1
 1233 1012 l 1,16,-1
 1167 1012 l 1,17,-1
 1137 1186 l 1,18,19
 1067 1229 1067 1229 974.5 1252.5 c 128,-1,20
 882 1276 882 1276 786 1276 c 0,21,22
 669 1276 669 1276 577.5 1244 c 128,-1,23
 486 1212 486 1212 423 1139.5 c 128,-1,24
 360 1067 360 1067 326.5 948.5 c 128,-1,25
 293 830 293 830 293 657 c 0,26,27
 293 505 293 505 326 392.5 c 128,-1,28
 359 280 359 280 421 205.5 c 128,-1,29
 483 131 483 131 572.5 94 c 128,-1,30
 662 57 662 57 776 57 c 0,31,32
 838 57 838 57 894.5 65 c 128,-1,33
 951 73 951 73 999.5 87 c 128,-1,34
 1048 101 1048 101 1086.5 119.5 c 128,-1,35
 1125 138 1125 138 1151 158 c 1,36,-1
 1188 358 l 1,37,-1
 1253 358 l 1,38,-1
 1247 43 l 1,39,40
 1205 31 1205 31 1151 19.5 c 128,-1,41
 1097 8 1097 8 1036 -1 c 128,-1,42
 975 -10 975 -10 908 -15 c 128,-1,43
 841 -20 841 -20 774 -20 c 0,0,1
EndSplineSet
EndChar

StartChar: D
Encoding: 68 68 39
Width: 1479
Flags: W
LayerCount: 2
Fore
SplineSet
1188 680 m 256,0,1
 1188 828 1188 828 1147 935.5 c 128,-1,2
 1106 1043 1106 1043 1029.5 1113 c 128,-1,3
 953 1183 953 1183 845 1217 c 128,-1,4
 737 1251 737 1251 604 1251 c 2,5,-1
 424 1251 l 1,6,-1
 424 94 l 1,7,8
 454 92 454 92 489 91 c 128,-1,9
 524 90 524 90 561 88.5 c 128,-1,10
 598 87 598 87 635.5 86.5 c 128,-1,11
 673 86 673 86 709 86 c 0,12,13
 836 86 836 86 926.5 123.5 c 128,-1,14
 1017 161 1017 161 1075 235.5 c 128,-1,15
 1133 310 1133 310 1160.5 421 c 128,-1,16
 1188 532 1188 532 1188 680 c 256,0,1
668 1341 m 2,17,18
 835 1341 835 1341 969.5 1306 c 128,-1,19
 1104 1271 1104 1271 1199 1192 c 128,-1,20
 1294 1113 1294 1113 1345.5 987 c 128,-1,21
 1397 861 1397 861 1397 678 c 0,22,23
 1397 514 1397 514 1355 387 c 128,-1,24
 1313 260 1313 260 1228 173 c 128,-1,25
 1143 86 1143 86 1013.5 41 c 128,-1,26
 884 -4 884 -4 709 -4 c 0,27,28
 652 -4 652 -4 584.5 -3.5 c 128,-1,29
 517 -3 517 -3 452 -2 c 128,-1,30
 387 -1 387 -1 328.5 -0.5 c 128,-1,31
 270 0 270 0 231 0 c 2,32,-1
 59 0 l 1,33,-1
 59 53 l 1,34,-1
 231 80 l 1,35,-1
 231 1262 l 1,36,-1
 59 1288 l 1,37,-1
 59 1341 l 1,38,-1
 668 1341 l 2,17,18
EndSplineSet
EndChar

StartChar: E
Encoding: 69 69 40
Width: 1251
Flags: W
LayerCount: 2
Fore
SplineSet
59 53 m 1,0,-1
 231 80 l 1,1,-1
 231 1262 l 1,2,-1
 59 1288 l 1,3,-1
 59 1341 l 1,4,-1
 1065 1341 l 1,5,-1
 1065 1020 l 1,6,-1
 999 1020 l 1,7,-1
 967 1237 l 1,8,9
 935 1241 935 1241 889.5 1244 c 128,-1,10
 844 1247 844 1247 797 1248.5 c 128,-1,11
 750 1250 750 1250 708 1250.5 c 128,-1,12
 666 1251 666 1251 643 1251 c 2,13,-1
 424 1251 l 1,14,-1
 424 727 l 1,15,-1
 786 727 l 1,16,-1
 817 887 l 1,17,-1
 881 887 l 1,18,-1
 881 475 l 1,19,-1
 817 475 l 1,20,-1
 786 637 l 1,21,-1
 424 637 l 1,22,-1
 424 90 l 1,23,-1
 688 90 l 2,24,25
 750 90 750 90 805 91.5 c 128,-1,26
 860 93 860 93 904 95 c 128,-1,27
 948 97 948 97 979.5 100 c 128,-1,28
 1011 103 1011 103 1026 106 c 1,29,-1
 1083 354 l 1,30,-1
 1149 354 l 1,31,-1
 1130 0 l 1,32,-1
 59 0 l 1,33,-1
 59 53 l 1,0,-1
EndSplineSet
EndChar

StartChar: F
Encoding: 70 70 41
Width: 1139
Flags: W
LayerCount: 2
Fore
SplineSet
424 602 m 1,0,-1
 424 80 l 1,1,-1
 647 53 l 1,2,-1
 647 0 l 1,3,-1
 72 0 l 1,4,-1
 72 53 l 1,5,-1
 231 80 l 1,6,-1
 231 1262 l 1,7,-1
 59 1288 l 1,8,-1
 59 1341 l 1,9,-1
 1065 1341 l 1,10,-1
 1065 1020 l 1,11,-1
 999 1020 l 1,12,-1
 967 1237 l 1,13,14
 935 1241 935 1241 889.5 1244 c 128,-1,15
 844 1247 844 1247 797 1248.5 c 128,-1,16
 750 1250 750 1250 708 1250.5 c 128,-1,17
 666 1251 666 1251 643 1251 c 2,18,-1
 424 1251 l 1,19,-1
 424 692 l 1,20,-1
 819 692 l 1,21,-1
 850 852 l 1,22,-1
 911 852 l 1,23,-1
 911 440 l 1,24,-1
 850 440 l 1,25,-1
 819 602 l 1,26,-1
 424 602 l 1,0,-1
EndSplineSet
EndChar

StartChar: G
Encoding: 71 71 42
Width: 1479
Flags: W
LayerCount: 2
Fore
SplineSet
1284 70 m 1,0,1
 1168 32 1168 32 1043 6 c 128,-1,2
 918 -20 918 -20 774 -20 c 0,3,4
 615 -20 615 -20 487.5 23.5 c 128,-1,5
 360 67 360 67 270 152.5 c 128,-1,6
 180 238 180 238 132 364 c 128,-1,7
 84 490 84 490 84 655 c 0,8,9
 84 1007 84 1007 260.5 1181.5 c 128,-1,10
 437 1356 437 1356 778 1356 c 0,11,12
 908 1356 908 1356 1025.5 1340 c 128,-1,13
 1143 1324 1143 1324 1249 1296 c 1,14,-1
 1249 1008 l 1,15,-1
 1182 1008 l 1,16,-1
 1155 1174 l 1,17,18
 1086 1223 1086 1223 989.5 1249.5 c 128,-1,19
 893 1276 893 1276 786 1276 c 0,20,21
 669 1276 669 1276 577.5 1243.5 c 128,-1,22
 486 1211 486 1211 423 1138 c 128,-1,23
 360 1065 360 1065 326.5 946.5 c 128,-1,24
 293 828 293 828 293 657 c 0,25,26
 293 484 293 484 332 368.5 c 128,-1,27
 371 253 371 253 437.5 184 c 128,-1,28
 504 115 504 115 591.5 86 c 128,-1,29
 679 57 679 57 776 57 c 0,30,31
 825 57 825 57 873.5 63.5 c 128,-1,32
 922 70 922 70 964.5 80 c 128,-1,33
 1007 90 1007 90 1040 102 c 128,-1,34
 1073 114 1073 114 1092 125 c 1,35,-1
 1092 506 l 1,36,-1
 920 532 l 1,37,-1
 920 586 l 1,38,-1
 1415 586 l 1,39,-1
 1415 532 l 1,40,-1
 1284 506 l 1,41,-1
 1284 70 l 1,0,1
EndSplineSet
EndChar

StartChar: H
Encoding: 72 72 43
Width: 1479
Flags: W
LayerCount: 2
Fore
SplineSet
59 0 m 1,0,-1
 59 53 l 1,1,-1
 231 80 l 1,2,-1
 231 1262 l 1,3,-1
 59 1288 l 1,4,-1
 59 1341 l 1,5,-1
 596 1341 l 1,6,-1
 596 1288 l 1,7,-1
 424 1262 l 1,8,-1
 424 735 l 1,9,-1
 1055 735 l 1,10,-1
 1055 1262 l 1,11,-1
 883 1288 l 1,12,-1
 883 1341 l 1,13,-1
 1419 1341 l 1,14,-1
 1419 1288 l 1,15,-1
 1247 1262 l 1,16,-1
 1247 80 l 1,17,-1
 1419 53 l 1,18,-1
 1419 0 l 1,19,-1
 883 0 l 1,20,-1
 883 53 l 1,21,-1
 1055 80 l 1,22,-1
 1055 645 l 1,23,-1
 424 645 l 1,24,-1
 424 80 l 1,25,-1
 596 53 l 1,26,-1
 596 0 l 1,27,-1
 59 0 l 1,0,-1
EndSplineSet
EndChar

StartChar: I
Encoding: 73 73 44
Width: 682
Flags: W
LayerCount: 2
Fore
SplineSet
438 80 m 1,0,-1
 610 53 l 1,1,-1
 610 0 l 1,2,-1
 74 0 l 1,3,-1
 74 53 l 1,4,-1
 246 80 l 1,5,-1
 246 1262 l 1,6,-1
 74 1288 l 1,7,-1
 74 1341 l 1,8,-1
 610 1341 l 1,9,-1
 610 1288 l 1,10,-1
 438 1262 l 1,11,-1
 438 80 l 1,0,-1
EndSplineSet
EndChar

StartChar: J
Encoding: 74 74 45
Width: 797
Flags: W
LayerCount: 2
Fore
SplineSet
410 1262 m 1,0,-1
 238 1288 l 1,1,-1
 238 1341 l 1,2,-1
 754 1341 l 1,3,-1
 754 1288 l 1,4,-1
 602 1262 l 1,5,-1
 602 432 l 2,6,7
 602 341 602 341 585 272 c 128,-1,8
 568 203 568 203 540 153 c 128,-1,9
 512 103 512 103 475.5 69.5 c 128,-1,10
 439 36 439 36 400 16 c 128,-1,11
 361 -4 361 -4 322 -12 c 128,-1,12
 283 -20 283 -20 250 -20 c 0,13,14
 185 -20 185 -20 132.5 -12 c 128,-1,15
 80 -4 80 -4 43 10 c 1,16,-1
 43 254 l 1,17,-1
 109 254 l 1,18,-1
 139 115 l 1,19,20
 158 92 158 92 193 79 c 128,-1,21
 228 66 228 66 270 66 c 0,22,23
 410 66 410 66 410 256 c 2,24,-1
 410 1262 l 1,0,-1
EndSplineSet
EndChar

StartChar: K
Encoding: 75 75 46
Width: 1479
Flags: W
LayerCount: 2
Fore
SplineSet
1353 1341 m 1,0,-1
 1353 1288 l 1,1,-1
 1198 1262 l 1,2,-1
 740 814 l 1,3,-1
 1313 80 l 1,4,-1
 1458 53 l 1,5,-1
 1458 0 l 1,6,-1
 1130 0 l 1,7,-1
 605 678 l 1,8,-1
 424 533 l 1,9,-1
 424 80 l 1,10,-1
 616 53 l 1,11,-1
 616 0 l 1,12,-1
 59 0 l 1,13,-1
 59 53 l 1,14,-1
 231 80 l 1,15,-1
 231 1262 l 1,16,-1
 59 1288 l 1,17,-1
 59 1341 l 1,18,-1
 596 1341 l 1,19,-1
 596 1288 l 1,20,-1
 424 1262 l 1,21,-1
 424 630 l 1,22,-1
 1066 1262 l 1,23,-1
 933 1288 l 1,24,-1
 933 1341 l 1,25,-1
 1353 1341 l 1,0,-1
EndSplineSet
EndChar

StartChar: L
Encoding: 76 76 47
Width: 1251
Flags: W
LayerCount: 2
Fore
SplineSet
631 1288 m 1,0,-1
 424 1262 l 1,1,-1
 424 86 l 1,2,-1
 688 86 l 2,3,4
 813 86 813 86 892 93 c 128,-1,5
 971 100 971 100 1001 106 c 1,6,-1
 1063 385 l 1,7,-1
 1128 385 l 1,8,-1
 1110 0 l 1,9,-1
 59 0 l 1,10,-1
 59 53 l 1,11,-1
 231 80 l 1,12,-1
 231 1262 l 1,13,-1
 59 1288 l 1,14,-1
 59 1341 l 1,15,-1
 631 1341 l 1,16,-1
 631 1288 l 1,0,-1
EndSplineSet
EndChar

StartChar: M
Encoding: 77 77 48
Width: 1821
Flags: W
LayerCount: 2
Fore
SplineSet
862 0 m 1,0,-1
 827 0 l 1,1,-1
 336 1153 l 1,2,-1
 336 80 l 1,3,-1
 516 53 l 1,4,-1
 516 0 l 1,5,-1
 59 0 l 1,6,-1
 59 53 l 1,7,-1
 231 80 l 1,8,-1
 231 1262 l 1,9,-1
 59 1288 l 1,10,-1
 59 1341 l 1,11,-1
 465 1341 l 1,12,-1
 901 321 l 1,13,-1
 1377 1341 l 1,14,-1
 1761 1341 l 1,15,-1
 1761 1288 l 1,16,-1
 1589 1262 l 1,17,-1
 1589 80 l 1,18,-1
 1761 53 l 1,19,-1
 1761 0 l 1,20,-1
 1217 0 l 1,21,-1
 1217 53 l 1,22,-1
 1397 80 l 1,23,-1
 1397 1153 l 1,24,-1
 862 0 l 1,0,-1
EndSplineSet
EndChar

StartChar: N
Encoding: 78 78 49
Width: 1479
Flags: W
LayerCount: 2
Fore
SplineSet
1155 1262 m 1,0,-1
 975 1288 l 1,1,-1
 975 1341 l 1,2,-1
 1432 1341 l 1,3,-1
 1432 1288 l 1,4,-1
 1260 1262 l 1,5,-1
 1260 0 l 1,6,-1
 1163 0 l 1,7,-1
 336 1206 l 1,8,-1
 336 80 l 1,9,-1
 516 53 l 1,10,-1
 516 0 l 1,11,-1
 59 0 l 1,12,-1
 59 53 l 1,13,-1
 231 80 l 1,14,-1
 231 1262 l 1,15,-1
 59 1288 l 1,16,-1
 59 1341 l 1,17,-1
 465 1341 l 1,18,-1
 1155 348 l 1,19,-1
 1155 1262 l 1,0,-1
EndSplineSet
EndChar

StartChar: O
Encoding: 79 79 50
Width: 1479
Flags: W
LayerCount: 2
Fore
SplineSet
293 672 m 0,0,1
 293 532 293 532 314 419 c 128,-1,2
 335 306 335 306 386 226 c 128,-1,3
 437 146 437 146 523 102.5 c 128,-1,4
 609 59 609 59 739 59 c 256,5,6
 869 59 869 59 955 102.5 c 128,-1,7
 1041 146 1041 146 1092.5 226 c 128,-1,8
 1144 306 1144 306 1165 419 c 128,-1,9
 1186 532 1186 532 1186 672 c 0,10,11
 1186 811 1186 811 1165 923 c 128,-1,12
 1144 1035 1144 1035 1092.5 1113.5 c 128,-1,13
 1041 1192 1041 1192 955 1234 c 128,-1,14
 869 1276 869 1276 739 1276 c 256,15,16
 609 1276 609 1276 523 1234 c 128,-1,17
 437 1192 437 1192 386 1113.5 c 128,-1,18
 335 1035 335 1035 314 923 c 128,-1,19
 293 811 293 811 293 672 c 0,0,1
84 672 m 256,20,21
 84 850 84 850 127.5 979 c 128,-1,22
 171 1108 171 1108 254 1192 c 128,-1,23
 337 1276 337 1276 459 1316 c 128,-1,24
 581 1356 581 1356 739 1356 c 0,25,26
 892 1356 892 1356 1013.5 1316 c 128,-1,27
 1135 1276 1135 1276 1220 1192 c 128,-1,28
 1305 1108 1305 1108 1350 979 c 128,-1,29
 1395 850 1395 850 1395 672 c 256,30,31
 1395 494 1395 494 1350 363.5 c 128,-1,32
 1305 233 1305 233 1220 148 c 128,-1,33
 1135 63 1135 63 1013.5 21.5 c 128,-1,34
 892 -20 892 -20 739 -20 c 256,35,36
 586 -20 586 -20 465 21.5 c 128,-1,37
 344 63 344 63 259 148 c 128,-1,38
 174 233 174 233 129 363.5 c 128,-1,39
 84 494 84 494 84 672 c 256,20,21
EndSplineSet
EndChar

StartChar: P
Encoding: 80 80 51
Width: 1139
Flags: W
LayerCount: 2
Fore
SplineSet
858 944 m 0,0,1
 858 1024 858 1024 840.5 1082 c 128,-1,2
 823 1140 823 1140 783.5 1177.5 c 128,-1,3
 744 1215 744 1215 680 1233 c 128,-1,4
 616 1251 616 1251 522 1251 c 2,5,-1
 424 1251 l 1,6,-1
 424 616 l 1,7,-1
 528 616 l 2,8,9
 622 616 622 616 685.5 638.5 c 128,-1,10
 749 661 749 661 787.5 703 c 128,-1,11
 826 745 826 745 842 806 c 128,-1,12
 858 867 858 867 858 944 c 0,0,1
424 526 m 1,13,-1
 424 80 l 1,14,-1
 637 53 l 1,15,-1
 637 0 l 1,16,-1
 72 0 l 1,17,-1
 72 53 l 1,18,-1
 231 80 l 1,19,-1
 231 1262 l 1,20,-1
 59 1288 l 1,21,-1
 59 1341 l 1,22,-1
 565 1341 l 2,23,24
 706 1341 706 1341 800.5 1310.5 c 128,-1,25
 895 1280 895 1280 952 1226.5 c 128,-1,26
 1009 1173 1009 1173 1033 1101 c 128,-1,27
 1057 1029 1057 1029 1057 946 c 0,28,29
 1057 864 1057 864 1033.5 788 c 128,-1,30
 1010 712 1010 712 954.5 654 c 128,-1,31
 899 596 899 596 806 561 c 128,-1,32
 713 526 713 526 575 526 c 2,33,-1
 424 526 l 1,13,-1
EndSplineSet
EndChar

StartChar: Q
Encoding: 81 81 52
Width: 1479
Flags: W
LayerCount: 2
Fore
SplineSet
293 670 m 0,0,1
 293 530 293 530 314 417 c 128,-1,2
 335 304 335 304 386 224.5 c 128,-1,3
 437 145 437 145 523 102 c 128,-1,4
 609 59 609 59 739 59 c 256,5,6
 869 59 869 59 955 102 c 128,-1,7
 1041 145 1041 145 1092.5 224.5 c 128,-1,8
 1144 304 1144 304 1165 417 c 128,-1,9
 1186 530 1186 530 1186 670 c 0,10,11
 1186 809 1186 809 1165 921.5 c 128,-1,12
 1144 1034 1144 1034 1092.5 1112.5 c 128,-1,13
 1041 1191 1041 1191 955 1233.5 c 128,-1,14
 869 1276 869 1276 739 1276 c 256,15,16
 609 1276 609 1276 523 1233.5 c 128,-1,17
 437 1191 437 1191 386 1112.5 c 128,-1,18
 335 1034 335 1034 314 921.5 c 128,-1,19
 293 809 293 809 293 670 c 0,0,1
84 670 m 256,20,21
 84 848 84 848 127.5 977.5 c 128,-1,22
 171 1107 171 1107 254 1191 c 128,-1,23
 337 1275 337 1275 459 1315.5 c 128,-1,24
 581 1356 581 1356 739 1356 c 0,25,26
 892 1356 892 1356 1013.5 1315.5 c 128,-1,27
 1135 1275 1135 1275 1220 1191 c 128,-1,28
 1305 1107 1305 1107 1350 977.5 c 128,-1,29
 1395 848 1395 848 1395 670 c 0,30,31
 1395 542 1395 542 1371.5 439.5 c 128,-1,32
 1348 337 1348 337 1302.5 258.5 c 128,-1,33
 1257 180 1257 180 1191 124 c 128,-1,34
 1125 68 1125 68 1040 33 c 1,35,-1
 1090 -29 l 2,36,37
 1133 -83 1133 -83 1170 -122 c 128,-1,38
 1207 -161 1207 -161 1239.5 -185.5 c 128,-1,39
 1272 -210 1272 -210 1302 -221.5 c 128,-1,40
 1332 -233 1332 -233 1362 -233 c 0,41,42
 1369 -233 1369 -233 1381 -232.5 c 128,-1,43
 1393 -232 1393 -232 1405 -231.5 c 128,-1,44
 1417 -231 1417 -231 1428 -230.5 c 128,-1,45
 1439 -230 1439 -230 1444 -229 c 1,46,-1
 1444 -295 l 1,47,48
 1433 -300 1433 -300 1411 -306 c 128,-1,49
 1389 -312 1389 -312 1361.5 -318 c 128,-1,50
 1334 -324 1334 -324 1304 -328 c 128,-1,51
 1274 -332 1274 -332 1247 -332 c 0,52,53
 1190 -332 1190 -332 1144.5 -317.5 c 128,-1,54
 1099 -303 1099 -303 1055.5 -271.5 c 128,-1,55
 1012 -240 1012 -240 966.5 -189.5 c 128,-1,56
 921 -139 921 -139 864 -68 c 2,57,-1
 823 -16 l 1,58,59
 805 -18 805 -18 784.5 -19 c 128,-1,60
 764 -20 764 -20 739 -20 c 0,61,62
 586 -20 586 -20 465 21 c 128,-1,63
 344 62 344 62 259 147 c 128,-1,64
 174 232 174 232 129 362 c 128,-1,65
 84 492 84 492 84 670 c 256,20,21
EndSplineSet
EndChar

StartChar: R
Encoding: 82 82 53
Width: 1366
Flags: W
LayerCount: 2
Fore
SplineSet
424 588 m 1,0,-1
 424 80 l 1,1,-1
 627 53 l 1,2,-1
 627 0 l 1,3,-1
 72 0 l 1,4,-1
 72 53 l 1,5,-1
 231 80 l 1,6,-1
 231 1262 l 1,7,-1
 59 1288 l 1,8,-1
 59 1341 l 1,9,-1
 638 1341 l 2,10,11
 779 1341 779 1341 873.5 1316 c 128,-1,12
 968 1291 968 1291 1025 1244.5 c 128,-1,13
 1082 1198 1082 1198 1106 1132 c 128,-1,14
 1130 1066 1130 1066 1130 983 c 0,15,16
 1130 906 1130 906 1107.5 845.5 c 128,-1,17
 1085 785 1085 785 1047 739 c 128,-1,18
 1009 693 1009 693 959 662.5 c 128,-1,19
 909 632 909 632 855 616 c 1,20,-1
 1218 80 l 1,21,-1
 1363 53 l 1,22,-1
 1363 0 l 1,23,-1
 1042 0 l 1,24,-1
 665 588 l 1,25,-1
 424 588 l 1,0,-1
931 969 m 0,26,27
 931 1049 931 1049 912 1103 c 128,-1,28
 893 1157 893 1157 852.5 1190 c 128,-1,29
 812 1223 812 1223 748.5 1237 c 128,-1,30
 685 1251 685 1251 595 1251 c 2,31,-1
 424 1251 l 1,32,-1
 424 678 l 1,33,-1
 601 678 l 2,34,35
 693 678 693 678 756 694.5 c 128,-1,36
 819 711 819 711 858 746.5 c 128,-1,37
 897 782 897 782 914 837 c 128,-1,38
 931 892 931 892 931 969 c 0,26,27
EndSplineSet
EndChar

StartChar: S
Encoding: 83 83 54
Width: 1139
Flags: W
LayerCount: 2
Fore
SplineSet
139 361 m 1,0,-1
 204 361 l 1,1,-1
 239 180 l 1,2,3
 258 156 258 156 292 134.5 c 128,-1,4
 326 113 326 113 367.5 96.5 c 128,-1,5
 409 80 409 80 455 70.5 c 128,-1,6
 501 61 501 61 545 61 c 0,7,8
 621 61 621 61 677 81.5 c 128,-1,9
 733 102 733 102 769.5 138 c 128,-1,10
 806 174 806 174 824 223 c 128,-1,11
 842 272 842 272 842 330 c 0,12,13
 842 402 842 402 811.5 449 c 128,-1,14
 781 496 781 496 731.5 528.5 c 128,-1,15
 682 561 682 561 619 583.5 c 128,-1,16
 556 606 556 606 489.5 629 c 128,-1,17
 423 652 423 652 360 680 c 128,-1,18
 297 708 297 708 247.5 751 c 128,-1,19
 198 794 198 794 167.5 857.5 c 128,-1,20
 137 921 137 921 137 1014 c 0,21,22
 137 1092 137 1092 167 1155.5 c 128,-1,23
 197 1219 197 1219 255 1263.5 c 128,-1,24
 313 1308 313 1308 397.5 1332 c 128,-1,25
 482 1356 482 1356 590 1356 c 0,26,27
 689 1356 689 1356 778 1343 c 128,-1,28
 867 1330 867 1330 942 1313 c 1,29,-1
 942 1034 l 1,30,-1
 877 1034 l 1,31,-1
 842 1198 l 1,32,33
 798 1230 798 1230 734 1251 c 128,-1,34
 670 1272 670 1272 590 1272 c 0,35,36
 516 1272 516 1272 462.5 1256 c 128,-1,37
 409 1240 409 1240 374 1212.5 c 128,-1,38
 339 1185 339 1185 322 1147.5 c 128,-1,39
 305 1110 305 1110 305 1067 c 0,40,41
 305 1002 305 1002 335.5 959 c 128,-1,42
 366 916 366 916 415.5 885.5 c 128,-1,43
 465 855 465 855 528.5 833 c 128,-1,44
 592 811 592 811 658.5 787.5 c 128,-1,45
 725 764 725 764 788.5 734.5 c 128,-1,46
 852 705 852 705 901.5 659.5 c 128,-1,47
 951 614 951 614 981.5 548.5 c 128,-1,48
 1012 483 1012 483 1012 387 c 0,49,50
 1012 294 1012 294 983.5 219 c 128,-1,51
 955 144 955 144 897.5 90.5 c 128,-1,52
 840 37 840 37 753.5 8.5 c 128,-1,53
 667 -20 667 -20 550 -20 c 0,54,55
 488 -20 488 -20 428 -14 c 128,-1,56
 368 -8 368 -8 315 2 c 128,-1,57
 262 12 262 12 217 25 c 128,-1,58
 172 38 172 38 139 51 c 1,59,-1
 139 361 l 1,0,-1
EndSplineSet
EndChar

StartChar: T
Encoding: 84 84 55
Width: 1251
Flags: W
LayerCount: 2
Fore
SplineSet
315 0 m 1,0,-1
 315 53 l 1,1,-1
 528 80 l 1,2,-1
 528 1255 l 1,3,-1
 477 1255 l 2,4,5
 346 1255 346 1255 257 1249 c 128,-1,6
 168 1243 168 1243 131 1235 c 1,7,-1
 104 1026 l 1,8,-1
 37 1026 l 1,9,-1
 37 1341 l 1,10,-1
 1217 1341 l 1,11,-1
 1217 1026 l 1,12,-1
 1149 1026 l 1,13,-1
 1122 1235 l 1,14,15
 1104 1239 1104 1239 1068.5 1242 c 128,-1,16
 1033 1245 1033 1245 986 1247.5 c 128,-1,17
 939 1250 939 1250 883.5 1251.5 c 128,-1,18
 828 1253 828 1253 770 1253 c 2,19,-1
 721 1253 l 1,20,-1
 721 80 l 1,21,-1
 934 53 l 1,22,-1
 934 0 l 1,23,-1
 315 0 l 1,0,-1
EndSplineSet
EndChar

StartChar: U
Encoding: 85 85 56
Width: 1479
Flags: W
LayerCount: 2
Fore
SplineSet
1159 1262 m 1,0,-1
 979 1288 l 1,1,-1
 979 1341 l 1,2,-1
 1436 1341 l 1,3,-1
 1436 1288 l 1,4,-1
 1264 1262 l 1,5,-1
 1264 461 l 2,6,7
 1264 369 1264 369 1241 282.5 c 128,-1,8
 1218 196 1218 196 1160 129 c 128,-1,9
 1102 62 1102 62 1001.5 21 c 128,-1,10
 901 -20 901 -20 747 -20 c 0,11,12
 480 -20 480 -20 347.5 100.5 c 128,-1,13
 215 221 215 221 215 442 c 2,14,-1
 215 1262 l 1,15,-1
 43 1288 l 1,16,-1
 43 1341 l 1,17,-1
 579 1341 l 1,18,-1
 579 1288 l 1,19,-1
 407 1262 l 1,20,-1
 407 457 l 2,21,22
 407 375 407 375 426.5 307.5 c 128,-1,23
 446 240 446 240 488.5 192 c 128,-1,24
 531 144 531 144 598.5 118 c 128,-1,25
 666 92 666 92 762 92 c 0,26,27
 867 92 867 92 942 118 c 128,-1,28
 1017 144 1017 144 1065.5 191 c 128,-1,29
 1114 238 1114 238 1136.5 305 c 128,-1,30
 1159 372 1159 372 1159 453 c 2,31,-1
 1159 1262 l 1,0,-1
EndSplineSet
EndChar

StartChar: V
Encoding: 86 86 57
Width: 1479
Flags: W
LayerCount: 2
Fore
SplineSet
1456 1341 m 1,0,-1
 1456 1288 l 1,1,-1
 1309 1262 l 1,2,-1
 770 -31 l 1,3,-1
 719 -31 l 1,4,-1
 174 1262 l 1,5,-1
 23 1288 l 1,6,-1
 23 1341 l 1,7,-1
 565 1341 l 1,8,-1
 565 1288 l 1,9,-1
 385 1262 l 1,10,-1
 791 275 l 1,11,-1
 1196 1262 l 1,12,-1
 1020 1288 l 1,13,-1
 1020 1341 l 1,14,-1
 1456 1341 l 1,0,-1
EndSplineSet
EndChar

StartChar: W
Encoding: 87 87 58
Width: 1933
Flags: W
LayerCount: 2
Fore
SplineSet
1812 1262 m 1,0,-1
 1374 -31 l 1,1,-1
 1321 -31 l 1,2,-1
 973 893 l 1,3,-1
 616 -31 l 1,4,-1
 563 -31 l 1,5,-1
 119 1262 l 1,6,-1
 2 1288 l 1,7,-1
 2 1341 l 1,8,-1
 514 1341 l 1,9,-1
 514 1288 l 1,10,-1
 317 1262 l 1,11,-1
 636 317 l 1,12,-1
 997 1247 l 1,13,-1
 1042 1247 l 1,14,-1
 1390 317 l 1,15,-1
 1694 1262 l 1,16,-1
 1485 1288 l 1,17,-1
 1485 1341 l 1,18,-1
 1929 1341 l 1,19,-1
 1929 1288 l 1,20,-1
 1812 1262 l 1,0,-1
EndSplineSet
EndChar

StartChar: X
Encoding: 88 88 59
Width: 1479
Flags: W
LayerCount: 2
Fore
SplineSet
317 80 m 1,0,-1
 483 53 l 1,1,-1
 483 0 l 1,2,-1
 45 0 l 1,3,-1
 45 53 l 1,4,-1
 193 80 l 1,5,-1
 649 686 l 1,6,-1
 260 1262 l 1,7,-1
 109 1288 l 1,8,-1
 109 1341 l 1,9,-1
 662 1341 l 1,10,-1
 662 1288 l 1,11,-1
 492 1262 l 1,12,-1
 770 848 l 1,13,-1
 1081 1262 l 1,14,-1
 915 1288 l 1,15,-1
 915 1341 l 1,16,-1
 1354 1341 l 1,17,-1
 1354 1288 l 1,18,-1
 1206 1262 l 1,19,-1
 829 760 l 1,20,-1
 1290 80 l 1,21,-1
 1442 53 l 1,22,-1
 1442 0 l 1,23,-1
 889 0 l 1,24,-1
 889 53 l 1,25,-1
 1059 80 l 1,26,-1
 707 600 l 1,27,-1
 317 80 l 1,0,-1
EndSplineSet
EndChar

StartChar: Y
Encoding: 89 89 60
Width: 1479
Flags: W
LayerCount: 2
Fore
SplineSet
838 528 m 1,0,-1
 838 80 l 1,1,-1
 1051 53 l 1,2,-1
 1051 0 l 1,3,-1
 432 0 l 1,4,-1
 432 53 l 1,5,-1
 645 80 l 1,6,-1
 645 522 l 1,7,-1
 174 1262 l 1,8,-1
 23 1288 l 1,9,-1
 23 1341 l 1,10,-1
 590 1341 l 1,11,-1
 590 1288 l 1,12,-1
 410 1262 l 1,13,-1
 795 643 l 1,14,-1
 1161 1262 l 1,15,-1
 991 1288 l 1,16,-1
 991 1341 l 1,17,-1
 1427 1341 l 1,18,-1
 1427 1288 l 1,19,-1
 1280 1262 l 1,20,-1
 838 528 l 1,0,-1
EndSplineSet
EndChar

StartChar: Z
Encoding: 90 90 61
Width: 1251
Flags: W
LayerCount: 2
Fore
SplineSet
98 94 m 1,0,-1
 850 1255 l 1,1,-1
 600 1255 l 2,2,3
 469 1255 469 1255 383 1249 c 128,-1,4
 297 1243 297 1243 260 1235 c 1,5,-1
 229 1024 l 1,6,-1
 160 1024 l 1,7,-1
 160 1341 l 1,8,-1
 1073 1341 l 1,9,-1
 1073 1255 l 1,10,-1
 316 84 l 1,11,-1
 606 84 l 2,12,13
 671 84 671 84 735.5 87.5 c 128,-1,14
 800 91 800 91 855 96.5 c 128,-1,15
 910 102 910 102 951 107.5 c 128,-1,16
 992 113 992 113 1010 117 c 1,17,-1
 1069 373 l 1,18,-1
 1139 373 l 1,19,-1
 1112 0 l 1,20,-1
 98 0 l 1,21,-1
 98 94 l 1,0,-1
EndSplineSet
EndChar

StartChar: bracketleft
Encoding: 91 91 62
Width: 682
Flags: W
LayerCount: 2
Fore
SplineSet
152 -274 m 1,0,-1
 152 1421 l 1,1,-1
 608 1421 l 1,2,-1
 608 1374 l 1,3,-1
 311 1333 l 1,4,-1
 311 -186 l 1,5,-1
 608 -227 l 1,6,-1
 608 -274 l 1,7,-1
 152 -274 l 1,0,-1
EndSplineSet
EndChar

StartChar: backslash
Encoding: 92 92 63
Width: 569
Flags: W
LayerCount: 2
Fore
SplineSet
0 1350 m 1,0,-1
 98 1350 l 1,1,-1
 569 -20 l 1,2,-1
 469 -20 l 1,3,-1
 0 1350 l 1,0,-1
EndSplineSet
EndChar

StartChar: bracketright
Encoding: 93 93 64
Width: 682
Flags: W
LayerCount: 2
Fore
SplineSet
74 -274 m 1,0,-1
 74 -227 l 1,1,-1
 371 -186 l 1,2,-1
 371 1333 l 1,3,-1
 74 1374 l 1,4,-1
 74 1421 l 1,5,-1
 530 1421 l 1,6,-1
 530 -274 l 1,7,-1
 74 -274 l 1,0,-1
EndSplineSet
EndChar

StartChar: asciicircum
Encoding: 94 94 65
Width: 961
Flags: W
LayerCount: 2
Fore
SplineSet
457 1341 m 1,0,-1
 506 1341 l 1,1,-1
 934 389 l 1,2,-1
 831 389 l 1,3,-1
 481 1198 l 1,4,-1
 131 389 l 1,5,-1
 29 389 l 1,6,-1
 457 1341 l 1,0,-1
EndSplineSet
EndChar

StartChar: underscore
Encoding: 95 95 66
Width: 1024
Flags: W
LayerCount: 2
Fore
SplineSet
-16 -264 m 1,0,-1
 -16 -162 l 1,1,-1
 1040 -162 l 1,2,-1
 1040 -264 l 1,3,-1
 -16 -264 l 1,0,-1
EndSplineSet
EndChar

StartChar: grave
Encoding: 96 96 67
Width: 682
Flags: W
LayerCount: 2
Fore
SplineSet
473 1119 m 1,0,-1
 119 1387 l 1,1,-1
 119 1424 l 1,2,-1
 332 1424 l 1,3,-1
 528 1152 l 1,4,-1
 528 1119 l 1,5,-1
 473 1119 l 1,0,-1
EndSplineSet
EndChar

StartChar: a
Encoding: 97 97 68
Width: 909
Flags: W
LayerCount: 2
Fore
SplineSet
465 961 m 0,0,1
 529 961 529 961 584 949 c 128,-1,2
 639 937 639 937 679 908 c 128,-1,3
 719 879 719 879 741.5 829.5 c 128,-1,4
 764 780 764 780 764 705 c 2,5,-1
 764 70 l 1,6,-1
 881 45 l 1,7,-1
 881 0 l 1,8,-1
 623 0 l 1,9,-1
 604 94 l 1,10,11
 589 79 589 79 563.5 59 c 128,-1,12
 538 39 538 39 502 21.5 c 128,-1,13
 466 4 466 4 418.5 -8 c 128,-1,14
 371 -20 371 -20 313 -20 c 0,15,16
 245 -20 245 -20 198.5 1 c 128,-1,17
 152 22 152 22 124 59.5 c 128,-1,18
 96 97 96 97 84 148.5 c 128,-1,19
 72 200 72 200 72 260 c 0,20,21
 72 322 72 322 87 367.5 c 128,-1,22
 102 413 102 413 129 444 c 128,-1,23
 156 475 156 475 192.5 494.5 c 128,-1,24
 229 514 229 514 271.5 525 c 128,-1,25
 314 536 314 536 361.5 540 c 128,-1,26
 409 544 409 544 457 545 c 2,27,-1
 598 549 l 1,28,-1
 598 696 l 2,29,30
 598 738 598 738 591 772.5 c 128,-1,31
 584 807 584 807 567.5 832 c 128,-1,32
 551 857 551 857 523 871 c 128,-1,33
 495 885 495 885 453 885 c 0,34,35
 405 885 405 885 356 872 c 128,-1,36
 307 859 307 859 270 838 c 1,37,-1
 236 721 l 1,38,-1
 180 721 l 1,39,-1
 180 926 l 1,40,41
 245 940 245 940 314.5 950.5 c 128,-1,42
 384 961 384 961 465 961 c 0,0,1
598 479 m 1,43,-1
 467 475 l 2,44,45
 408 473 408 473 365 463.5 c 128,-1,46
 322 454 322 454 294 431 c 128,-1,47
 266 408 266 408 252 368 c 128,-1,48
 238 328 238 328 238 266 c 0,49,50
 238 90 238 90 381 90 c 0,51,52
 449 90 449 90 498.5 105.5 c 128,-1,53
 548 121 548 121 598 145 c 1,54,-1
 598 479 l 1,43,-1
EndSplineSet
EndChar

StartChar: b
Encoding: 98 98 69
Width: 1024
Flags: W
LayerCount: 2
Fore
SplineSet
766 496 m 0,0,1
 766 598 766 598 747.5 667.5 c 128,-1,2
 729 737 729 737 694.5 780 c 128,-1,3
 660 823 660 823 611.5 841.5 c 128,-1,4
 563 860 563 860 504 860 c 0,5,6
 480 860 480 860 452.5 858 c 128,-1,7
 425 856 425 856 398 851.5 c 128,-1,8
 371 847 371 847 346 841 c 128,-1,9
 321 835 321 835 303 827 c 1,10,-1
 303 82 l 1,11,12
 345 74 345 74 399 70 c 128,-1,13
 453 66 453 66 504 66 c 0,14,15
 642 66 642 66 704 174 c 128,-1,16
 766 282 766 282 766 496 c 0,0,1
137 1352 m 1,17,-1
 0 1376 l 1,18,-1
 0 1421 l 1,19,-1
 303 1421 l 1,20,-1
 303 1085 l 2,21,22
 303 1066 303 1066 302.5 1041.5 c 128,-1,23
 302 1017 302 1017 301.5 990.5 c 128,-1,24
 301 964 301 964 299.5 937.5 c 128,-1,25
 298 911 298 911 297 887 c 1,26,27
 342 922 342 922 406.5 943.5 c 128,-1,28
 471 965 471 965 549 965 c 0,29,30
 741 965 741 965 843.5 848.5 c 128,-1,31
 946 732 946 732 946 496 c 0,32,33
 946 377 946 377 920 281.5 c 128,-1,34
 894 186 894 186 840 119 c 128,-1,35
 786 52 786 52 703.5 16 c 128,-1,36
 621 -20 621 -20 508 -20 c 0,37,38
 460 -20 460 -20 410.5 -14.5 c 128,-1,39
 361 -9 361 -9 313 0 c 128,-1,40
 265 9 265 9 220 21.5 c 128,-1,41
 175 34 175 34 137 49 c 1,42,-1
 137 1352 l 1,17,-1
EndSplineSet
EndChar

StartChar: c
Encoding: 99 99 70
Width: 909
Flags: W
LayerCount: 2
Fore
SplineSet
846 57 m 1,0,1
 820 38 820 38 784 23.5 c 128,-1,2
 748 9 748 9 707 -0.5 c 128,-1,3
 666 -10 666 -10 621.5 -15 c 128,-1,4
 577 -20 577 -20 535 -20 c 0,5,6
 413 -20 413 -20 326.5 13.5 c 128,-1,7
 240 47 240 47 185 111 c 128,-1,8
 130 175 130 175 104 267.5 c 128,-1,9
 78 360 78 360 78 477 c 0,10,11
 78 605 78 605 111.5 697.5 c 128,-1,12
 145 790 145 790 205 849.5 c 128,-1,13
 265 909 265 909 347.5 937 c 128,-1,14
 430 965 430 965 528 965 c 0,15,16
 609 965 609 965 685 955.5 c 128,-1,17
 761 946 761 946 823 934 c 1,18,-1
 823 672 l 1,19,-1
 768 672 l 1,20,-1
 725 838 l 1,21,22
 688 859 688 859 635.5 872 c 128,-1,23
 583 885 583 885 526 885 c 0,24,25
 461 885 461 885 411.5 861.5 c 128,-1,26
 362 838 362 838 327.5 788 c 128,-1,27
 293 738 293 738 275.5 661 c 128,-1,28
 258 584 258 584 258 477 c 0,29,30
 258 387 258 387 273 314.5 c 128,-1,31
 288 242 288 242 326 191 c 128,-1,32
 364 140 364 140 428.5 112 c 128,-1,33
 493 84 493 84 592 84 c 0,34,35
 626 84 626 84 661.5 86.5 c 128,-1,36
 697 89 697 89 730.5 93.5 c 128,-1,37
 764 98 764 98 793.5 104 c 128,-1,38
 823 110 823 110 846 117 c 1,39,-1
 846 57 l 1,0,1
EndSplineSet
EndChar

StartChar: d
Encoding: 100 100 71
Width: 1024
Flags: W
LayerCount: 2
Fore
SplineSet
723 70 m 1,0,1
 679 35 679 35 613.5 7.5 c 128,-1,2
 548 -20 548 -20 459 -20 c 0,3,4
 74 -20 74 -20 74 461 c 0,5,6
 74 578 74 578 99.5 671.5 c 128,-1,7
 125 765 125 765 178 830.5 c 128,-1,8
 231 896 231 896 312 930.5 c 128,-1,9
 393 965 393 965 504 965 c 0,10,11
 555 965 555 965 612.5 959 c 128,-1,12
 670 953 670 953 723 942 c 1,13,14
 721 953 721 953 720 974.5 c 128,-1,15
 719 996 719 996 718.5 1020.5 c 128,-1,16
 718 1045 718 1045 717.5 1069 c 128,-1,17
 717 1093 717 1093 717 1108 c 2,18,-1
 717 1352 l 1,19,-1
 559 1376 l 1,20,-1
 559 1421 l 1,21,-1
 883 1421 l 1,22,-1
 883 70 l 1,23,-1
 999 45 l 1,24,-1
 999 0 l 1,25,-1
 735 0 l 1,26,-1
 723 70 l 1,0,1
254 461 m 0,27,28
 254 356 254 356 272.5 284 c 128,-1,29
 291 212 291 212 325 167.5 c 128,-1,30
 359 123 359 123 407 103.5 c 128,-1,31
 455 84 455 84 514 84 c 0,32,33
 574 84 574 84 627 95.5 c 128,-1,34
 680 107 680 107 717 123 c 1,35,-1
 717 866 l 1,36,37
 675 874 675 874 620 878.5 c 128,-1,38
 565 883 565 883 514 883 c 0,39,40
 381 883 381 883 317.5 776 c 128,-1,41
 254 669 254 669 254 461 c 0,27,28
EndSplineSet
EndChar

StartChar: e
Encoding: 101 101 72
Width: 909
Flags: W
LayerCount: 2
Fore
SplineSet
260 473 m 1,0,-1
 260 455 l 2,1,2
 260 382 260 382 270.5 315 c 128,-1,3
 281 248 281 248 312.5 196.5 c 128,-1,4
 344 145 344 145 401 114.5 c 128,-1,5
 458 84 458 84 551 84 c 0,6,7
 581 84 581 84 614 86.5 c 128,-1,8
 647 89 647 89 680 93 c 128,-1,9
 713 97 713 97 744 102 c 128,-1,10
 775 107 775 107 801 113 c 1,11,-1
 801 57 l 1,12,13
 778 42 778 42 745.5 28.5 c 128,-1,14
 713 15 713 15 674 4 c 128,-1,15
 635 -7 635 -7 591 -13.5 c 128,-1,16
 547 -20 547 -20 502 -20 c 0,17,18
 385 -20 385 -20 304.5 12 c 128,-1,19
 224 44 224 44 174 107 c 128,-1,20
 124 170 124 170 102 263 c 128,-1,21
 80 356 80 356 80 477 c 0,22,23
 80 723 80 723 183 844 c 128,-1,24
 286 965 286 965 477 965 c 0,25,26
 552 965 552 965 617.5 945 c 128,-1,27
 683 925 683 925 732 878 c 128,-1,28
 781 831 781 831 809.5 752 c 128,-1,29
 838 673 838 673 838 555 c 2,30,-1
 838 473 l 1,31,-1
 260 473 l 1,0,-1
477 885 m 0,32,33
 421 885 421 885 380.5 861.5 c 128,-1,34
 340 838 340 838 313.5 795 c 128,-1,35
 287 752 287 752 274.5 690.5 c 128,-1,36
 262 629 262 629 262 553 c 1,37,-1
 664 553 l 1,38,39
 664 629 664 629 655.5 690.5 c 128,-1,40
 647 752 647 752 625.5 795 c 128,-1,41
 604 838 604 838 568 861.5 c 128,-1,42
 532 885 532 885 477 885 c 0,32,33
EndSplineSet
EndChar

StartChar: f
Encoding: 102 102 73
Width: 682
Flags: W
LayerCount: 2
Fore
SplineSet
225 856 m 1,0,-1
 63 856 l 1,1,-1
 63 905 l 1,2,-1
 225 944 l 1,3,-1
 225 1010 l 2,4,5
 225 1116 225 1116 246.5 1196.5 c 128,-1,6
 268 1277 268 1277 308.5 1331.5 c 128,-1,7
 349 1386 349 1386 407.5 1414 c 128,-1,8
 466 1442 466 1442 539 1442 c 0,9,10
 584 1442 584 1442 619 1436.5 c 128,-1,11
 654 1431 654 1431 682 1423 c 1,12,-1
 682 1218 l 1,13,-1
 633 1218 l 1,14,-1
 588 1341 l 1,15,16
 572 1351 572 1351 553 1356.5 c 128,-1,17
 534 1362 534 1362 506 1362 c 0,18,19
 471 1362 471 1362 449 1346.5 c 128,-1,20
 427 1331 427 1331 414 1298.5 c 128,-1,21
 401 1266 401 1266 396 1216 c 128,-1,22
 391 1166 391 1166 391 1096 c 2,23,-1
 391 940 l 1,24,-1
 641 940 l 1,25,-1
 641 856 l 1,26,-1
 391 856 l 1,27,-1
 391 78 l 1,28,-1
 594 45 l 1,29,-1
 594 0 l 1,30,-1
 86 0 l 1,31,-1
 86 45 l 1,32,-1
 225 78 l 1,33,-1
 225 856 l 1,0,-1
EndSplineSet
EndChar

StartChar: g
Encoding: 103 103 74
Width: 1024
Flags: W
LayerCount: 2
Fore
SplineSet
870 643 m 0,0,1
 870 481 870 481 773 398 c 128,-1,2
 676 315 676 315 494 315 c 0,3,4
 453 315 453 315 411.5 319.5 c 128,-1,5
 370 324 370 324 342 330 c 1,6,-1
 279 199 l 1,7,8
 282 182 282 182 318 167 c 128,-1,9
 354 152 354 152 408 152 c 2,10,-1
 686 152 l 2,11,12
 838 152 838 152 911.5 86 c 128,-1,13
 985 20 985 20 985 -96 c 0,14,15
 985 -161 985 -161 958.5 -223.5 c 128,-1,16
 932 -286 932 -286 872.5 -334.5 c 128,-1,17
 813 -383 813 -383 717 -412.5 c 128,-1,18
 621 -442 621 -442 481 -442 c 0,19,20
 374 -442 374 -442 299 -424.5 c 128,-1,21
 224 -407 224 -407 177 -376 c 128,-1,22
 130 -345 130 -345 109 -304 c 128,-1,23
 88 -263 88 -263 88 -215 c 0,24,25
 88 -182 88 -182 100.5 -152.5 c 128,-1,26
 113 -123 113 -123 135.5 -95.5 c 128,-1,27
 158 -68 158 -68 189 -42 c 128,-1,28
 220 -16 220 -16 256 10 c 1,29,30
 238 16 238 16 214.5 29.5 c 128,-1,31
 191 43 191 43 170 64 c 128,-1,32
 149 85 149 85 135 112.5 c 128,-1,33
 121 140 121 140 121 174 c 1,34,-1
 279 352 l 1,35,36
 121 426 121 426 121 643 c 0,37,38
 121 722 121 722 147 782.5 c 128,-1,39
 173 843 173 843 221.5 883.5 c 128,-1,40
 270 924 270 924 341 944.5 c 128,-1,41
 412 965 412 965 502 965 c 0,42,43
 530 965 530 965 559 962 c 128,-1,44
 588 959 588 959 613.5 955.5 c 128,-1,45
 639 952 639 952 658 947.5 c 128,-1,46
 677 943 677 943 686 940 c 1,47,-1
 907 1051 l 1,48,-1
 942 1008 l 1,49,-1
 803 864 l 1,50,51
 837 826 837 826 853.5 768.5 c 128,-1,52
 870 711 870 711 870 643 c 0,0,1
829 -127 m 0,53,54
 829 -70 829 -70 794 -38 c 128,-1,55
 759 -6 759 -6 688 -6 c 2,56,-1
 324 -6 l 1,57,58
 303 -24 303 -24 285.5 -47.5 c 128,-1,59
 268 -71 268 -71 255.5 -97 c 128,-1,60
 243 -123 243 -123 236 -149.5 c 128,-1,61
 229 -176 229 -176 229 -201 c 0,62,63
 229 -237 229 -237 240.5 -266.5 c 128,-1,64
 252 -296 252 -296 280.5 -317 c 128,-1,65
 309 -338 309 -338 358 -350 c 128,-1,66
 407 -362 407 -362 481 -362 c 0,67,68
 571 -362 571 -362 636.5 -344.5 c 128,-1,69
 702 -327 702 -327 745 -295.5 c 128,-1,70
 788 -264 788 -264 808.5 -221 c 128,-1,71
 829 -178 829 -178 829 -127 c 0,53,54
496 391 m 0,72,73
 605 391 605 391 650.5 453.5 c 128,-1,74
 696 516 696 516 696 643 c 0,75,76
 696 706 696 706 685.5 752.5 c 128,-1,77
 675 799 675 799 651.5 829 c 128,-1,78
 628 859 628 859 590 874 c 128,-1,79
 552 889 552 889 498 889 c 0,80,81
 443 889 443 889 404.5 874 c 128,-1,82
 366 859 366 859 341.5 829 c 128,-1,83
 317 799 317 799 306 752.5 c 128,-1,84
 295 706 295 706 295 643 c 256,85,86
 295 580 295 580 306 532.5 c 128,-1,87
 317 485 317 485 341 453.5 c 128,-1,88
 365 422 365 422 403 406.5 c 128,-1,89
 441 391 441 391 496 391 c 0,72,73
EndSplineSet
EndChar

StartChar: h
Encoding: 104 104 75
Width: 1024
Flags: W
LayerCount: 2
Fore
SplineSet
326 1014 m 2,0,1
 326 1000 326 1000 325.5 980 c 128,-1,2
 325 960 325 960 324.5 938.5 c 128,-1,3
 324 917 324 917 322.5 897 c 128,-1,4
 321 877 321 877 319 864 c 1,5,6
 347 880 347 880 387 898 c 128,-1,7
 427 916 427 916 470.5 931 c 128,-1,8
 514 946 514 946 557.5 955.5 c 128,-1,9
 601 965 601 965 637 965 c 0,10,11
 691 965 691 965 736 950 c 128,-1,12
 781 935 781 935 813.5 902 c 128,-1,13
 846 869 846 869 864.5 816 c 128,-1,14
 883 763 883 763 883 688 c 2,15,-1
 883 70 l 1,16,-1
 997 45 l 1,17,-1
 997 0 l 1,18,-1
 592 0 l 1,19,-1
 592 45 l 1,20,-1
 717 70 l 1,21,-1
 717 676 l 2,22,23
 717 759 717 759 676.5 803.5 c 128,-1,24
 636 848 636 848 551 848 c 0,25,26
 523 848 523 848 491.5 845 c 128,-1,27
 460 842 460 842 429 838 c 128,-1,28
 398 834 398 834 371 828.5 c 128,-1,29
 344 823 344 823 326 819 c 1,30,-1
 326 70 l 1,31,-1
 453 45 l 1,32,-1
 453 0 l 1,33,-1
 41 0 l 1,34,-1
 41 45 l 1,35,-1
 160 70 l 1,36,-1
 160 1352 l 1,37,-1
 20 1376 l 1,38,-1
 20 1421 l 1,39,-1
 326 1421 l 1,40,-1
 326 1014 l 2,0,1
EndSplineSet
EndChar

StartChar: i
Encoding: 105 105 76
Width: 569
Flags: W
LayerCount: 2
Fore
SplineSet
379 1247 m 256,0,1
 379 1225 379 1225 370.5 1205.5 c 128,-1,2
 362 1186 362 1186 347 1171 c 128,-1,3
 332 1156 332 1156 312 1147.5 c 128,-1,4
 292 1139 292 1139 270 1139 c 256,5,6
 248 1139 248 1139 228.5 1147.5 c 128,-1,7
 209 1156 209 1156 194 1171 c 128,-1,8
 179 1186 179 1186 170.5 1205.5 c 128,-1,9
 162 1225 162 1225 162 1247 c 256,10,11
 162 1269 162 1269 170.5 1289 c 128,-1,12
 179 1309 179 1309 194 1324 c 128,-1,13
 209 1339 209 1339 228.5 1347.5 c 128,-1,14
 248 1356 248 1356 270 1356 c 256,15,16
 292 1356 292 1356 312 1347.5 c 128,-1,17
 332 1339 332 1339 347 1324 c 128,-1,18
 362 1309 362 1309 370.5 1289 c 128,-1,19
 379 1269 379 1269 379 1247 c 256,0,1
369 70 m 1,20,-1
 530 45 l 1,21,-1
 530 0 l 1,22,-1
 43 0 l 1,23,-1
 43 45 l 1,24,-1
 203 70 l 1,25,-1
 203 870 l 1,26,-1
 70 895 l 1,27,-1
 70 940 l 1,28,-1
 369 940 l 1,29,-1
 369 70 l 1,20,-1
EndSplineSet
EndChar

StartChar: j
Encoding: 106 106 77
Width: 569
Flags: W
LayerCount: 2
Fore
SplineSet
393 1247 m 256,0,1
 393 1225 393 1225 384.5 1205.5 c 128,-1,2
 376 1186 376 1186 361 1171 c 128,-1,3
 346 1156 346 1156 326.5 1147.5 c 128,-1,4
 307 1139 307 1139 285 1139 c 0,5,6
 262 1139 262 1139 242.5 1147.5 c 128,-1,7
 223 1156 223 1156 208 1171 c 128,-1,8
 193 1186 193 1186 184.5 1205.5 c 128,-1,9
 176 1225 176 1225 176 1247 c 256,10,11
 176 1269 176 1269 184.5 1289 c 128,-1,12
 193 1309 193 1309 208 1324 c 128,-1,13
 223 1339 223 1339 242.5 1347.5 c 128,-1,14
 262 1356 262 1356 285 1356 c 0,15,16
 307 1356 307 1356 326.5 1347.5 c 128,-1,17
 346 1339 346 1339 361 1324 c 128,-1,18
 376 1309 376 1309 384.5 1289 c 128,-1,19
 393 1269 393 1269 393 1247 c 256,0,1
383 -39 m 2,20,21
 383 -145 383 -145 361.5 -220.5 c 128,-1,22
 340 -296 340 -296 300.5 -344 c 128,-1,23
 261 -392 261 -392 206.5 -414 c 128,-1,24
 152 -436 152 -436 86 -436 c 0,25,26
 42 -436 42 -436 10 -431 c 128,-1,27
 -22 -426 -22 -426 -59 -418 c 1,28,-1
 -59 -219 l 1,29,-1
 -12 -219 l 1,30,-1
 15 -328 l 1,31,32
 48 -356 48 -356 98 -356 c 0,33,34
 157 -356 157 -356 187 -293 c 128,-1,35
 217 -230 217 -230 217 -90 c 2,36,-1
 217 870 l 1,37,-1
 76 895 l 1,38,-1
 76 940 l 1,39,-1
 383 940 l 1,40,-1
 383 -39 l 2,20,21
EndSplineSet
EndChar

StartChar: k
Encoding: 107 107 78
Width: 1024
Flags: W
LayerCount: 2
Fore
SplineSet
344 453 m 1,0,-1
 729 868 l 1,1,-1
 631 895 l 1,2,-1
 631 940 l 1,3,-1
 963 940 l 1,4,-1
 963 895 l 1,5,-1
 846 872 l 1,6,-1
 578 598 l 1,7,-1
 922 68 l 1,8,-1
 1024 45 l 1,9,-1
 1024 0 l 1,10,-1
 639 0 l 1,11,-1
 639 45 l 1,12,-1
 725 70 l 1,13,-1
 467 475 l 1,14,-1
 344 340 l 1,15,-1
 344 70 l 1,16,-1
 444 45 l 1,17,-1
 444 0 l 1,18,-1
 59 0 l 1,19,-1
 59 45 l 1,20,-1
 178 70 l 1,21,-1
 178 1352 l 1,22,-1
 39 1376 l 1,23,-1
 39 1421 l 1,24,-1
 344 1421 l 1,25,-1
 344 453 l 1,0,-1
EndSplineSet
EndChar

StartChar: l
Encoding: 108 108 79
Width: 569
Flags: W
LayerCount: 2
Fore
SplineSet
367 70 m 1,0,-1
 528 45 l 1,1,-1
 528 0 l 1,2,-1
 41 0 l 1,3,-1
 41 45 l 1,4,-1
 201 70 l 1,5,-1
 201 1352 l 1,6,-1
 41 1376 l 1,7,-1
 41 1421 l 1,8,-1
 367 1421 l 1,9,-1
 367 70 l 1,0,-1
EndSplineSet
EndChar

StartChar: m
Encoding: 109 109 80
Width: 1593
Flags: W
LayerCount: 2
Fore
SplineSet
326 864 m 1,0,1
 354 880 354 880 392.5 898 c 128,-1,2
 431 916 431 916 472 931 c 128,-1,3
 513 946 513 946 555 955.5 c 128,-1,4
 597 965 597 965 633 965 c 0,5,6
 702 965 702 965 760.5 939 c 128,-1,7
 819 913 819 913 848 856 c 1,8,9
 880 874 880 874 925 893.5 c 128,-1,10
 970 913 970 913 1018.5 929 c 128,-1,11
 1067 945 1067 945 1114.5 955 c 128,-1,12
 1162 965 1162 965 1200 965 c 0,13,14
 1254 965 1254 965 1298 950 c 128,-1,15
 1342 935 1342 935 1373.5 902 c 128,-1,16
 1405 869 1405 869 1422.5 816 c 128,-1,17
 1440 763 1440 763 1440 688 c 2,18,-1
 1440 70 l 1,19,-1
 1561 45 l 1,20,-1
 1561 0 l 1,21,-1
 1134 0 l 1,22,-1
 1134 45 l 1,23,-1
 1274 70 l 1,24,-1
 1274 670 l 2,25,26
 1274 753 1274 753 1236.5 797.5 c 128,-1,27
 1199 842 1199 842 1114 842 c 0,28,29
 1088 842 1088 842 1053.5 838 c 128,-1,30
 1019 834 1019 834 984.5 829 c 128,-1,31
 950 824 950 824 918.5 817.5 c 128,-1,32
 887 811 887 811 866 807 c 1,33,34
 883 753 883 753 883 688 c 2,35,-1
 883 70 l 1,36,-1
 1024 45 l 1,37,-1
 1024 0 l 1,38,-1
 578 0 l 1,39,-1
 578 45 l 1,40,-1
 717 70 l 1,41,-1
 717 670 l 2,42,43
 717 753 717 753 674.5 797.5 c 128,-1,44
 632 842 632 842 547 842 c 0,45,46
 519 842 519 842 488.5 839 c 128,-1,47
 458 836 458 836 428.5 832 c 128,-1,48
 399 828 399 828 372.5 822.5 c 128,-1,49
 346 817 346 817 328 813 c 1,50,-1
 328 70 l 1,51,-1
 469 45 l 1,52,-1
 469 0 l 1,53,-1
 43 0 l 1,54,-1
 43 45 l 1,55,-1
 162 70 l 1,56,-1
 162 870 l 1,57,-1
 43 895 l 1,58,-1
 43 940 l 1,59,-1
 318 940 l 1,60,-1
 326 864 l 1,0,1
EndSplineSet
EndChar

StartChar: n
Encoding: 110 110 81
Width: 1024
Flags: W
LayerCount: 2
Fore
SplineSet
324 864 m 1,0,1
 352 880 352 880 390.5 898 c 128,-1,2
 429 916 429 916 471 931 c 128,-1,3
 513 946 513 946 555 955.5 c 128,-1,4
 597 965 597 965 633 965 c 0,5,6
 687 965 687 965 732 950 c 128,-1,7
 777 935 777 935 809.5 902 c 128,-1,8
 842 869 842 869 860.5 816 c 128,-1,9
 879 763 879 763 879 688 c 2,10,-1
 879 70 l 1,11,-1
 993 45 l 1,12,-1
 993 0 l 1,13,-1
 588 0 l 1,14,-1
 588 45 l 1,15,-1
 713 70 l 1,16,-1
 713 670 l 2,17,18
 713 753 713 753 672.5 800.5 c 128,-1,19
 632 848 632 848 547 848 c 0,20,21
 519 848 519 848 488 845 c 128,-1,22
 457 842 457 842 427 838 c 128,-1,23
 397 834 397 834 370.5 828.5 c 128,-1,24
 344 823 344 823 326 819 c 1,25,-1
 326 70 l 1,26,-1
 453 45 l 1,27,-1
 453 0 l 1,28,-1
 47 0 l 1,29,-1
 47 45 l 1,30,-1
 160 70 l 1,31,-1
 160 870 l 1,32,-1
 47 895 l 1,33,-1
 47 940 l 1,34,-1
 315 940 l 1,35,-1
 324 864 l 1,0,1
EndSplineSet
EndChar

StartChar: o
Encoding: 111 111 82
Width: 1024
Flags: W
LayerCount: 2
Fore
SplineSet
946 475 m 0,0,1
 946 236 946 236 839 108 c 128,-1,2
 732 -20 732 -20 506 -20 c 0,3,4
 294 -20 294 -20 186 107 c 128,-1,5
 78 234 78 234 78 475 c 0,6,7
 78 713 78 713 186 839 c 128,-1,8
 294 965 294 965 514 965 c 0,9,10
 728 965 728 965 837 841.5 c 128,-1,11
 946 718 946 718 946 475 c 0,0,1
766 475 m 0,12,13
 766 572 766 572 753 648.5 c 128,-1,14
 740 725 740 725 709.5 777.5 c 128,-1,15
 679 830 679 830 629 857.5 c 128,-1,16
 579 885 579 885 506 885 c 0,17,18
 432 885 432 885 384 857.5 c 128,-1,19
 336 830 336 830 308 777.5 c 128,-1,20
 280 725 280 725 269 648.5 c 128,-1,21
 258 572 258 572 258 475 c 0,22,23
 258 377 258 377 269 300 c 128,-1,24
 280 223 280 223 308 169.5 c 128,-1,25
 336 116 336 116 384 87.5 c 128,-1,26
 432 59 432 59 506 59 c 0,27,28
 579 59 579 59 629 87.5 c 128,-1,29
 679 116 679 116 709.5 169.5 c 128,-1,30
 740 223 740 223 753 300 c 128,-1,31
 766 377 766 377 766 475 c 0,12,13
EndSplineSet
EndChar

StartChar: p
Encoding: 112 112 83
Width: 1024
Flags: W
LayerCount: 2
Fore
SplineSet
152 870 m 1,0,-1
 45 895 l 1,1,-1
 45 940 l 1,2,-1
 309 940 l 1,3,-1
 311 885 l 1,4,5
 332 903 332 903 360.5 917.5 c 128,-1,6
 389 932 389 932 422 942.5 c 128,-1,7
 455 953 455 953 492 959 c 128,-1,8
 529 965 529 965 567 965 c 0,9,10
 655 965 655 965 725 934 c 128,-1,11
 795 903 795 903 844 841.5 c 128,-1,12
 893 780 893 780 918.5 689.5 c 128,-1,13
 944 599 944 599 944 481 c 0,14,15
 944 366 944 366 918 273.5 c 128,-1,16
 892 181 892 181 840 115.5 c 128,-1,17
 788 50 788 50 709.5 15 c 128,-1,18
 631 -20 631 -20 526 -20 c 0,19,20
 475 -20 475 -20 418.5 -14.5 c 128,-1,21
 362 -9 362 -9 311 2 c 1,22,23
 312 -10 312 -10 313.5 -25.5 c 128,-1,24
 315 -41 315 -41 315.5 -57.5 c 128,-1,25
 316 -74 316 -74 316.5 -88 c 128,-1,26
 317 -102 317 -102 317 -111 c 2,27,-1
 317 -365 l 1,28,-1
 481 -389 l 1,29,-1
 481 -436 l 1,30,-1
 33 -436 l 1,31,-1
 33 -389 l 1,32,-1
 152 -365 l 1,33,-1
 152 870 l 1,0,-1
764 481 m 0,34,35
 764 583 764 583 747 655 c 128,-1,36
 730 727 730 727 697.5 772.5 c 128,-1,37
 665 818 665 818 618 839 c 128,-1,38
 571 860 571 860 512 860 c 0,39,40
 464 860 464 860 409.5 851.5 c 128,-1,41
 355 843 355 843 317 827 c 1,42,-1
 317 76 l 1,43,44
 359 68 359 68 410 63.5 c 128,-1,45
 461 59 461 59 512 59 c 0,46,47
 644 59 644 59 704 168.5 c 128,-1,48
 764 278 764 278 764 481 c 0,34,35
EndSplineSet
EndChar

StartChar: q
Encoding: 113 113 84
Width: 1024
Flags: W
LayerCount: 2
Fore
SplineSet
813 985 m 1,0,-1
 883 985 l 1,1,-1
 883 -365 l 1,2,-1
 987 -389 l 1,3,-1
 987 -436 l 1,4,-1
 588 -436 l 1,5,-1
 588 -389 l 1,6,-1
 717 -365 l 1,7,-1
 717 -104 l 2,8,9
 717 -66 717 -66 719 -22.5 c 128,-1,10
 721 21 721 21 727 63 c 1,11,12
 682 28 682 28 615.5 4 c 128,-1,13
 549 -20 549 -20 459 -20 c 0,14,15
 262 -20 262 -20 168 105.5 c 128,-1,16
 74 231 74 231 74 467 c 0,17,18
 74 582 74 582 100 674.5 c 128,-1,19
 126 767 126 767 178.5 831.5 c 128,-1,20
 231 896 231 896 311.5 930.5 c 128,-1,21
 392 965 392 965 500 965 c 0,22,23
 551 965 551 965 610.5 959 c 128,-1,24
 670 953 670 953 723 942 c 1,25,-1
 813 985 l 1,0,-1
254 467 m 0,26,27
 254 365 254 365 271.5 292.5 c 128,-1,28
 289 220 289 220 322 173.5 c 128,-1,29
 355 127 355 127 403.5 105.5 c 128,-1,30
 452 84 452 84 514 84 c 0,31,32
 538 84 538 84 566 86 c 128,-1,33
 594 88 594 88 621.5 92.5 c 128,-1,34
 649 97 649 97 674 103 c 128,-1,35
 699 109 699 109 717 117 c 1,36,-1
 717 866 l 1,37,38
 675 874 675 874 620 878.5 c 128,-1,39
 565 883 565 883 514 883 c 0,40,41
 382 883 382 883 318 776 c 128,-1,42
 254 669 254 669 254 467 c 0,26,27
EndSplineSet
EndChar

StartChar: r
Encoding: 114 114 85
Width: 682
Flags: W
LayerCount: 2
Fore
SplineSet
664 965 m 1,0,-1
 664 711 l 1,1,-1
 621 711 l 1,2,-1
 563 821 l 1,3,4
 535 821 535 821 503 817 c 128,-1,5
 471 813 471 813 439 806.5 c 128,-1,6
 407 800 407 800 377.5 791 c 128,-1,7
 348 782 348 782 326 772 c 1,8,-1
 326 70 l 1,9,-1
 487 45 l 1,10,-1
 487 0 l 1,11,-1
 41 0 l 1,12,-1
 41 45 l 1,13,-1
 160 70 l 1,14,-1
 160 870 l 1,15,-1
 41 895 l 1,16,-1
 41 940 l 1,17,-1
 315 940 l 1,18,-1
 324 823 l 1,19,20
 347 842 347 842 387 866.5 c 128,-1,21
 427 891 427 891 473.5 913 c 128,-1,22
 520 935 520 935 566.5 950 c 128,-1,23
 613 965 613 965 649 965 c 2,24,-1
 664 965 l 1,0,-1
EndSplineSet
EndChar

StartChar: s
Encoding: 115 115 86
Width: 797
Flags: W
LayerCount: 2
Fore
SplineSet
723 264 m 0,0,1
 723 201 723 201 703.5 148.5 c 128,-1,2
 684 96 684 96 642 58.5 c 128,-1,3
 600 21 600 21 533.5 0.5 c 128,-1,4
 467 -20 467 -20 373 -20 c 0,5,6
 326 -20 326 -20 280.5 -14.5 c 128,-1,7
 235 -9 235 -9 196 -1.5 c 128,-1,8
 157 6 157 6 128 14 c 128,-1,9
 99 22 99 22 86 27 c 1,10,-1
 86 258 l 1,11,-1
 131 258 l 1,12,-1
 180 127 l 1,13,14
 211 99 211 99 260 79 c 128,-1,15
 309 59 309 59 375 59 c 0,16,17
 468 59 468 59 518.5 99.5 c 128,-1,18
 569 140 569 140 569 225 c 0,19,20
 569 275 569 275 548 307.5 c 128,-1,21
 527 340 527 340 493 362 c 128,-1,22
 459 384 459 384 415.5 398.5 c 128,-1,23
 372 413 372 413 326.5 428 c 128,-1,24
 281 443 281 443 237.5 462 c 128,-1,25
 194 481 194 481 160 511 c 128,-1,26
 126 541 126 541 105 586 c 128,-1,27
 84 631 84 631 84 698 c 0,28,29
 84 762 84 762 107 812 c 128,-1,30
 130 862 130 862 171.5 896 c 128,-1,31
 213 930 213 930 270.5 947.5 c 128,-1,32
 328 965 328 965 397 965 c 0,33,34
 465 965 465 965 530 955.5 c 128,-1,35
 595 946 595 946 655 934 c 1,36,-1
 655 729 l 1,37,-1
 608 729 l 1,38,-1
 566 838 l 1,39,40
 540 861 540 861 495 873 c 128,-1,41
 450 885 450 885 399 885 c 0,42,43
 318 885 318 885 275.5 845 c 128,-1,44
 233 805 233 805 233 737 c 0,45,46
 233 691 233 691 254 661.5 c 128,-1,47
 275 632 275 632 309.5 611.5 c 128,-1,48
 344 591 344 591 388 576 c 128,-1,49
 432 561 432 561 478 545 c 128,-1,50
 524 529 524 529 568 508.5 c 128,-1,51
 612 488 612 488 646.5 456 c 128,-1,52
 681 424 681 424 702 378 c 128,-1,53
 723 332 723 332 723 264 c 0,0,1
EndSplineSet
EndChar

StartChar: t
Encoding: 116 116 87
Width: 569
Flags: W
LayerCount: 2
Fore
SplineSet
334 -20 m 0,0,1
 238 -20 238 -20 190.5 37 c 128,-1,2
 143 94 143 94 143 197 c 2,3,-1
 143 856 l 1,4,-1
 20 856 l 1,5,-1
 20 901 l 1,6,-1
 145 940 l 1,7,-1
 246 1153 l 1,8,-1
 309 1153 l 1,9,-1
 309 940 l 1,10,-1
 524 940 l 1,11,-1
 524 856 l 1,12,-1
 309 856 l 1,13,-1
 309 215 l 2,14,15
 309 150 309 150 338.5 117 c 128,-1,16
 368 84 368 84 416 84 c 0,17,18
 453 84 453 84 489.5 89 c 128,-1,19
 526 94 526 94 557 100 c 1,20,-1
 557 35 l 1,21,22
 542 25 542 25 517.5 15 c 128,-1,23
 493 5 493 5 463.5 -2.5 c 128,-1,24
 434 -10 434 -10 401 -15 c 128,-1,25
 368 -20 368 -20 334 -20 c 0,0,1
EndSplineSet
EndChar

StartChar: u
Encoding: 117 117 88
Width: 1024
Flags: W
LayerCount: 2
Fore
SplineSet
313 268 m 2,0,1
 313 185 313 185 350.5 140.5 c 128,-1,2
 388 96 388 96 473 96 c 0,3,4
 529 96 529 96 589 103.5 c 128,-1,5
 649 111 649 111 705 127 c 1,6,-1
 705 870 l 1,7,-1
 563 895 l 1,8,-1
 563 940 l 1,9,-1
 870 940 l 1,10,-1
 870 70 l 1,11,-1
 989 45 l 1,12,-1
 989 0 l 1,13,-1
 715 0 l 1,14,-1
 707 76 l 1,15,16
 678 60 678 60 638 43 c 128,-1,17
 598 26 598 26 554.5 12 c 128,-1,18
 511 -2 511 -2 467 -11 c 128,-1,19
 423 -20 423 -20 387 -20 c 0,20,21
 333 -20 333 -20 289 -5 c 128,-1,22
 245 10 245 10 213.5 43 c 128,-1,23
 182 76 182 76 164.5 128.5 c 128,-1,24
 147 181 147 181 147 256 c 2,25,-1
 147 870 l 1,26,-1
 27 895 l 1,27,-1
 27 940 l 1,28,-1
 313 940 l 1,29,-1
 313 268 l 2,0,1
EndSplineSet
EndChar

StartChar: v
Encoding: 118 118 89
Width: 1024
Flags: W
LayerCount: 2
Fore
SplineSet
934 874 m 1,0,-1
 557 -20 l 1,1,-1
 483 -20 l 1,2,-1
 96 870 l 1,3,-1
 0 895 l 1,4,-1
 0 940 l 1,5,-1
 438 940 l 1,6,-1
 438 895 l 1,7,-1
 289 868 l 1,8,-1
 563 219 l 1,9,-1
 825 870 l 1,10,-1
 676 895 l 1,11,-1
 676 940 l 1,12,-1
 1024 940 l 1,13,-1
 1024 895 l 1,14,-1
 934 874 l 1,0,-1
EndSplineSet
EndChar

StartChar: w
Encoding: 119 119 90
Width: 1479
Flags: W
LayerCount: 2
Fore
SplineSet
1366 874 m 1,0,-1
 1051 -20 l 1,1,-1
 973 -20 l 1,2,-1
 741 600 l 1,3,-1
 512 -20 l 1,4,-1
 438 -20 l 1,5,-1
 113 870 l 1,6,-1
 2 895 l 1,7,-1
 2 940 l 1,8,-1
 449 940 l 1,9,-1
 449 895 l 1,10,-1
 293 868 l 1,11,-1
 516 233 l 1,12,-1
 743 846 l 1,13,-1
 827 846 l 1,14,-1
 1053 229 l 1,15,-1
 1266 870 l 1,16,-1
 1112 895 l 1,17,-1
 1112 940 l 1,18,-1
 1470 940 l 1,19,-1
 1470 895 l 1,20,-1
 1366 874 l 1,0,-1
EndSplineSet
EndChar

StartChar: x
Encoding: 120 120 91
Width: 1024
Flags: W
LayerCount: 2
Fore
SplineSet
889 66 m 1,0,-1
 999 45 l 1,1,-1
 999 0 l 1,2,-1
 573 0 l 1,3,-1
 573 45 l 1,4,-1
 698 68 l 1,5,-1
 481 401 l 1,6,-1
 227 66 l 1,7,-1
 356 45 l 1,8,-1
 356 0 l 1,9,-1
 18 0 l 1,10,-1
 18 45 l 1,11,-1
 127 61 l 1,12,-1
 436 469 l 1,13,-1
 164 870 l 1,14,-1
 53 895 l 1,15,-1
 53 940 l 1,16,-1
 479 940 l 1,17,-1
 479 895 l 1,18,-1
 354 868 l 1,19,-1
 535 598 l 1,20,-1
 743 870 l 1,21,-1
 614 895 l 1,22,-1
 614 940 l 1,23,-1
 952 940 l 1,24,-1
 952 895 l 1,25,-1
 844 874 l 1,26,-1
 580 532 l 1,27,-1
 889 66 l 1,0,-1
EndSplineSet
EndChar

StartChar: y
Encoding: 121 121 92
Width: 1024
Flags: W
LayerCount: 2
Fore
SplineSet
918 874 m 1,0,-1
 551 -59 l 2,1,2
 519 -140 519 -140 486 -210 c 128,-1,3
 453 -280 453 -280 412.5 -331.5 c 128,-1,4
 372 -383 372 -383 320 -412.5 c 128,-1,5
 268 -442 268 -442 199 -442 c 0,6,7
 173 -442 173 -442 153.5 -441 c 128,-1,8
 134 -440 134 -440 117 -437.5 c 128,-1,9
 100 -435 100 -435 83 -432 c 128,-1,10
 66 -429 66 -429 45 -424 c 1,11,-1
 45 -221 l 1,12,-1
 92 -221 l 1,13,-1
 125 -317 l 1,14,15
 156 -340 156 -340 211 -340 c 0,16,17
 254 -340 254 -340 289 -321 c 128,-1,18
 324 -302 324 -302 353.5 -267.5 c 128,-1,19
 383 -233 383 -233 407 -186 c 128,-1,20
 431 -139 431 -139 453 -82 c 1,21,-1
 479 -10 l 1,22,-1
 121 870 l 1,23,-1
 25 895 l 1,24,-1
 25 940 l 1,25,-1
 461 940 l 1,26,-1
 461 895 l 1,27,-1
 313 868 l 1,28,-1
 567 211 l 1,29,-1
 813 870 l 1,30,-1
 666 895 l 1,31,-1
 666 940 l 1,32,-1
 1016 940 l 1,33,-1
 1016 895 l 1,34,-1
 918 874 l 1,0,-1
EndSplineSet
EndChar

StartChar: z
Encoding: 122 122 93
Width: 909
Flags: W
LayerCount: 2
Fore
SplineSet
55 0 m 1,0,-1
 55 45 l 1,1,-1
 571 860 l 1,2,-1
 350 860 l 2,3,4
 322 860 322 860 294.5 857.5 c 128,-1,5
 267 855 267 855 242.5 850.5 c 128,-1,6
 218 846 218 846 199 839.5 c 128,-1,7
 180 833 180 833 170 825 c 1,8,-1
 139 690 l 1,9,-1
 92 690 l 1,10,-1
 92 940 l 1,11,-1
 786 940 l 1,12,-1
 786 891 l 1,13,-1
 270 80 l 1,14,-1
 545 80 l 2,15,16
 572 80 572 80 602.5 83.5 c 128,-1,17
 633 87 633 87 661.5 93 c 128,-1,18
 690 99 690 99 714.5 107.5 c 128,-1,19
 739 116 739 116 754 127 c 1,20,-1
 805 324 l 1,21,-1
 852 324 l 1,22,-1
 827 0 l 1,23,-1
 55 0 l 1,0,-1
EndSplineSet
EndChar

StartChar: braceleft
Encoding: 123 123 94
Width: 983
Flags: W
LayerCount: 2
Fore
SplineSet
662 -274 m 2,0,1
 597 -274 597 -274 548 -253.5 c 128,-1,2
 499 -233 499 -233 466.5 -194.5 c 128,-1,3
 434 -156 434 -156 417.5 -102 c 128,-1,4
 401 -48 401 -48 401 20 c 2,5,-1
 401 315 l 2,6,7
 401 378 401 378 386.5 422 c 128,-1,8
 372 466 372 466 344.5 494.5 c 128,-1,9
 317 523 317 523 277 537 c 128,-1,10
 237 551 237 551 186 553 c 1,11,-1
 186 598 l 1,12,13
 237 599 237 599 277 613 c 128,-1,14
 317 627 317 627 344.5 655.5 c 128,-1,15
 372 684 372 684 386.5 728 c 128,-1,16
 401 772 401 772 401 834 c 2,17,-1
 401 1128 l 2,18,19
 401 1269 401 1269 466 1345 c 128,-1,20
 531 1421 531 1421 662 1421 c 2,21,-1
 797 1421 l 1,22,-1
 797 1374 l 1,23,-1
 735 1374 l 2,24,25
 644 1374 644 1374 605.5 1319.5 c 128,-1,26
 567 1265 567 1265 567 1159 c 2,27,-1
 567 829 l 2,28,29
 567 779 567 779 552.5 737 c 128,-1,30
 538 695 538 695 512.5 662.5 c 128,-1,31
 487 630 487 630 451.5 608.5 c 128,-1,32
 416 587 416 587 375 578 c 1,33,-1
 375 575 l 1,34,35
 418 565 418 565 453 543.5 c 128,-1,36
 488 522 488 522 513.5 489.5 c 128,-1,37
 539 457 539 457 553 415 c 128,-1,38
 567 373 567 373 567 322 c 2,39,-1
 567 -12 l 2,40,41
 567 -118 567 -118 605.5 -172.5 c 128,-1,42
 644 -227 644 -227 735 -227 c 2,43,-1
 797 -227 l 1,44,-1
 797 -274 l 1,45,-1
 662 -274 l 2,0,1
EndSplineSet
EndChar

StartChar: bar
Encoding: 124 124 95
Width: 410
Flags: W
LayerCount: 2
Fore
SplineSet
154 -442 m 1,0,-1
 154 1421 l 1,1,-1
 256 1421 l 1,2,-1
 256 -442 l 1,3,-1
 154 -442 l 1,0,-1
EndSplineSet
EndChar

StartChar: braceright
Encoding: 125 125 96
Width: 983
Flags: W
LayerCount: 2
Fore
SplineSet
186 -274 m 1,0,-1
 186 -227 l 1,1,-1
 248 -227 l 2,2,3
 339 -227 339 -227 377.5 -172.5 c 128,-1,4
 416 -118 416 -118 416 -12 c 2,5,-1
 416 322 l 2,6,7
 416 373 416 373 430 415 c 128,-1,8
 444 457 444 457 469.5 489.5 c 128,-1,9
 495 522 495 522 530 543.5 c 128,-1,10
 565 565 565 565 608 575 c 1,11,-1
 608 578 l 1,12,13
 567 587 567 587 531.5 608.5 c 128,-1,14
 496 630 496 630 470.5 662.5 c 128,-1,15
 445 695 445 695 430.5 737 c 128,-1,16
 416 779 416 779 416 829 c 2,17,-1
 416 1159 l 2,18,19
 416 1265 416 1265 377.5 1319.5 c 128,-1,20
 339 1374 339 1374 248 1374 c 2,21,-1
 186 1374 l 1,22,-1
 186 1421 l 1,23,-1
 322 1421 l 2,24,25
 452 1421 452 1421 517 1345 c 128,-1,26
 582 1269 582 1269 582 1128 c 2,27,-1
 582 834 l 2,28,29
 582 772 582 772 596.5 728 c 128,-1,30
 611 684 611 684 639 655.5 c 128,-1,31
 667 627 667 627 706.5 613 c 128,-1,32
 746 599 746 599 797 598 c 1,33,-1
 797 553 l 1,34,35
 746 551 746 551 706.5 537 c 128,-1,36
 667 523 667 523 639 494.5 c 128,-1,37
 611 466 611 466 596.5 422 c 128,-1,38
 582 378 582 378 582 315 c 2,39,-1
 582 20 l 2,40,41
 582 -48 582 -48 565.5 -102 c 128,-1,42
 549 -156 549 -156 516.5 -194.5 c 128,-1,43
 484 -233 484 -233 435 -253.5 c 128,-1,44
 386 -274 386 -274 322 -274 c 2,45,-1
 186 -274 l 1,0,-1
EndSplineSet
EndChar

StartChar: asciitilde
Encoding: 126 126 97
Width: 1108
Flags: W
LayerCount: 2
Fore
SplineSet
780 502 m 0,0,1
 734 502 734 502 692 520 c 128,-1,2
 650 538 650 538 610.5 564.5 c 128,-1,3
 571 591 571 591 534.5 622.5 c 128,-1,4
 498 654 498 654 463 680.5 c 128,-1,5
 428 707 428 707 394 725 c 128,-1,6
 360 743 360 743 326 743 c 0,7,8
 285 743 285 743 256 728.5 c 128,-1,9
 227 714 227 714 207 684 c 128,-1,10
 187 654 187 654 175.5 608.5 c 128,-1,11
 164 563 164 563 158 502 c 1,12,-1
 57 502 l 1,13,14
 63 563 63 563 76.5 624.5 c 128,-1,15
 90 686 90 686 119 735.5 c 128,-1,16
 148 785 148 785 197.5 815.5 c 128,-1,17
 247 846 247 846 326 846 c 0,18,19
 374 846 374 846 417 828 c 128,-1,20
 460 810 460 810 499.5 783 c 128,-1,21
 539 756 539 756 576 725 c 128,-1,22
 613 694 613 694 647.5 667 c 128,-1,23
 682 640 682 640 715 622 c 128,-1,24
 748 604 748 604 780 604 c 0,25,26
 820 604 820 604 848 620 c 128,-1,27
 876 636 876 636 895.5 667 c 128,-1,28
 915 698 915 698 926.5 743 c 128,-1,29
 938 788 938 788 946 846 c 1,30,-1
 1049 846 l 1,31,32
 1041 785 1041 785 1026.5 724 c 128,-1,33
 1012 663 1012 663 982.5 613.5 c 128,-1,34
 953 564 953 564 904.5 533 c 128,-1,35
 856 502 856 502 780 502 c 0,0,1
EndSplineSet
EndChar

StartChar: exclamdown
Encoding: 161 161 98
Width: 682
Flags: W
LayerCount: 2
Fore
SplineSet
219 840 m 0,0,1
 219 865 219 865 228.5 887 c 128,-1,2
 238 909 238 909 254 925.5 c 128,-1,3
 270 942 270 942 292 951.5 c 128,-1,4
 314 961 314 961 340 961 c 0,5,6
 365 961 365 961 387.5 951.5 c 128,-1,7
 410 942 410 942 426 925.5 c 128,-1,8
 442 909 442 909 451.5 887 c 128,-1,9
 461 865 461 865 461 840 c 0,10,11
 461 814 461 814 451.5 792 c 128,-1,12
 442 770 442 770 426 754 c 128,-1,13
 410 738 410 738 387.5 728.5 c 128,-1,14
 365 719 365 719 340 719 c 0,15,16
 314 719 314 719 292 728.5 c 128,-1,17
 270 738 270 738 254 754 c 128,-1,18
 238 770 238 770 228.5 792 c 128,-1,19
 219 814 219 814 219 840 c 0,0,1
449 -410 m 1,20,-1
 231 -410 l 1,21,-1
 293 543 l 1,22,-1
 387 543 l 1,23,-1
 449 -410 l 1,20,-1
EndSplineSet
EndChar

StartChar: cent
Encoding: 162 162 99
Width: 1024
Flags: W
LayerCount: 2
Fore
SplineSet
536 186 m 1,0,1
 427 193 427 193 349.5 229.5 c 128,-1,2
 272 266 272 266 222.5 330 c 128,-1,3
 173 394 173 394 150 483 c 128,-1,4
 127 572 127 572 127 684 c 0,5,6
 127 805 127 805 157.5 894 c 128,-1,7
 188 983 188 983 242 1042.5 c 128,-1,8
 296 1102 296 1102 371 1133 c 128,-1,9
 446 1164 446 1164 536 1169 c 1,10,-1
 536 1341 l 1,11,-1
 618 1341 l 1,12,-1
 618 1171 l 1,13,14
 688 1168 688 1168 753 1160 c 128,-1,15
 818 1152 818 1152 872 1141 c 1,16,-1
 872 879 l 1,17,-1
 817 879 l 1,18,-1
 774 1044 l 1,19,20
 743 1061 743 1061 703 1073 c 128,-1,21
 663 1085 663 1085 618 1090 c 1,22,-1
 618 291 l 1,23,-1
 641 291 l 2,24,25
 675 291 675 291 710.5 293.5 c 128,-1,26
 746 296 746 296 779.5 300.5 c 128,-1,27
 813 305 813 305 842.5 311 c 128,-1,28
 872 317 872 317 895 324 c 1,29,-1
 895 264 l 1,30,31
 872 246 872 246 840 233 c 128,-1,32
 808 220 808 220 771.5 210 c 128,-1,33
 735 200 735 200 696 194.5 c 128,-1,34
 657 189 657 189 618 186 c 1,35,-1
 618 0 l 1,36,-1
 536 0 l 1,37,-1
 536 186 l 1,0,1
307 684 m 0,38,39
 307 607 307 607 317.5 543 c 128,-1,40
 328 479 328 479 354 429.5 c 128,-1,41
 380 380 380 380 424 347.5 c 128,-1,42
 468 315 468 315 536 301 c 1,43,-1
 536 1090 l 1,44,45
 426 1076 426 1076 366.5 978 c 128,-1,46
 307 880 307 880 307 684 c 0,38,39
EndSplineSet
EndChar

StartChar: sterling
Encoding: 163 163 100
Width: 1024
Flags: W
LayerCount: 2
Fore
SplineSet
961 154 m 1,0,-1
 961 0 l 1,1,-1
 123 0 l 1,2,-1
 123 117 l 1,3,4
 157 148 157 148 194.5 180.5 c 128,-1,5
 232 213 232 213 264 250.5 c 128,-1,6
 296 288 296 288 317 332 c 128,-1,7
 338 376 338 376 338 430 c 0,8,9
 338 477 338 477 321.5 526 c 128,-1,10
 305 575 305 575 283 629 c 1,11,-1
 121 629 l 1,12,-1
 121 711 l 1,13,-1
 248 711 l 1,14,15
 220 776 220 776 200.5 848.5 c 128,-1,16
 181 921 181 921 181 1006 c 0,17,18
 181 1174 181 1174 285.5 1265 c 128,-1,19
 390 1356 390 1356 598 1356 c 0,20,21
 641 1356 641 1356 678 1352.5 c 128,-1,22
 715 1349 715 1349 750 1343.5 c 128,-1,23
 785 1338 785 1338 819 1330 c 128,-1,24
 853 1322 853 1322 891 1313 c 1,25,-1
 891 1055 l 1,26,-1
 826 1055 l 1,27,-1
 791 1219 l 1,28,29
 756 1239 756 1239 707 1255.5 c 128,-1,30
 658 1272 658 1272 598 1272 c 0,31,32
 483 1272 483 1272 426 1204.5 c 128,-1,33
 369 1137 369 1137 369 1006 c 0,34,35
 369 911 369 911 378 841 c 128,-1,36
 387 771 387 771 398 711 c 1,37,-1
 676 711 l 1,38,-1
 676 629 l 1,39,-1
 414 629 l 1,40,41
 420 588 420 588 425 546.5 c 128,-1,42
 430 505 430 505 430 459 c 0,43,44
 430 405 430 405 418 361.5 c 128,-1,45
 406 318 406 318 384.5 281.5 c 128,-1,46
 363 245 363 245 334 214 c 128,-1,47
 305 183 305 183 271 154 c 1,48,-1
 961 154 l 1,0,-1
EndSplineSet
EndChar

StartChar: currency
Encoding: 164 164 101
Width: 1024
Flags: W
LayerCount: 2
Fore
SplineSet
123 676 m 256,0,1
 123 744 123 744 144 804 c 128,-1,2
 165 864 165 864 203 913 c 1,3,-1
 96 1020 l 1,4,-1
 170 1094 l 1,5,-1
 274 985 l 1,6,7
 324 1023 324 1023 384 1045 c 128,-1,8
 444 1067 444 1067 512 1067 c 0,9,10
 578 1067 578 1067 639 1045 c 128,-1,11
 700 1023 700 1023 750 985 c 1,12,-1
 858 1094 l 1,13,-1
 930 1022 l 1,14,-1
 821 913 l 1,15,16
 859 862 859 862 881 802 c 128,-1,17
 903 742 903 742 903 676 c 0,18,19
 903 608 903 608 881 548 c 128,-1,20
 859 488 859 488 821 438 c 1,21,-1
 930 332 l 1,22,-1
 858 260 l 1,23,-1
 750 367 l 1,24,25
 700 328 700 328 639 307.5 c 128,-1,26
 578 287 578 287 512 287 c 0,27,28
 444 287 444 287 384 308 c 128,-1,29
 324 329 324 329 274 367 c 1,30,-1
 168 260 l 1,31,-1
 96 332 l 1,32,-1
 203 438 l 1,33,34
 165 488 165 488 144 548 c 128,-1,35
 123 608 123 608 123 676 c 256,0,1
219 676 m 0,36,37
 219 616 219 616 242.5 562.5 c 128,-1,38
 266 509 266 509 305.5 469.5 c 128,-1,39
 345 430 345 430 398.5 406.5 c 128,-1,40
 452 383 452 383 512 383 c 0,41,42
 573 383 573 383 626.5 406.5 c 128,-1,43
 680 430 680 430 720 469.5 c 128,-1,44
 760 509 760 509 783.5 562.5 c 128,-1,45
 807 616 807 616 807 676 c 0,46,47
 807 737 807 737 783.5 790.5 c 128,-1,48
 760 844 760 844 720 884 c 128,-1,49
 680 924 680 924 626.5 947.5 c 128,-1,50
 573 971 573 971 512 971 c 0,51,52
 452 971 452 971 398.5 947.5 c 128,-1,53
 345 924 345 924 305.5 884 c 128,-1,54
 266 844 266 844 242.5 790.5 c 128,-1,55
 219 737 219 737 219 676 c 0,36,37
EndSplineSet
EndChar

StartChar: yen
Encoding: 165 165 102
Width: 1024
Flags: W
LayerCount: 2
Fore
SplineSet
885 393 m 1,0,-1
 885 311 l 1,1,-1
 606 311 l 1,2,-1
 606 80 l 1,3,-1
 778 53 l 1,4,-1
 778 0 l 1,5,-1
 242 0 l 1,6,-1
 242 53 l 1,7,-1
 414 80 l 1,8,-1
 414 311 l 1,9,-1
 135 311 l 1,10,-1
 135 393 l 1,11,-1
 414 393 l 1,12,-1
 414 522 l 1,13,-1
 399 557 l 1,14,-1
 135 557 l 1,15,-1
 135 639 l 1,16,-1
 365 639 l 1,17,-1
 102 1262 l 1,18,-1
 2 1288 l 1,19,-1
 2 1341 l 1,20,-1
 455 1341 l 1,21,-1
 455 1288 l 1,22,-1
 324 1262 l 1,23,-1
 563 643 l 1,24,-1
 809 1262 l 1,25,-1
 686 1288 l 1,26,-1
 686 1341 l 1,27,-1
 1022 1341 l 1,28,-1
 1022 1288 l 1,29,-1
 918 1262 l 1,30,-1
 653 639 l 1,31,-1
 885 639 l 1,32,-1
 885 557 l 1,33,-1
 618 557 l 1,34,-1
 606 528 l 1,35,-1
 606 393 l 1,36,-1
 885 393 l 1,0,-1
EndSplineSet
EndChar

StartChar: brokenbar
Encoding: 166 166 103
Width: 410
Flags: W
LayerCount: 2
Fore
SplineSet
154 801 m 1,0,-1
 154 1421 l 1,1,-1
 256 1421 l 1,2,-1
 256 801 l 1,3,-1
 154 801 l 1,0,-1
154 -442 m 1,4,-1
 154 180 l 1,5,-1
 256 180 l 1,6,-1
 256 -442 l 1,7,-1
 154 -442 l 1,4,-1
EndSplineSet
EndChar

StartChar: section
Encoding: 167 167 104
Width: 1024
Flags: W
LayerCount: 2
Fore
SplineSet
842 29 m 0,0,1
 842 -34 842 -34 821 -86.5 c 128,-1,2
 800 -139 800 -139 756 -176.5 c 128,-1,3
 712 -214 712 -214 643.5 -235 c 128,-1,4
 575 -256 575 -256 481 -256 c 0,5,6
 434 -256 434 -256 386.5 -250.5 c 128,-1,7
 339 -245 339 -245 298.5 -237 c 128,-1,8
 258 -229 258 -229 227.5 -221.5 c 128,-1,9
 197 -214 197 -214 184 -209 c 1,10,-1
 184 23 l 1,11,-1
 229 23 l 1,12,-1
 268 -109 l 1,13,14
 283 -123 283 -123 306.5 -135 c 128,-1,15
 330 -147 330 -147 358 -156 c 128,-1,16
 386 -165 386 -165 418 -170.5 c 128,-1,17
 450 -176 450 -176 483 -176 c 0,18,19
 529 -176 529 -176 567 -166 c 128,-1,20
 605 -156 605 -156 632 -135.5 c 128,-1,21
 659 -115 659 -115 673.5 -83.5 c 128,-1,22
 688 -52 688 -52 688 -10 c 0,23,24
 688 40 688 40 665.5 78 c 128,-1,25
 643 116 643 116 606 146 c 128,-1,26
 569 176 569 176 521.5 202 c 128,-1,27
 474 228 474 228 425 254.5 c 128,-1,28
 376 281 376 281 328.5 310.5 c 128,-1,29
 281 340 281 340 244 378.5 c 128,-1,30
 207 417 207 417 184.5 466.5 c 128,-1,31
 162 516 162 516 162 582 c 0,32,33
 162 633 162 633 180.5 675.5 c 128,-1,34
 199 718 199 718 231 750.5 c 128,-1,35
 263 783 263 783 306 805.5 c 128,-1,36
 349 828 349 828 399 838 c 1,37,38
 358 859 358 859 320.5 885.5 c 128,-1,39
 283 912 283 912 254.5 946.5 c 128,-1,40
 226 981 226 981 209.5 1024.5 c 128,-1,41
 193 1068 193 1068 193 1122 c 0,42,43
 193 1186 193 1186 216 1236 c 128,-1,44
 239 1286 239 1286 280.5 1320 c 128,-1,45
 322 1354 322 1354 379.5 1371.5 c 128,-1,46
 437 1389 437 1389 506 1389 c 0,47,48
 574 1389 574 1389 637.5 1382 c 128,-1,49
 701 1375 701 1375 764 1364 c 1,50,-1
 764 1153 l 1,51,-1
 717 1153 l 1,52,-1
 684 1262 l 1,53,54
 671 1273 671 1273 651 1282 c 128,-1,55
 631 1291 631 1291 608 1297 c 128,-1,56
 585 1303 585 1303 559 1306 c 128,-1,57
 533 1309 533 1309 508 1309 c 0,58,59
 426 1309 426 1309 384 1269 c 128,-1,60
 342 1229 342 1229 342 1161 c 0,61,62
 342 1114 342 1114 365 1080 c 128,-1,63
 388 1046 388 1046 425 1019.5 c 128,-1,64
 462 993 462 993 509.5 970.5 c 128,-1,65
 557 948 557 948 607 925 c 128,-1,66
 657 902 657 902 704.5 875.5 c 128,-1,67
 752 849 752 849 789 813.5 c 128,-1,68
 826 778 826 778 849 732 c 128,-1,69
 872 686 872 686 872 623 c 0,70,71
 872 567 872 567 853 520.5 c 128,-1,72
 834 474 834 474 799.5 438 c 128,-1,73
 765 402 765 402 717.5 378 c 128,-1,74
 670 354 670 354 614 342 c 1,75,76
 659 316 659 316 700 287 c 128,-1,77
 741 258 741 258 772.5 220.5 c 128,-1,78
 804 183 804 183 823 136 c 128,-1,79
 842 89 842 89 842 29 c 0,0,1
719 580 m 0,80,81
 719 620 719 620 701.5 650 c 128,-1,82
 684 680 684 680 654.5 704.5 c 128,-1,83
 625 729 625 729 586.5 749 c 128,-1,84
 548 769 548 769 506 788 c 1,85,86
 467 786 467 786 431.5 773.5 c 128,-1,87
 396 761 396 761 369 738.5 c 128,-1,88
 342 716 342 716 326.5 685.5 c 128,-1,89
 311 655 311 655 311 618 c 0,90,91
 311 573 311 573 328 541 c 128,-1,92
 345 509 345 509 374.5 484 c 128,-1,93
 404 459 404 459 442 437.5 c 128,-1,94
 480 416 480 416 522 393 c 1,95,96
 562 398 562 398 598 412 c 128,-1,97
 634 426 634 426 661 449.5 c 128,-1,98
 688 473 688 473 703.5 505.5 c 128,-1,99
 719 538 719 538 719 580 c 0,80,81
EndSplineSet
EndChar

StartChar: dieresis
Encoding: 168 168 105
Width: 682
Flags: W
LayerCount: 2
Fore
SplineSet
618 1194 m 256,0,1
 618 1152 618 1152 590 1122.5 c 128,-1,2
 562 1093 562 1093 520 1093 c 0,3,4
 499 1093 499 1093 481 1101 c 128,-1,5
 463 1109 463 1109 449.5 1123 c 128,-1,6
 436 1137 436 1137 428 1155 c 128,-1,7
 420 1173 420 1173 420 1194 c 0,8,9
 420 1236 420 1236 449 1265 c 128,-1,10
 478 1294 478 1294 520 1294 c 256,11,12
 562 1294 562 1294 590 1265 c 128,-1,13
 618 1236 618 1236 618 1194 c 256,0,1
262 1194 m 256,14,15
 262 1152 262 1152 234 1122.5 c 128,-1,16
 206 1093 206 1093 164 1093 c 0,17,18
 143 1093 143 1093 125 1101 c 128,-1,19
 107 1109 107 1109 93 1123 c 128,-1,20
 79 1137 79 1137 71 1155 c 128,-1,21
 63 1173 63 1173 63 1194 c 256,22,23
 63 1215 63 1215 71 1233 c 128,-1,24
 79 1251 79 1251 93 1264.5 c 128,-1,25
 107 1278 107 1278 125 1286 c 128,-1,26
 143 1294 143 1294 164 1294 c 0,27,28
 206 1294 206 1294 234 1265 c 128,-1,29
 262 1236 262 1236 262 1194 c 256,14,15
EndSplineSet
EndChar

StartChar: copyright
Encoding: 169 169 106
Width: 1556
Flags: W
LayerCount: 2
Fore
SplineSet
88 670 m 0,0,1
 88 766 88 766 112.5 854.5 c 128,-1,2
 137 943 137 943 182 1020 c 128,-1,3
 227 1097 227 1097 289.5 1160 c 128,-1,4
 352 1223 352 1223 429 1268 c 128,-1,5
 506 1313 506 1313 594 1337.5 c 128,-1,6
 682 1362 682 1362 778 1362 c 256,7,8
 874 1362 874 1362 962.5 1337.5 c 128,-1,9
 1051 1313 1051 1313 1128 1268 c 128,-1,10
 1205 1223 1205 1223 1268 1160 c 128,-1,11
 1331 1097 1331 1097 1376 1020 c 128,-1,12
 1421 943 1421 943 1445.5 854.5 c 128,-1,13
 1470 766 1470 766 1470 670 c 256,14,15
 1470 574 1470 574 1445.5 486 c 128,-1,16
 1421 398 1421 398 1376 321 c 128,-1,17
 1331 244 1331 244 1268 181.5 c 128,-1,18
 1205 119 1205 119 1128 74 c 128,-1,19
 1051 29 1051 29 962.5 4.5 c 128,-1,20
 874 -20 874 -20 778 -20 c 0,21,22
 634 -20 634 -20 508.5 34 c 128,-1,23
 383 88 383 88 289.5 181.5 c 128,-1,24
 196 275 196 275 142 400.5 c 128,-1,25
 88 526 88 526 88 670 c 0,0,1
158 670 m 256,26,27
 158 541 158 541 206.5 428 c 128,-1,28
 255 315 255 315 339 230.5 c 128,-1,29
 423 146 423 146 536 97.5 c 128,-1,30
 649 49 649 49 778 49 c 256,31,32
 907 49 907 49 1020.5 97.5 c 128,-1,33
 1134 146 1134 146 1218.5 230.5 c 128,-1,34
 1303 315 1303 315 1352 428 c 128,-1,35
 1401 541 1401 541 1401 670 c 0,36,37
 1401 756 1401 756 1378.5 835.5 c 128,-1,38
 1356 915 1356 915 1315.5 984 c 128,-1,39
 1275 1053 1275 1053 1218.5 1110 c 128,-1,40
 1162 1167 1162 1167 1092.5 1207.5 c 128,-1,41
 1023 1248 1023 1248 943.5 1270 c 128,-1,42
 864 1292 864 1292 778 1292 c 0,43,44
 649 1292 649 1292 536 1243 c 128,-1,45
 423 1194 423 1194 339 1110 c 128,-1,46
 255 1026 255 1026 206.5 912.5 c 128,-1,47
 158 799 158 799 158 670 c 256,26,27
795 258 m 0,48,49
 696 258 696 258 618.5 286 c 128,-1,50
 541 314 541 314 487.5 366.5 c 128,-1,51
 434 419 434 419 406.5 494 c 128,-1,52
 379 569 379 569 379 664 c 0,53,54
 379 772 379 772 407 851.5 c 128,-1,55
 435 931 435 931 488 982.5 c 128,-1,56
 541 1034 541 1034 619 1059.5 c 128,-1,57
 697 1085 697 1085 797 1085 c 0,58,59
 878 1085 878 1085 943.5 1075.5 c 128,-1,60
 1009 1066 1009 1066 1065 1055 c 1,61,-1
 1069 868 l 1,62,-1
 1020 868 l 1,63,-1
 1001 973 l 1,64,65
 959 999 959 999 908.5 1011.5 c 128,-1,66
 858 1024 858 1024 801 1024 c 0,67,68
 735 1024 735 1024 684 1007 c 128,-1,69
 633 990 633 990 597.5 948.5 c 128,-1,70
 562 907 562 907 544 838 c 128,-1,71
 526 769 526 769 526 666 c 0,72,73
 526 483 526 483 596 400 c 128,-1,74
 666 317 666 317 795 317 c 0,75,76
 870 317 870 317 924.5 334.5 c 128,-1,77
 979 352 979 352 1010 377 c 1,78,-1
 1032 496 l 1,79,-1
 1081 496 l 1,80,-1
 1077 297 l 1,81,82
 1026 281 1026 281 950.5 269.5 c 128,-1,83
 875 258 875 258 795 258 c 0,48,49
EndSplineSet
EndChar

StartChar: ordfeminine
Encoding: 170 170 107
Width: 565
Flags: W
LayerCount: 2
Fore
SplineSet
281 1362 m 0,0,1
 328 1362 328 1362 367 1353.5 c 128,-1,2
 406 1345 406 1345 433.5 1324.5 c 128,-1,3
 461 1304 461 1304 476.5 1271 c 128,-1,4
 492 1238 492 1238 492 1190 c 2,5,-1
 492 838 l 1,6,-1
 561 823 l 1,7,-1
 561 786 l 1,8,-1
 387 786 l 1,9,-1
 375 848 l 1,10,11
 366 839 366 839 348 826 c 128,-1,12
 330 813 330 813 305.5 801.5 c 128,-1,13
 281 790 281 790 250.5 782 c 128,-1,14
 220 774 220 774 184 774 c 0,15,16
 143 774 143 774 115 786.5 c 128,-1,17
 87 799 87 799 69 821.5 c 128,-1,18
 51 844 51 844 43 875 c 128,-1,19
 35 906 35 906 35 942 c 0,20,21
 35 998 35 998 58 1031.5 c 128,-1,22
 81 1065 81 1065 117.5 1083 c 128,-1,23
 154 1101 154 1101 199 1107 c 128,-1,24
 244 1113 244 1113 287 1114 c 2,25,-1
 371 1116 l 1,26,-1
 371 1196 l 2,27,28
 371 1246 371 1246 348 1276.5 c 128,-1,29
 325 1307 325 1307 274 1307 c 0,30,31
 245 1307 245 1307 216 1299.5 c 128,-1,32
 187 1292 187 1292 164 1278 c 1,33,-1
 143 1219 l 1,34,-1
 100 1219 l 1,35,-1
 100 1341 l 1,36,37
 139 1351 139 1351 186 1356.5 c 128,-1,38
 233 1362 233 1362 281 1362 c 0,0,1
371 1063 m 1,39,-1
 293 1061 l 2,40,41
 260 1060 260 1060 234.5 1056.5 c 128,-1,42
 209 1053 209 1053 191.5 1041 c 128,-1,43
 174 1029 174 1029 165 1006.5 c 128,-1,44
 156 984 156 984 156 946 c 0,45,46
 156 892 156 892 177 871 c 128,-1,47
 198 850 198 850 242 850 c 0,48,49
 282 850 282 850 312 861.5 c 128,-1,50
 342 873 342 873 371 889 c 1,51,-1
 371 1063 l 1,39,-1
EndSplineSet
EndChar

StartChar: guillemotleft
Encoding: 171 171 108
Width: 1024
Flags: W
LayerCount: 2
Fore
SplineSet
117 496 m 1,0,-1
 451 852 l 1,1,-1
 532 852 l 1,2,-1
 305 463 l 1,3,-1
 532 74 l 1,4,-1
 451 74 l 1,5,-1
 117 430 l 1,6,-1
 117 496 l 1,0,-1
526 496 m 1,7,-1
 861 852 l 1,8,-1
 942 852 l 1,9,-1
 714 463 l 1,10,-1
 942 74 l 1,11,-1
 861 74 l 1,12,-1
 526 430 l 1,13,-1
 526 496 l 1,7,-1
EndSplineSet
EndChar

StartChar: logicalnot
Encoding: 172 172 109
Width: 1155
Flags: W
LayerCount: 2
Fore
SplineSet
1055 731 m 1,0,-1
 1055 203 l 1,1,-1
 952 203 l 1,2,-1
 952 629 l 1,3,-1
 102 629 l 1,4,-1
 102 731 l 1,5,-1
 1055 731 l 1,0,-1
EndSplineSet
EndChar

StartChar: registered
Encoding: 174 174 110
Width: 1556
Flags: W
LayerCount: 2
Fore
SplineSet
88 670 m 0,0,1
 88 766 88 766 112.5 854.5 c 128,-1,2
 137 943 137 943 182 1020 c 128,-1,3
 227 1097 227 1097 289.5 1160 c 128,-1,4
 352 1223 352 1223 429 1268 c 128,-1,5
 506 1313 506 1313 594 1337.5 c 128,-1,6
 682 1362 682 1362 778 1362 c 256,7,8
 874 1362 874 1362 962.5 1337.5 c 128,-1,9
 1051 1313 1051 1313 1128 1268 c 128,-1,10
 1205 1223 1205 1223 1268 1160 c 128,-1,11
 1331 1097 1331 1097 1376 1020 c 128,-1,12
 1421 943 1421 943 1445.5 854.5 c 128,-1,13
 1470 766 1470 766 1470 670 c 256,14,15
 1470 574 1470 574 1445.5 486 c 128,-1,16
 1421 398 1421 398 1376 321 c 128,-1,17
 1331 244 1331 244 1268 181.5 c 128,-1,18
 1205 119 1205 119 1128 74 c 128,-1,19
 1051 29 1051 29 962.5 4.5 c 128,-1,20
 874 -20 874 -20 778 -20 c 0,21,22
 634 -20 634 -20 508.5 34 c 128,-1,23
 383 88 383 88 289.5 181.5 c 128,-1,24
 196 275 196 275 142 400.5 c 128,-1,25
 88 526 88 526 88 670 c 0,0,1
158 670 m 256,26,27
 158 541 158 541 206.5 428 c 128,-1,28
 255 315 255 315 339 230.5 c 128,-1,29
 423 146 423 146 536 97.5 c 128,-1,30
 649 49 649 49 778 49 c 256,31,32
 907 49 907 49 1020.5 97.5 c 128,-1,33
 1134 146 1134 146 1218.5 230.5 c 128,-1,34
 1303 315 1303 315 1352 428 c 128,-1,35
 1401 541 1401 541 1401 670 c 0,36,37
 1401 756 1401 756 1378.5 835.5 c 128,-1,38
 1356 915 1356 915 1315.5 984 c 128,-1,39
 1275 1053 1275 1053 1218.5 1110 c 128,-1,40
 1162 1167 1162 1167 1092.5 1207.5 c 128,-1,41
 1023 1248 1023 1248 943.5 1270 c 128,-1,42
 864 1292 864 1292 778 1292 c 0,43,44
 649 1292 649 1292 536 1243 c 128,-1,45
 423 1194 423 1194 339 1110 c 128,-1,46
 255 1026 255 1026 206.5 912.5 c 128,-1,47
 158 799 158 799 158 670 c 256,26,27
668 625 m 1,48,-1
 668 336 l 1,49,-1
 782 319 l 1,50,-1
 782 276 l 1,51,-1
 436 276 l 1,52,-1
 436 319 l 1,53,-1
 532 336 l 1,54,-1
 532 1024 l 1,55,-1
 428 1040 l 1,56,-1
 428 1081 l 1,57,-1
 758 1081 l 2,58,59
 842 1081 842 1081 901.5 1065 c 128,-1,60
 961 1049 961 1049 999 1019.5 c 128,-1,61
 1037 990 1037 990 1055 949.5 c 128,-1,62
 1073 909 1073 909 1073 860 c 0,63,64
 1073 783 1073 783 1028 727 c 128,-1,65
 983 671 983 671 895 643 c 1,66,-1
 1108 336 l 1,67,-1
 1192 319 l 1,68,-1
 1192 276 l 1,69,-1
 987 276 l 1,70,-1
 758 625 l 1,71,-1
 668 625 l 1,48,-1
932 858 m 0,72,73
 932 906 932 906 920.5 937 c 128,-1,74
 909 968 909 968 885 986.5 c 128,-1,75
 861 1005 861 1005 823 1012.5 c 128,-1,76
 785 1020 785 1020 731 1020 c 2,77,-1
 668 1020 l 1,78,-1
 668 688 l 1,79,-1
 735 688 l 2,80,81
 790 688 790 688 828 697.5 c 128,-1,82
 866 707 866 707 889 727 c 128,-1,83
 912 747 912 747 922 779.5 c 128,-1,84
 932 812 932 812 932 858 c 0,72,73
EndSplineSet
EndChar

StartChar: macron
Encoding: 175 175 111
Width: 1024
Flags: W
LayerCount: 2
Fore
SplineSet
1042 1452 m 1,0,-1
 -17 1452 l 1,1,-1
 -17 1546 l 1,2,-1
 1042 1546 l 1,3,-1
 1042 1452 l 1,0,-1
EndSplineSet
EndChar

StartChar: degree
Encoding: 176 176 112
Width: 819
Flags: W
LayerCount: 2
Fore
SplineSet
98 1051 m 0,0,1
 98 1115 98 1115 122 1172 c 128,-1,2
 146 1229 146 1229 188 1271 c 128,-1,3
 230 1313 230 1313 286.5 1337.5 c 128,-1,4
 343 1362 343 1362 408 1362 c 0,5,6
 472 1362 472 1362 529 1337.5 c 128,-1,7
 586 1313 586 1313 628 1271 c 128,-1,8
 670 1229 670 1229 694.5 1172 c 128,-1,9
 719 1115 719 1115 719 1051 c 0,10,11
 719 986 719 986 694.5 929.5 c 128,-1,12
 670 873 670 873 628 831 c 128,-1,13
 586 789 586 789 529 765 c 128,-1,14
 472 741 472 741 408 741 c 0,15,16
 343 741 343 741 286.5 765 c 128,-1,17
 230 789 230 789 188 831 c 128,-1,18
 146 873 146 873 122 929.5 c 128,-1,19
 98 986 98 986 98 1051 c 0,0,1
200 1051 m 256,20,21
 200 1007 200 1007 216 969 c 128,-1,22
 232 931 232 931 260.5 902.5 c 128,-1,23
 289 874 289 874 326.5 857.5 c 128,-1,24
 364 841 364 841 408 841 c 256,25,26
 452 841 452 841 490.5 857.5 c 128,-1,27
 529 874 529 874 557 902.5 c 128,-1,28
 585 931 585 931 601 969 c 128,-1,29
 617 1007 617 1007 617 1051 c 256,30,31
 617 1095 617 1095 601 1133.5 c 128,-1,32
 585 1172 585 1172 557 1200.5 c 128,-1,33
 529 1229 529 1229 490.5 1245.5 c 128,-1,34
 452 1262 452 1262 408 1262 c 256,35,36
 364 1262 364 1262 326.5 1245.5 c 128,-1,37
 289 1229 289 1229 260.5 1200.5 c 128,-1,38
 232 1172 232 1172 216 1133.5 c 128,-1,39
 200 1095 200 1095 200 1051 c 256,20,21
EndSplineSet
EndChar

StartChar: plusminus
Encoding: 177 177 113
Width: 1124
Flags: W
LayerCount: 2
Fore
SplineSet
612 629 m 1,0,-1
 612 203 l 1,1,-1
 509 203 l 1,2,-1
 509 629 l 1,3,-1
 85 629 l 1,4,-1
 85 731 l 1,5,-1
 509 731 l 1,6,-1
 509 1157 l 1,7,-1
 612 1157 l 1,8,-1
 612 731 l 1,9,-1
 1038 731 l 1,10,-1
 1038 629 l 1,11,-1
 612 629 l 1,0,-1
1038 102 m 1,12,-1
 1038 0 l 1,13,-1
 85 0 l 1,14,-1
 85 102 l 1,15,-1
 1038 102 l 1,12,-1
EndSplineSet
EndChar

StartChar: uni00B2
Encoding: 178 178 114
Width: 614
Flags: W
LayerCount: 2
Fore
SplineSet
567 535 m 1,0,-1
 68 535 l 1,1,-1
 68 631 l 1,2,3
 129 687 129 687 177.5 731 c 128,-1,4
 226 775 226 775 264 813 c 128,-1,5
 302 851 302 851 329 885.5 c 128,-1,6
 356 920 356 920 373.5 957.5 c 128,-1,7
 391 995 391 995 399.5 1039 c 128,-1,8
 408 1083 408 1083 408 1139 c 0,9,10
 408 1213 408 1213 374.5 1247.5 c 128,-1,11
 341 1282 341 1282 276 1282 c 0,12,13
 241 1282 241 1282 212 1272 c 128,-1,14
 183 1262 183 1262 162 1249 c 1,15,-1
 141 1151 l 1,16,-1
 86 1151 l 1,17,-1
 86 1323 l 1,18,19
 131 1334 131 1334 178 1342 c 128,-1,20
 225 1350 225 1350 276 1350 c 0,21,22
 410 1350 410 1350 480.5 1294.5 c 128,-1,23
 551 1239 551 1239 551 1139 c 0,24,25
 551 1064 551 1064 527 1008 c 128,-1,26
 503 952 503 952 455.5 898.5 c 128,-1,27
 408 845 408 845 339 785 c 128,-1,28
 270 725 270 725 180 643 c 1,29,-1
 567 643 l 1,30,-1
 567 535 l 1,0,-1
EndSplineSet
EndChar

StartChar: uni00B3
Encoding: 179 179 115
Width: 614
Flags: W
LayerCount: 2
Fore
SplineSet
575 754 m 0,0,1
 575 699 575 699 552 656 c 128,-1,2
 529 613 529 613 487.5 583 c 128,-1,3
 446 553 446 553 389 537.5 c 128,-1,4
 332 522 332 522 264 522 c 0,5,6
 205 522 205 522 149.5 530 c 128,-1,7
 94 538 94 538 49 549 c 1,8,-1
 43 735 l 1,9,-1
 98 735 l 1,10,-1
 125 623 l 1,11,12
 147 610 147 610 183 600 c 128,-1,13
 219 590 219 590 256 590 c 0,14,15
 311 590 311 590 345.5 601 c 128,-1,16
 380 612 380 612 399 634 c 128,-1,17
 418 656 418 656 425 687.5 c 128,-1,18
 432 719 432 719 432 760 c 0,19,20
 432 807 432 807 420 837 c 128,-1,21
 408 867 408 867 386.5 884 c 128,-1,22
 365 901 365 901 335.5 908.5 c 128,-1,23
 306 916 306 916 270 918 c 2,24,-1
 184 924 l 1,25,-1
 184 989 l 1,26,-1
 270 993 l 2,27,28
 338 996 338 996 366.5 1030.5 c 128,-1,29
 395 1065 395 1065 395 1143 c 0,30,31
 395 1182 395 1182 388 1208.5 c 128,-1,32
 381 1235 381 1235 365 1251.5 c 128,-1,33
 349 1268 349 1268 322.5 1275 c 128,-1,34
 296 1282 296 1282 256 1282 c 0,35,36
 224 1282 224 1282 194.5 1274 c 128,-1,37
 165 1266 165 1266 143 1253 c 1,38,-1
 123 1151 l 1,39,-1
 68 1151 l 1,40,-1
 68 1323 l 1,41,42
 109 1333 109 1333 152.5 1341.5 c 128,-1,43
 196 1350 196 1350 256 1350 c 0,44,45
 319 1350 319 1350 371 1337.5 c 128,-1,46
 423 1325 423 1325 460.5 1300.5 c 128,-1,47
 498 1276 498 1276 518.5 1238.5 c 128,-1,48
 539 1201 539 1201 539 1151 c 0,49,50
 539 1076 539 1076 490 1023 c 128,-1,51
 441 970 441 970 350 956 c 1,52,53
 460 944 460 944 517.5 893.5 c 128,-1,54
 575 843 575 843 575 754 c 0,0,1
EndSplineSet
EndChar

StartChar: acute
Encoding: 180 180 116
Width: 682
Flags: W
LayerCount: 2
Fore
SplineSet
156 1119 m 1,0,-1
 156 1152 l 1,1,-1
 352 1424 l 1,2,-1
 565 1424 l 1,3,-1
 565 1387 l 1,4,-1
 211 1119 l 1,5,-1
 156 1119 l 1,0,-1
EndSplineSet
EndChar

StartChar: uni00B5
Encoding: 181 181 117
Width: 1180
Flags: W
LayerCount: 2
Fore
SplineSet
816 121 m 1,0,1
 794 101 794 101 765.5 76.5 c 128,-1,2
 737 52 737 52 703 30.5 c 128,-1,3
 669 9 669 9 629.5 -5.5 c 128,-1,4
 590 -20 590 -20 546 -20 c 0,5,6
 481 -20 481 -20 436 3 c 128,-1,7
 391 26 391 26 366 58 c 1,8,9
 366 -75 366 -75 357.5 -204 c 128,-1,10
 349 -333 349 -333 332 -436 c 1,11,-1
 154 -436 l 1,12,-1
 154 -391 l 1,13,14
 160 -372 160 -372 169 -329 c 128,-1,15
 178 -286 178 -286 186 -225.5 c 128,-1,16
 194 -165 194 -165 200 -90 c 128,-1,17
 206 -15 206 -15 206 69 c 2,18,-1
 206 870 l 1,19,-1
 66 895 l 1,20,-1
 66 940 l 1,21,-1
 372 940 l 1,22,-1
 372 288 l 2,23,24
 372 243 372 243 387 207.5 c 128,-1,25
 402 172 402 172 429 147 c 128,-1,26
 456 122 456 122 494 109 c 128,-1,27
 532 96 532 96 579 96 c 0,28,29
 610 96 610 96 642 104 c 128,-1,30
 674 112 674 112 704.5 124.5 c 128,-1,31
 735 137 735 137 762.5 152.5 c 128,-1,32
 790 168 790 168 811 183 c 1,33,-1
 811 870 l 1,34,-1
 669 895 l 1,35,-1
 669 940 l 1,36,-1
 976 940 l 1,37,-1
 976 70 l 1,38,-1
 1113 45 l 1,39,-1
 1113 0 l 1,40,-1
 835 0 l 1,41,-1
 816 121 l 1,0,1
EndSplineSet
EndChar

StartChar: paragraph
Encoding: 182 182 118
Width: 928
Flags: W
LayerCount: 2
Fore
SplineSet
811 1266 m 1,0,-1
 811 -258 l 1,1,-1
 717 -258 l 1,2,-1
 717 1266 l 1,3,-1
 547 1266 l 1,4,-1
 547 -258 l 1,5,-1
 453 -258 l 1,6,-1
 455 565 l 1,7,8
 363 565 363 565 282 588 c 128,-1,9
 201 611 201 611 140 660 c 128,-1,10
 79 709 79 709 43.5 784 c 128,-1,11
 8 859 8 859 8 963 c 0,12,13
 8 1053 8 1053 35.5 1123 c 128,-1,14
 63 1193 63 1193 117.5 1241.5 c 128,-1,15
 172 1290 172 1290 253.5 1315.5 c 128,-1,16
 335 1341 335 1341 442 1341 c 2,17,-1
 905 1341 l 1,18,-1
 905 1288 l 1,19,-1
 811 1266 l 1,0,-1
EndSplineSet
EndChar

StartChar: uni2219
Encoding: 8729 8729 119
AltUni2: 0000b7.ffffffff.0 0000b7.ffffffff.0
Width: 512
Flags: W
LayerCount: 2
Fore
SplineSet
377 678 m 0,0,1
 377 652 377 652 367.5 630 c 128,-1,2
 358 608 358 608 342 592 c 128,-1,3
 326 576 326 576 303.5 566.5 c 128,-1,4
 281 557 281 557 256 557 c 0,5,6
 230 557 230 557 208 566.5 c 128,-1,7
 186 576 186 576 170 592 c 128,-1,8
 154 608 154 608 144.5 630 c 128,-1,9
 135 652 135 652 135 678 c 0,10,11
 135 703 135 703 144.5 725 c 128,-1,12
 154 747 154 747 170 763.5 c 128,-1,13
 186 780 186 780 208 789.5 c 128,-1,14
 230 799 230 799 256 799 c 0,15,16
 281 799 281 799 303.5 789.5 c 128,-1,17
 326 780 326 780 342 763.5 c 128,-1,18
 358 747 358 747 367.5 725 c 128,-1,19
 377 703 377 703 377 678 c 0,0,1
EndSplineSet
EndChar

StartChar: cedilla
Encoding: 184 184 120
Width: 682
Flags: W
LayerCount: 2
Fore
SplineSet
528 -234 m 0,0,1
 528 -280 528 -280 510 -317 c 128,-1,2
 492 -354 492 -354 459 -380.5 c 128,-1,3
 426 -407 426 -407 380.5 -421.5 c 128,-1,4
 335 -436 335 -436 281 -436 c 0,5,6
 249 -436 249 -436 211.5 -430.5 c 128,-1,7
 174 -425 174 -425 143 -414 c 1,8,-1
 143 -340 l 1,9,10
 152 -343 152 -343 166.5 -346 c 128,-1,11
 181 -349 181 -349 197.5 -351 c 128,-1,12
 214 -353 214 -353 231.5 -354.5 c 128,-1,13
 249 -356 249 -356 263 -356 c 0,14,15
 323 -356 323 -356 350 -326.5 c 128,-1,16
 377 -297 377 -297 377 -252 c 0,17,18
 377 -220 377 -220 362 -198.5 c 128,-1,19
 347 -177 347 -177 324.5 -163.5 c 128,-1,20
 302 -150 302 -150 275.5 -143.5 c 128,-1,21
 249 -137 249 -137 225 -135 c 1,22,-1
 266 18 l 1,23,-1
 352 18 l 1,24,-1
 334 -64 l 1,25,26
 425 -73 425 -73 476.5 -117 c 128,-1,27
 528 -161 528 -161 528 -234 c 0,0,1
EndSplineSet
EndChar

StartChar: uni00B9
Encoding: 185 185 121
Width: 614
Flags: W
LayerCount: 2
Fore
SplineSet
375 598 m 1,0,-1
 541 584 l 1,1,-1
 541 535 l 1,2,-1
 66 535 l 1,3,-1
 66 584 l 1,4,-1
 231 598 l 1,5,-1
 231 1223 l 1,6,-1
 70 1165 l 1,7,-1
 70 1212 l 1,8,-1
 303 1346 l 1,9,-1
 375 1346 l 1,10,-1
 375 598 l 1,0,-1
EndSplineSet
EndChar

StartChar: ordmasculine
Encoding: 186 186 122
Width: 635
Flags: W
LayerCount: 2
Fore
SplineSet
598 1069 m 0,0,1
 598 924 598 924 524 847 c 128,-1,2
 450 770 450 770 313 770 c 0,3,4
 249 770 249 770 198 789.5 c 128,-1,5
 147 809 147 809 111 846.5 c 128,-1,6
 75 884 75 884 56 940 c 128,-1,7
 37 996 37 996 37 1069 c 0,8,9
 37 1213 37 1213 111.5 1287.5 c 128,-1,10
 186 1362 186 1362 319 1362 c 0,11,12
 382 1362 382 1362 433.5 1343.5 c 128,-1,13
 485 1325 485 1325 521.5 1288 c 128,-1,14
 558 1251 558 1251 578 1196 c 128,-1,15
 598 1141 598 1141 598 1069 c 0,0,1
469 1069 m 0,16,17
 469 1127 469 1127 461.5 1171.5 c 128,-1,18
 454 1216 454 1216 436 1245.5 c 128,-1,19
 418 1275 418 1275 388 1290 c 128,-1,20
 358 1305 358 1305 313 1305 c 0,21,22
 269 1305 269 1305 241 1290 c 128,-1,23
 213 1275 213 1275 196 1245.5 c 128,-1,24
 179 1216 179 1216 172.5 1171.5 c 128,-1,25
 166 1127 166 1127 166 1069 c 0,26,27
 166 1010 166 1010 172.5 965 c 128,-1,28
 179 920 179 920 196 890 c 128,-1,29
 213 860 213 860 241 844.5 c 128,-1,30
 269 829 269 829 313 829 c 0,31,32
 358 829 358 829 388 844.5 c 128,-1,33
 418 860 418 860 436 890 c 128,-1,34
 454 920 454 920 461.5 965 c 128,-1,35
 469 1010 469 1010 469 1069 c 0,16,17
EndSplineSet
EndChar

StartChar: guillemotright
Encoding: 187 187 123
Width: 1024
Flags: W
LayerCount: 2
Fore
SplineSet
907 430 m 1,0,-1
 573 74 l 1,1,-1
 492 74 l 1,2,-1
 719 463 l 1,3,-1
 492 852 l 1,4,-1
 573 852 l 1,5,-1
 907 496 l 1,6,-1
 907 430 l 1,0,-1
498 430 m 1,7,-1
 163 74 l 1,8,-1
 82 74 l 1,9,-1
 310 463 l 1,10,-1
 82 852 l 1,11,-1
 163 852 l 1,12,-1
 498 496 l 1,13,-1
 498 430 l 1,7,-1
EndSplineSet
EndChar

StartChar: questiondown
Encoding: 191 191 127
Width: 909
Flags: W
LayerCount: 2
Fore
SplineSet
469 582 m 1,0,-1
 549 582 l 1,1,-1
 575 248 l 1,2,-1
 432 219 l 2,3,4
 396 212 396 212 366 194.5 c 128,-1,5
 336 177 336 177 314 143.5 c 128,-1,6
 292 110 292 110 280 57.5 c 128,-1,7
 268 5 268 5 268 -72 c 0,8,9
 268 -145 268 -145 280.5 -196 c 128,-1,10
 293 -247 293 -247 321.5 -279 c 128,-1,11
 350 -311 350 -311 395.5 -325.5 c 128,-1,12
 441 -340 441 -340 508 -340 c 0,13,14
 568 -340 568 -340 617.5 -326 c 128,-1,15
 667 -312 667 -312 702 -291 c 1,16,-1
 737 -127 l 1,17,-1
 803 -127 l 1,18,-1
 803 -381 l 1,19,20
 734 -401 734 -401 663.5 -412.5 c 128,-1,21
 593 -424 593 -424 508 -424 c 0,22,23
 296 -424 296 -424 190 -338 c 128,-1,24
 84 -252 84 -252 84 -84 c 0,25,26
 84 -14 84 -14 100.5 49 c 128,-1,27
 117 112 117 112 154.5 164 c 128,-1,28
 192 216 192 216 252 253.5 c 128,-1,29
 312 291 312 291 399 309 c 1,30,-1
 457 322 l 1,31,-1
 469 582 l 1,0,-1
379 840 m 0,32,33
 379 865 379 865 388.5 887 c 128,-1,34
 398 909 398 909 414 925.5 c 128,-1,35
 430 942 430 942 452 951.5 c 128,-1,36
 474 961 474 961 500 961 c 0,37,38
 525 961 525 961 547 951.5 c 128,-1,39
 569 942 569 942 585.5 925.5 c 128,-1,40
 602 909 602 909 611.5 887 c 128,-1,41
 621 865 621 865 621 840 c 0,42,43
 621 814 621 814 611.5 792 c 128,-1,44
 602 770 602 770 585.5 754 c 128,-1,45
 569 738 569 738 547 728.5 c 128,-1,46
 525 719 525 719 500 719 c 0,47,48
 474 719 474 719 452 728.5 c 128,-1,49
 430 738 430 738 414 754 c 128,-1,50
 398 770 398 770 388.5 792 c 128,-1,51
 379 814 379 814 379 840 c 0,32,33
EndSplineSet
EndChar

StartChar: AE
Encoding: 198 198 134
Width: 1821
Flags: W
LayerCount: 2
Fore
SplineSet
731 53 m 1,0,-1
 883 80 l 1,1,-1
 883 467 l 1,2,-1
 471 467 l 1,3,-1
 264 80 l 1,4,-1
 422 53 l 1,5,-1
 422 0 l 1,6,-1
 20 0 l 1,7,-1
 20 53 l 1,8,-1
 156 80 l 1,9,-1
 803 1270 l 1,10,-1
 639 1288 l 1,11,-1
 639 1341 l 1,12,-1
 1634 1341 l 1,13,-1
 1634 1020 l 1,14,-1
 1569 1020 l 1,15,-1
 1536 1237 l 1,16,17
 1504 1241 1504 1241 1458.5 1244 c 128,-1,18
 1413 1247 1413 1247 1366 1248.5 c 128,-1,19
 1319 1250 1319 1250 1277 1250.5 c 128,-1,20
 1235 1251 1235 1251 1212 1251 c 2,21,-1
 1075 1251 l 1,22,-1
 1075 727 l 1,23,-1
 1356 727 l 1,24,-1
 1386 887 l 1,25,-1
 1450 887 l 1,26,-1
 1450 475 l 1,27,-1
 1386 475 l 1,28,-1
 1356 637 l 1,29,-1
 1075 637 l 1,30,-1
 1075 90 l 1,31,-1
 1257 90 l 2,32,33
 1319 90 1319 90 1374 91.5 c 128,-1,34
 1429 93 1429 93 1473 95 c 128,-1,35
 1517 97 1517 97 1548.5 100 c 128,-1,36
 1580 103 1580 103 1595 106 c 1,37,-1
 1653 354 l 1,38,-1
 1718 354 l 1,39,-1
 1700 0 l 1,40,-1
 731 0 l 1,41,-1
 731 53 l 1,0,-1
883 557 m 1,42,-1
 883 1231 l 1,43,-1
 520 557 l 1,44,-1
 883 557 l 1,42,-1
EndSplineSet
EndChar

StartChar: Eth
Encoding: 208 208 144
Width: 1479
Flags: W
LayerCount: 2
Fore
SplineSet
631 1341 m 2,0,1
 793 1341 793 1341 933 1306.5 c 128,-1,2
 1073 1272 1073 1272 1176 1194 c 128,-1,3
 1279 1116 1279 1116 1338 989.5 c 128,-1,4
 1397 863 1397 863 1397 678 c 0,5,6
 1397 514 1397 514 1359 387 c 128,-1,7
 1321 260 1321 260 1240 173 c 128,-1,8
 1159 86 1159 86 1033.5 41 c 128,-1,9
 908 -4 908 -4 733 -4 c 0,10,11
 676 -4 676 -4 605 -3.5 c 128,-1,12
 534 -3 534 -3 464 -2 c 128,-1,13
 394 -1 394 -1 332 -0.5 c 128,-1,14
 270 0 270 0 231 0 c 2,15,-1
 59 0 l 1,16,-1
 59 53 l 1,17,-1
 231 80 l 1,18,-1
 231 629 l 1,19,-1
 53 629 l 1,20,-1
 53 711 l 1,21,-1
 231 711 l 1,22,-1
 231 1262 l 1,23,-1
 59 1288 l 1,24,-1
 59 1341 l 1,25,-1
 631 1341 l 2,0,1
801 711 m 1,26,-1
 801 629 l 1,27,-1
 424 629 l 1,28,-1
 424 94 l 1,29,30
 454 92 454 92 489 91 c 128,-1,31
 524 90 524 90 561 88.5 c 128,-1,32
 598 87 598 87 635.5 86.5 c 128,-1,33
 673 86 673 86 709 86 c 0,34,35
 836 86 836 86 926.5 122 c 128,-1,36
 1017 158 1017 158 1075 230.5 c 128,-1,37
 1133 303 1133 303 1160.5 412.5 c 128,-1,38
 1188 522 1188 522 1188 670 c 0,39,40
 1188 827 1188 827 1146 937.5 c 128,-1,41
 1104 1048 1104 1048 1026 1118 c 128,-1,42
 948 1188 948 1188 836.5 1219.5 c 128,-1,43
 725 1251 725 1251 586 1251 c 2,44,-1
 424 1251 l 1,45,-1
 424 711 l 1,46,-1
 801 711 l 1,26,-1
EndSplineSet
EndChar

StartChar: multiply
Encoding: 215 215 151
Width: 1155
Flags: W
LayerCount: 2
Fore
SplineSet
578 608 m 1,0,-1
 233 264 l 1,1,-1
 162 336 l 1,2,-1
 506 682 l 1,3,-1
 162 1024 l 1,4,-1
 236 1098 l 1,5,-1
 578 754 l 1,6,-1
 924 1098 l 1,7,-1
 995 1026 l 1,8,-1
 651 682 l 1,9,-1
 995 336 l 1,10,-1
 924 264 l 1,11,-1
 578 608 l 1,0,-1
EndSplineSet
EndChar

StartChar: Oslash
Encoding: 216 216 152
Width: 1479
Flags: W
LayerCount: 2
Fore
SplineSet
84 672 m 256,0,1
 84 850 84 850 127.5 979 c 128,-1,2
 171 1108 171 1108 254 1192 c 128,-1,3
 337 1276 337 1276 459 1316 c 128,-1,4
 581 1356 581 1356 739 1356 c 0,5,6
 866 1356 866 1356 971.5 1328 c 128,-1,7
 1077 1300 1077 1300 1157 1243 c 1,8,-1
 1280 1391 l 1,9,-1
 1395 1391 l 1,10,-1
 1225 1186 l 1,11,12
 1306 1101 1306 1101 1350.5 974.5 c 128,-1,13
 1395 848 1395 848 1395 672 c 0,14,15
 1395 494 1395 494 1350 363.5 c 128,-1,16
 1305 233 1305 233 1220 148 c 128,-1,17
 1135 63 1135 63 1013.5 21.5 c 128,-1,18
 892 -20 892 -20 739 -20 c 0,19,20
 612 -20 612 -20 509 6.5 c 128,-1,21
 406 33 406 33 326 90 c 1,22,-1
 205 -55 l 1,23,-1
 86 -55 l 1,24,-1
 256 150 l 1,25,26
 172 236 172 236 128 365 c 128,-1,27
 84 494 84 494 84 672 c 256,0,1
293 672 m 0,28,29
 293 551 293 551 308 451.5 c 128,-1,30
 323 352 323 352 358 274 c 1,31,-1
 1073 1139 l 1,32,33
 1021 1205 1021 1205 939.5 1240.5 c 128,-1,34
 858 1276 858 1276 739 1276 c 0,35,36
 609 1276 609 1276 523 1234 c 128,-1,37
 437 1192 437 1192 386 1113.5 c 128,-1,38
 335 1035 335 1035 314 923 c 128,-1,39
 293 811 293 811 293 672 c 0,28,29
1186 672 m 0,40,41
 1186 789 1186 789 1171 886 c 128,-1,42
 1156 983 1156 983 1122 1059 c 1,43,-1
 410 193 l 1,44,45
 462 127 462 127 542 93 c 128,-1,46
 622 59 622 59 739 59 c 0,47,48
 869 59 869 59 955 102.5 c 128,-1,49
 1041 146 1041 146 1092.5 226 c 128,-1,50
 1144 306 1144 306 1165 419 c 128,-1,51
 1186 532 1186 532 1186 672 c 0,40,41
EndSplineSet
EndChar

StartChar: Thorn
Encoding: 222 222 158
Width: 1139
Flags: W
LayerCount: 2
Fore
SplineSet
858 686 m 0,0,1
 858 766 858 766 840.5 826 c 128,-1,2
 823 886 823 886 783.5 926 c 128,-1,3
 744 966 744 966 680 986 c 128,-1,4
 616 1006 616 1006 522 1006 c 2,5,-1
 424 1006 l 1,6,-1
 424 346 l 1,7,-1
 528 346 l 2,8,9
 622 346 622 346 685.5 370.5 c 128,-1,10
 749 395 749 395 787.5 439.5 c 128,-1,11
 826 484 826 484 842 546.5 c 128,-1,12
 858 609 858 609 858 686 c 0,0,1
565 1083 m 2,13,14
 706 1083 706 1083 800.5 1052.5 c 128,-1,15
 895 1022 895 1022 952 968.5 c 128,-1,16
 1009 915 1009 915 1033 843 c 128,-1,17
 1057 771 1057 771 1057 688 c 0,18,19
 1057 606 1057 606 1033.5 530 c 128,-1,20
 1010 454 1010 454 954.5 396 c 128,-1,21
 899 338 899 338 806 303 c 128,-1,22
 713 268 713 268 575 268 c 2,23,-1
 424 268 l 1,24,-1
 424 80 l 1,25,-1
 596 53 l 1,26,-1
 596 0 l 1,27,-1
 72 0 l 1,28,-1
 72 53 l 1,29,-1
 231 80 l 1,30,-1
 231 1262 l 1,31,-1
 72 1288 l 1,32,-1
 72 1341 l 1,33,-1
 596 1341 l 1,34,-1
 596 1288 l 1,35,-1
 424 1262 l 1,36,-1
 424 1083 l 1,37,-1
 565 1083 l 2,13,14
EndSplineSet
EndChar

StartChar: germandbls
Encoding: 223 223 159
Width: 1024
Flags: W
LayerCount: 2
Fore
SplineSet
877 997 m 1,0,1
 832 992 832 992 784.5 985.5 c 128,-1,2
 737 979 737 979 699 961 c 128,-1,3
 661 943 661 943 636.5 910 c 128,-1,4
 612 877 612 877 612 819 c 0,5,6
 612 755 612 755 637 712.5 c 128,-1,7
 662 670 662 670 700 636 c 128,-1,8
 738 602 738 602 782 571 c 128,-1,9
 826 540 826 540 864 499 c 128,-1,10
 902 458 902 458 927 400 c 128,-1,11
 952 342 952 342 952 256 c 0,12,13
 952 193 952 193 935 142 c 128,-1,14
 918 91 918 91 881.5 55 c 128,-1,15
 845 19 845 19 788 -0.5 c 128,-1,16
 731 -20 731 -20 651 -20 c 0,17,18
 619 -20 619 -20 585.5 -16.5 c 128,-1,19
 552 -13 552 -13 520.5 -7 c 128,-1,20
 489 -1 489 -1 462.5 7.5 c 128,-1,21
 436 16 436 16 418 27 c 1,22,-1
 418 219 l 1,23,-1
 463 219 l 1,24,-1
 496 125 l 1,25,26
 519 97 519 97 558.5 78 c 128,-1,27
 598 59 598 59 649 59 c 0,28,29
 720 59 720 59 759.5 99.5 c 128,-1,30
 799 140 799 140 799 225 c 0,31,32
 799 295 799 295 774 340.5 c 128,-1,33
 749 386 749 386 712 420.5 c 128,-1,34
 675 455 675 455 631 485 c 128,-1,35
 587 515 587 515 550 554 c 128,-1,36
 513 593 513 593 488 647 c 128,-1,37
 463 701 463 701 463 784 c 0,38,39
 463 846 463 846 482.5 891.5 c 128,-1,40
 502 937 502 937 535.5 968.5 c 128,-1,41
 569 1000 569 1000 614.5 1019 c 128,-1,42
 660 1038 660 1038 713 1047 c 1,43,44
 713 1137 713 1137 701.5 1197 c 128,-1,45
 690 1257 690 1257 666.5 1294 c 128,-1,46
 643 1331 643 1331 606.5 1346.5 c 128,-1,47
 570 1362 570 1362 520 1362 c 0,48,49
 477 1362 477 1362 441.5 1349 c 128,-1,50
 406 1336 406 1336 380.5 1306 c 128,-1,51
 355 1276 355 1276 340.5 1228 c 128,-1,52
 326 1180 326 1180 326 1110 c 2,53,-1
 326 0 l 1,54,-1
 20 0 l 1,55,-1
 20 45 l 1,56,-1
 160 70 l 1,57,-1
 160 1061 l 2,58,59
 160 1167 160 1167 187 1239.5 c 128,-1,60
 214 1312 214 1312 262 1357 c 128,-1,61
 310 1402 310 1402 376 1422 c 128,-1,62
 442 1442 442 1442 520 1442 c 0,63,64
 607 1442 607 1442 673.5 1419 c 128,-1,65
 740 1396 740 1396 785.5 1343.5 c 128,-1,66
 831 1291 831 1291 854 1206 c 128,-1,67
 877 1121 877 1121 877 997 c 1,0,1
EndSplineSet
EndChar

StartChar: ae
Encoding: 230 230 166
Width: 1366
Flags: W
LayerCount: 2
Fore
SplineSet
764 473 m 1,0,-1
 764 383 l 1,1,2
 765 321 765 321 773 267 c 128,-1,3
 781 213 781 213 807 172 c 128,-1,4
 833 131 833 131 882 107.5 c 128,-1,5
 931 84 931 84 1012 84 c 0,6,7
 1042 84 1042 84 1075 86.5 c 128,-1,8
 1108 89 1108 89 1141 93 c 128,-1,9
 1174 97 1174 97 1205 102 c 128,-1,10
 1236 107 1236 107 1262 113 c 1,11,-1
 1262 57 l 1,12,13
 1239 42 1239 42 1208 28.5 c 128,-1,14
 1177 15 1177 15 1140 4 c 128,-1,15
 1103 -7 1103 -7 1060.5 -13.5 c 128,-1,16
 1018 -20 1018 -20 973 -20 c 0,17,18
 858 -20 858 -20 777 13 c 128,-1,19
 696 46 696 46 651 109 c 1,20,21
 624 85 624 85 589.5 62 c 128,-1,22
 555 39 555 39 513 20.5 c 128,-1,23
 471 2 471 2 421 -9 c 128,-1,24
 371 -20 371 -20 313 -20 c 0,25,26
 245 -20 245 -20 198.5 1 c 128,-1,27
 152 22 152 22 124 59.5 c 128,-1,28
 96 97 96 97 84 148.5 c 128,-1,29
 72 200 72 200 72 260 c 0,30,31
 72 322 72 322 87 367.5 c 128,-1,32
 102 413 102 413 129 444 c 128,-1,33
 156 475 156 475 192.5 494.5 c 128,-1,34
 229 514 229 514 271.5 525 c 128,-1,35
 314 536 314 536 361.5 540 c 128,-1,36
 409 544 409 544 457 545 c 2,37,-1
 598 549 l 1,38,-1
 598 696 l 2,39,40
 598 738 598 738 591 772.5 c 128,-1,41
 584 807 584 807 567.5 832 c 128,-1,42
 551 857 551 857 523 871 c 128,-1,43
 495 885 495 885 453 885 c 0,44,45
 405 885 405 885 356 872 c 128,-1,46
 307 859 307 859 270 838 c 1,47,-1
 236 721 l 1,48,-1
 180 721 l 1,49,-1
 180 926 l 1,50,51
 245 940 245 940 314.5 950.5 c 128,-1,52
 384 961 384 961 465 961 c 0,53,54
 540 961 540 961 601 945 c 128,-1,55
 662 929 662 929 702 887 c 1,56,57
 747 927 747 927 808 946 c 128,-1,58
 869 965 869 965 946 965 c 0,59,60
 1018 965 1018 965 1082 945 c 128,-1,61
 1146 925 1146 925 1194 878 c 128,-1,62
 1242 831 1242 831 1270 752 c 128,-1,63
 1298 673 1298 673 1298 555 c 2,64,-1
 1298 473 l 1,65,-1
 764 473 l 1,0,-1
381 90 m 0,66,67
 449 90 449 90 510.5 110 c 128,-1,68
 572 130 572 130 625 158 c 1,69,70
 619 169 619 169 614.5 187 c 128,-1,71
 610 205 610 205 606 227 c 128,-1,72
 602 249 602 249 600 272.5 c 128,-1,73
 598 296 598 296 598 319 c 2,74,-1
 598 479 l 1,75,-1
 467 475 l 2,76,77
 408 473 408 473 365 463.5 c 128,-1,78
 322 454 322 454 294 431 c 128,-1,79
 266 408 266 408 252 368 c 128,-1,80
 238 328 238 328 238 266 c 0,81,82
 238 90 238 90 381 90 c 0,66,67
946 885 m 0,83,84
 890 885 890 885 854.5 861.5 c 128,-1,85
 819 838 819 838 799 795 c 128,-1,86
 779 752 779 752 771.5 690.5 c 128,-1,87
 764 629 764 629 764 553 c 1,88,-1
 1124 553 l 1,89,90
 1124 629 1124 629 1115 690.5 c 128,-1,91
 1106 752 1106 752 1085.5 795 c 128,-1,92
 1065 838 1065 838 1031 861.5 c 128,-1,93
 997 885 997 885 946 885 c 0,83,84
EndSplineSet
EndChar

StartChar: eth
Encoding: 240 240 176
Width: 1024
Flags: W
LayerCount: 2
Fore
SplineSet
229 1102 m 1,0,-1
 457 1233 l 1,1,2
 410 1267 410 1267 356.5 1295 c 128,-1,3
 303 1323 303 1323 238 1343 c 1,4,-1
 238 1421 l 1,5,6
 324 1400 324 1400 403 1367.5 c 128,-1,7
 482 1335 482 1335 553 1288 c 1,8,-1
 819 1444 l 1,9,-1
 819 1350 l 1,10,-1
 625 1235 l 1,11,12
 698 1176 698 1176 756 1099.5 c 128,-1,13
 814 1023 814 1023 855.5 929 c 128,-1,14
 897 835 897 835 919.5 722.5 c 128,-1,15
 942 610 942 610 944 479 c 0,16,17
 944 471 944 471 945 462.5 c 128,-1,18
 946 454 946 454 946 444 c 0,19,20
 946 220 946 220 839 100 c 128,-1,21
 732 -20 732 -20 506 -20 c 0,22,23
 294 -20 294 -20 186 99 c 128,-1,24
 78 218 78 218 78 444 c 0,25,26
 78 667 78 667 186 785 c 128,-1,27
 294 903 294 903 514 903 c 0,28,29
 623 903 623 903 711 868 c 1,30,31
 691 942 691 942 646 1023.5 c 128,-1,32
 601 1105 601 1105 524 1178 c 1,33,-1
 229 1006 l 1,34,-1
 229 1102 l 1,0,-1
766 444 m 256,35,36
 766 534 766 534 753 604.5 c 128,-1,37
 740 675 740 675 709.5 723.5 c 128,-1,38
 679 772 679 772 629 797.5 c 128,-1,39
 579 823 579 823 506 823 c 0,40,41
 432 823 432 823 384 797.5 c 128,-1,42
 336 772 336 772 308 723.5 c 128,-1,43
 280 675 280 675 269 604.5 c 128,-1,44
 258 534 258 534 258 444 c 256,45,46
 258 354 258 354 269 282.5 c 128,-1,47
 280 211 280 211 308 161.5 c 128,-1,48
 336 112 336 112 384 85.5 c 128,-1,49
 432 59 432 59 506 59 c 0,50,51
 579 59 579 59 629 85.5 c 128,-1,52
 679 112 679 112 709.5 161.5 c 128,-1,53
 740 211 740 211 753 282.5 c 128,-1,54
 766 354 766 354 766 444 c 256,35,36
EndSplineSet
EndChar

StartChar: divide
Encoding: 247 247 183
Width: 1124
Flags: W
LayerCount: 2
Fore
SplineSet
657 1063 m 256,0,1
 657 1023 657 1023 629 995 c 128,-1,2
 601 967 601 967 561 967 c 0,3,4
 520 967 520 967 492 995 c 128,-1,5
 464 1023 464 1023 464 1063 c 256,6,7
 464 1103 464 1103 492 1131 c 128,-1,8
 520 1159 520 1159 561 1159 c 0,9,10
 601 1159 601 1159 629 1131 c 128,-1,11
 657 1103 657 1103 657 1063 c 256,0,1
657 297 m 256,12,13
 657 257 657 257 629 229 c 128,-1,14
 601 201 601 201 561 201 c 0,15,16
 520 201 520 201 492 229 c 128,-1,17
 464 257 464 257 464 297 c 256,18,19
 464 337 464 337 492 365 c 128,-1,20
 520 393 520 393 561 393 c 0,21,22
 601 393 601 393 629 365 c 128,-1,23
 657 337 657 337 657 297 c 256,12,13
1038 731 m 1,24,-1
 1038 629 l 1,25,-1
 85 629 l 1,26,-1
 85 731 l 1,27,-1
 1038 731 l 1,24,-1
EndSplineSet
EndChar

StartChar: oslash
Encoding: 248 248 184
Width: 1024
Flags: W
LayerCount: 2
Fore
SplineSet
952 1022 m 1,0,-1
 829 848 l 1,1,2
 886 786 886 786 916 693 c 128,-1,3
 946 600 946 600 946 475 c 0,4,5
 946 236 946 236 839 108 c 128,-1,6
 732 -20 732 -20 506 -20 c 0,7,8
 361 -20 361 -20 264 39 c 1,9,-1
 178 -84 l 1,10,-1
 70 -84 l 1,11,-1
 197 94 l 1,12,13
 137 157 137 157 107.5 252.5 c 128,-1,14
 78 348 78 348 78 475 c 0,15,16
 78 713 78 713 186 839 c 128,-1,17
 294 965 294 965 514 965 c 0,18,19
 663 965 663 965 764 901 c 1,20,-1
 848 1022 l 1,21,-1
 952 1022 l 1,0,-1
258 475 m 0,22,23
 258 400 258 400 264.5 336.5 c 128,-1,24
 271 273 271 273 287 223 c 1,25,-1
 692 801 l 1,26,27
 661 843 661 843 616 864 c 128,-1,28
 571 885 571 885 506 885 c 0,29,30
 432 885 432 885 384 857.5 c 128,-1,31
 336 830 336 830 308 777.5 c 128,-1,32
 280 725 280 725 269 648.5 c 128,-1,33
 258 572 258 572 258 475 c 0,22,23
766 475 m 0,34,35
 766 546 766 546 758.5 606.5 c 128,-1,36
 751 667 751 667 735 715 c 1,37,-1
 330 135 l 1,38,39
 359 98 359 98 401.5 78.5 c 128,-1,40
 444 59 444 59 506 59 c 0,41,42
 579 59 579 59 629 87.5 c 128,-1,43
 679 116 679 116 709.5 169.5 c 128,-1,44
 740 223 740 223 753 300 c 128,-1,45
 766 377 766 377 766 475 c 0,34,35
EndSplineSet
EndChar

StartChar: thorn
Encoding: 254 254 190
Width: 1024
Flags: W
LayerCount: 2
Fore
SplineSet
758 481 m 0,0,1
 758 583 758 583 742 655 c 128,-1,2
 726 727 726 727 694.5 772.5 c 128,-1,3
 663 818 663 818 617 839 c 128,-1,4
 571 860 571 860 512 860 c 0,5,6
 464 860 464 860 409.5 851.5 c 128,-1,7
 355 843 355 843 317 827 c 1,8,-1
 317 76 l 1,9,10
 359 68 359 68 410 63.5 c 128,-1,11
 461 59 461 59 512 59 c 0,12,13
 578 59 578 59 624.5 87 c 128,-1,14
 671 115 671 115 701 169 c 128,-1,15
 731 223 731 223 744.5 301.5 c 128,-1,16
 758 380 758 380 758 481 c 0,0,1
152 1352 m 1,17,-1
 14 1376 l 1,18,-1
 14 1421 l 1,19,-1
 317 1421 l 1,20,-1
 317 1085 l 2,21,22
 317 1066 317 1066 316.5 1041 c 128,-1,23
 316 1016 316 1016 315.5 989.5 c 128,-1,24
 315 963 315 963 313.5 936 c 128,-1,25
 312 909 312 909 311 885 c 1,26,27
 332 903 332 903 360.5 917.5 c 128,-1,28
 389 932 389 932 422 942.5 c 128,-1,29
 455 953 455 953 492 959 c 128,-1,30
 529 965 529 965 567 965 c 0,31,32
 655 965 655 965 725 934 c 128,-1,33
 795 903 795 903 844 841.5 c 128,-1,34
 893 780 893 780 918.5 689.5 c 128,-1,35
 944 599 944 599 944 481 c 0,36,37
 944 366 944 366 918 273.5 c 128,-1,38
 892 181 892 181 840 115.5 c 128,-1,39
 788 50 788 50 709.5 15 c 128,-1,40
 631 -20 631 -20 526 -20 c 0,41,42
 475 -20 475 -20 418.5 -14.5 c 128,-1,43
 362 -9 362 -9 311 2 c 1,44,45
 312 -10 312 -10 313.5 -25.5 c 128,-1,46
 315 -41 315 -41 315.5 -57.5 c 128,-1,47
 316 -74 316 -74 316.5 -88 c 128,-1,48
 317 -102 317 -102 317 -111 c 2,49,-1
 317 -365 l 1,50,-1
 481 -389 l 1,51,-1
 481 -436 l 1,52,-1
 33 -436 l 1,53,-1
 33 -389 l 1,54,-1
 152 -365 l 1,55,-1
 152 1352 l 1,17,-1
EndSplineSet
EndChar

StartChar: dcroat
Encoding: 273 273 209
Width: 1024
Flags: W
LayerCount: 2
Fore
SplineSet
723 70 m 1,0,1
 679 35 679 35 613.5 7.5 c 128,-1,2
 548 -20 548 -20 459 -20 c 0,3,4
 74 -20 74 -20 74 461 c 0,5,6
 74 578 74 578 99.5 671.5 c 128,-1,7
 125 765 125 765 178 830.5 c 128,-1,8
 231 896 231 896 312 930.5 c 128,-1,9
 393 965 393 965 504 965 c 0,10,11
 555 965 555 965 612.5 959 c 128,-1,12
 670 953 670 953 723 942 c 1,13,14
 721 953 721 953 720 971.5 c 128,-1,15
 719 990 719 990 718.5 1010.5 c 128,-1,16
 718 1031 718 1031 717.5 1052 c 128,-1,17
 717 1073 717 1073 717 1088 c 2,18,-1
 717 1112 l 1,19,-1
 442 1112 l 1,20,-1
 442 1196 l 1,21,-1
 717 1196 l 1,22,-1
 717 1352 l 1,23,-1
 559 1376 l 1,24,-1
 559 1421 l 1,25,-1
 883 1421 l 1,26,-1
 883 1196 l 1,27,-1
 1020 1196 l 1,28,-1
 1020 1112 l 1,29,-1
 883 1112 l 1,30,-1
 883 70 l 1,31,-1
 999 45 l 1,32,-1
 999 0 l 1,33,-1
 735 0 l 1,34,-1
 723 70 l 1,0,1
254 461 m 0,35,36
 254 356 254 356 272.5 284 c 128,-1,37
 291 212 291 212 325 167.5 c 128,-1,38
 359 123 359 123 407 103.5 c 128,-1,39
 455 84 455 84 514 84 c 0,40,41
 574 84 574 84 627 95.5 c 128,-1,42
 680 107 680 107 717 123 c 1,43,-1
 717 866 l 1,44,45
 675 874 675 874 620 878.5 c 128,-1,46
 565 883 565 883 514 883 c 0,47,48
 381 883 381 883 317.5 776 c 128,-1,49
 254 669 254 669 254 461 c 0,35,36
EndSplineSet
EndChar

StartChar: Hbar
Encoding: 294 294 230
Width: 1479
Flags: W
LayerCount: 2
Fore
SplineSet
59 0 m 1,0,-1
 59 53 l 1,1,-1
 231 80 l 1,2,-1
 231 957 l 1,3,-1
 60 957 l 1,4,-1
 60 1039 l 1,5,-1
 231 1039 l 1,6,-1
 231 1262 l 1,7,-1
 59 1288 l 1,8,-1
 59 1341 l 1,9,-1
 596 1341 l 1,10,-1
 596 1288 l 1,11,-1
 424 1262 l 1,12,-1
 424 1039 l 1,13,-1
 1055 1039 l 1,14,-1
 1055 1262 l 1,15,-1
 883 1288 l 1,16,-1
 883 1341 l 1,17,-1
 1419 1341 l 1,18,-1
 1419 1288 l 1,19,-1
 1247 1262 l 1,20,-1
 1247 1039 l 1,21,-1
 1420 1039 l 1,22,-1
 1420 957 l 1,23,-1
 1247 957 l 1,24,-1
 1247 80 l 1,25,-1
 1419 53 l 1,26,-1
 1419 0 l 1,27,-1
 883 0 l 1,28,-1
 883 53 l 1,29,-1
 1055 80 l 1,30,-1
 1055 645 l 1,31,-1
 424 645 l 1,32,-1
 424 80 l 1,33,-1
 596 53 l 1,34,-1
 596 0 l 1,35,-1
 59 0 l 1,0,-1
1055 735 m 1,36,-1
 1055 957 l 1,37,-1
 424 957 l 1,38,-1
 424 735 l 1,39,-1
 1055 735 l 1,36,-1
EndSplineSet
EndChar

StartChar: hbar
Encoding: 295 295 231
Width: 1024
Flags: W
LayerCount: 2
Fore
SplineSet
326 1196 m 1,0,-1
 601 1196 l 1,1,-1
 601 1112 l 1,2,-1
 326 1112 l 1,3,-1
 326 1014 l 2,4,5
 326 1000 326 1000 325.5 980 c 128,-1,6
 325 960 325 960 324.5 938.5 c 128,-1,7
 324 917 324 917 322.5 897 c 128,-1,8
 321 877 321 877 319 864 c 1,9,10
 347 880 347 880 387 898 c 128,-1,11
 427 916 427 916 470.5 931 c 128,-1,12
 514 946 514 946 557.5 955.5 c 128,-1,13
 601 965 601 965 637 965 c 0,14,15
 691 965 691 965 736 950 c 128,-1,16
 781 935 781 935 813.5 902 c 128,-1,17
 846 869 846 869 864.5 816 c 128,-1,18
 883 763 883 763 883 688 c 2,19,-1
 883 70 l 1,20,-1
 997 45 l 1,21,-1
 997 0 l 1,22,-1
 592 0 l 1,23,-1
 592 45 l 1,24,-1
 717 70 l 1,25,-1
 717 676 l 2,26,27
 717 759 717 759 676.5 803.5 c 128,-1,28
 636 848 636 848 551 848 c 0,29,30
 523 848 523 848 491.5 845 c 128,-1,31
 460 842 460 842 429 838 c 128,-1,32
 398 834 398 834 371 828.5 c 128,-1,33
 344 823 344 823 326 819 c 1,34,-1
 326 70 l 1,35,-1
 453 45 l 1,36,-1
 453 0 l 1,37,-1
 41 0 l 1,38,-1
 41 45 l 1,39,-1
 160 70 l 1,40,-1
 160 1112 l 1,41,-1
 23 1112 l 1,42,-1
 23 1196 l 1,43,-1
 160 1196 l 1,44,-1
 160 1352 l 1,45,-1
 20 1376 l 1,46,-1
 20 1421 l 1,47,-1
 326 1421 l 1,48,-1
 326 1196 l 1,0,-1
EndSplineSet
EndChar

StartChar: dotlessi
Encoding: 305 305 241
Width: 569
Flags: W
LayerCount: 2
Fore
SplineSet
369 70 m 1,0,-1
 530 45 l 1,1,-1
 530 0 l 1,2,-1
 43 0 l 1,3,-1
 43 45 l 1,4,-1
 203 70 l 1,5,-1
 203 870 l 1,6,-1
 70 895 l 1,7,-1
 70 940 l 1,8,-1
 369 940 l 1,9,-1
 369 70 l 1,0,-1
EndSplineSet
EndChar

StartChar: jcircumflex
Encoding: 309 309 245
Width: 569
Flags: W
LayerCount: 2
Fore
SplineSet
383 -39 m 2,0,1
 383 -145 383 -145 361.5 -220.5 c 128,-1,2
 340 -296 340 -296 300.5 -344 c 128,-1,3
 261 -392 261 -392 206.5 -414 c 128,-1,4
 152 -436 152 -436 86 -436 c 0,5,6
 42 -436 42 -436 10 -431 c 128,-1,7
 -22 -426 -22 -426 -59 -418 c 1,8,-1
 -59 -219 l 1,9,-1
 -12 -219 l 1,10,-1
 15 -328 l 1,11,12
 48 -356 48 -356 98 -356 c 0,13,14
 157 -356 157 -356 187 -293 c 128,-1,15
 217 -230 217 -230 217 -90 c 2,16,-1
 217 870 l 1,17,-1
 76 895 l 1,18,-1
 76 940 l 1,19,-1
 383 940 l 1,20,-1
 383 -39 l 2,0,1
-39 1119 m 1,21,-1
 -39 1152 l 1,22,-1
 179 1425 l 1,23,-1
 392 1425 l 1,24,-1
 609 1152 l 1,25,-1
 609 1119 l 1,26,-1
 553 1119 l 1,27,-1
 285 1302 l 1,28,-1
 17 1119 l 1,29,-1
 -39 1119 l 1,21,-1
EndSplineSet
EndChar

StartChar: kgreenlandic
Encoding: 312 312 248
Width: 1024
Flags: W
LayerCount: 2
Fore
SplineSet
344 453 m 1,0,-1
 729 868 l 1,1,-1
 631 895 l 1,2,-1
 631 940 l 1,3,-1
 963 940 l 1,4,-1
 963 895 l 1,5,-1
 846 872 l 1,6,-1
 578 598 l 1,7,-1
 922 68 l 1,8,-1
 1024 45 l 1,9,-1
 1024 0 l 1,10,-1
 639 0 l 1,11,-1
 639 45 l 1,12,-1
 725 70 l 1,13,-1
 467 475 l 1,14,-1
 344 340 l 1,15,-1
 344 70 l 1,16,-1
 444 45 l 1,17,-1
 444 0 l 1,18,-1
 59 0 l 1,19,-1
 59 45 l 1,20,-1
 178 70 l 1,21,-1
 178 871 l 1,22,-1
 39 895 l 1,23,-1
 39 940 l 1,24,-1
 344 940 l 1,25,-1
 344 453 l 1,0,-1
EndSplineSet
EndChar

StartChar: Lslash
Encoding: 321 321 257
Width: 1251
Flags: W
LayerCount: 2
Fore
SplineSet
43 518 m 1,0,-1
 231 627 l 1,1,-1
 231 1262 l 1,2,-1
 59 1288 l 1,3,-1
 59 1341 l 1,4,-1
 631 1341 l 1,5,-1
 631 1288 l 1,6,-1
 424 1262 l 1,7,-1
 424 737 l 1,8,-1
 731 915 l 1,9,-1
 731 821 l 1,10,-1
 424 643 l 1,11,-1
 424 86 l 1,12,-1
 688 86 l 2,13,14
 813 86 813 86 892 93 c 128,-1,15
 971 100 971 100 1001 106 c 1,16,-1
 1063 385 l 1,17,-1
 1128 385 l 1,18,-1
 1110 0 l 1,19,-1
 59 0 l 1,20,-1
 59 53 l 1,21,-1
 231 80 l 1,22,-1
 231 532 l 1,23,-1
 43 422 l 1,24,-1
 43 518 l 1,0,-1
EndSplineSet
EndChar

StartChar: lslash
Encoding: 322 322 258
Width: 569
Flags: W
LayerCount: 2
Fore
SplineSet
20 518 m 1,0,-1
 201 621 l 1,1,-1
 201 1352 l 1,2,-1
 41 1376 l 1,3,-1
 41 1421 l 1,4,-1
 367 1421 l 1,5,-1
 367 717 l 1,6,-1
 559 829 l 1,7,-1
 559 735 l 1,8,-1
 367 623 l 1,9,-1
 367 70 l 1,10,-1
 528 45 l 1,11,-1
 528 0 l 1,12,-1
 41 0 l 1,13,-1
 41 45 l 1,14,-1
 201 70 l 1,15,-1
 201 526 l 1,16,-1
 20 422 l 1,17,-1
 20 518 l 1,0,-1
EndSplineSet
EndChar

StartChar: Eng
Encoding: 330 330 266
Width: 1437
Flags: W
LayerCount: 2
Fore
SplineSet
1090 950 m 2,0,1
 1090 1036 1090 1036 1069.5 1091 c 128,-1,2
 1049 1146 1049 1146 1014.5 1177 c 128,-1,3
 980 1208 980 1208 934 1219.5 c 128,-1,4
 888 1231 888 1231 837 1231 c 0,5,6
 787 1231 787 1231 733 1221.5 c 128,-1,7
 679 1212 679 1212 625.5 1196 c 128,-1,8
 572 1180 572 1180 520.5 1158.5 c 128,-1,9
 469 1137 469 1137 424 1114 c 1,10,-1
 424 80 l 1,11,-1
 596 53 l 1,12,-1
 596 0 l 1,13,-1
 59 0 l 1,14,-1
 59 53 l 1,15,-1
 231 80 l 1,16,-1
 231 1262 l 1,17,-1
 59 1288 l 1,18,-1
 59 1341 l 1,19,-1
 422 1341 l 1,20,-1
 424 1201 l 1,21,22
 465 1224 465 1224 522 1250 c 128,-1,23
 579 1276 579 1276 644.5 1298.5 c 128,-1,24
 710 1321 710 1321 779 1336 c 128,-1,25
 848 1351 848 1351 913 1351 c 0,26,27
 1015 1351 1015 1351 1085 1326.5 c 128,-1,28
 1155 1302 1155 1302 1198.5 1253 c 128,-1,29
 1242 1204 1242 1204 1261.5 1130.5 c 128,-1,30
 1281 1057 1281 1057 1281 959 c 2,31,-1
 1281 432 l 2,32,33
 1281 341 1281 341 1264 272 c 128,-1,34
 1247 203 1247 203 1219 153 c 128,-1,35
 1191 103 1191 103 1154.5 69.5 c 128,-1,36
 1118 36 1118 36 1079 16 c 128,-1,37
 1040 -4 1040 -4 1001 -12 c 128,-1,38
 962 -20 962 -20 929 -20 c 0,39,40
 864 -20 864 -20 811.5 -12 c 128,-1,41
 759 -4 759 -4 722 10 c 1,42,-1
 722 254 l 1,43,-1
 788 254 l 1,44,-1
 818 115 l 1,45,46
 837 92 837 92 872 79 c 128,-1,47
 907 66 907 66 949 66 c 0,48,49
 1018 66 1018 66 1054 114 c 128,-1,50
 1090 162 1090 162 1090 256 c 2,51,-1
 1090 950 l 2,0,1
EndSplineSet
EndChar

StartChar: eng
Encoding: 331 331 267
Width: 1013
Flags: W
LayerCount: 2
Fore
SplineSet
833 -39 m 2,0,1
 833 -145 833 -145 811.5 -220.5 c 128,-1,2
 790 -296 790 -296 750.5 -344 c 128,-1,3
 711 -392 711 -392 656.5 -414 c 128,-1,4
 602 -436 602 -436 536 -436 c 0,5,6
 492 -436 492 -436 460 -431 c 128,-1,7
 428 -426 428 -426 391 -418 c 1,8,-1
 391 -219 l 1,9,-1
 438 -219 l 1,10,-1
 465 -328 l 1,11,12
 498 -356 498 -356 548 -356 c 0,13,14
 607 -356 607 -356 637 -293 c 128,-1,15
 667 -230 667 -230 667 -90 c 2,16,-1
 667 670 l 2,17,18
 667 753 667 753 632 800.5 c 128,-1,19
 597 848 597 848 522 848 c 0,20,21
 498 848 498 848 470.5 845 c 128,-1,22
 443 842 443 842 416 838 c 128,-1,23
 389 834 389 834 365.5 828.5 c 128,-1,24
 342 823 342 823 326 819 c 1,25,-1
 326 70 l 1,26,-1
 453 45 l 1,27,-1
 453 0 l 1,28,-1
 47 0 l 1,29,-1
 47 45 l 1,30,-1
 160 70 l 1,31,-1
 160 870 l 1,32,-1
 47 895 l 1,33,-1
 47 940 l 1,34,-1
 315 940 l 1,35,-1
 324 864 l 1,36,37
 349 880 349 880 384.5 898 c 128,-1,38
 420 916 420 916 459 931 c 128,-1,39
 498 946 498 946 537 955.5 c 128,-1,40
 576 965 576 965 609 965 c 0,41,42
 658 965 658 965 699 950 c 128,-1,43
 740 935 740 935 770 902 c 128,-1,44
 800 869 800 869 816.5 816 c 128,-1,45
 833 763 833 763 833 688 c 2,46,-1
 833 -39 l 2,0,1
EndSplineSet
EndChar

StartChar: OE
Encoding: 338 338 274
Width: 1821
Flags: W
LayerCount: 2
Fore
SplineSet
1016 0 m 2,0,1
 968 0 968 0 928.5 -1 c 128,-1,2
 889 -2 889 -2 856 -3 c 128,-1,3
 823 -4 823 -4 794.5 -5 c 128,-1,4
 766 -6 766 -6 739 -6 c 0,5,6
 586 -6 586 -6 465 33 c 128,-1,7
 344 72 344 72 259 154.5 c 128,-1,8
 174 237 174 237 129 365.5 c 128,-1,9
 84 494 84 494 84 672 c 256,10,11
 84 850 84 850 127.5 978 c 128,-1,12
 171 1106 171 1106 254 1188 c 128,-1,13
 337 1270 337 1270 459 1309 c 128,-1,14
 581 1348 581 1348 739 1348 c 0,15,16
 779 1348 779 1348 814 1347 c 128,-1,17
 849 1346 849 1346 882 1344.5 c 128,-1,18
 915 1343 915 1343 946.5 1342 c 128,-1,19
 978 1341 978 1341 1012 1341 c 2,20,-1
 1634 1341 l 1,21,-1
 1634 1020 l 1,22,-1
 1569 1020 l 1,23,-1
 1536 1237 l 1,24,25
 1504 1241 1504 1241 1458.5 1244 c 128,-1,26
 1413 1247 1413 1247 1366 1248.5 c 128,-1,27
 1319 1250 1319 1250 1277 1250.5 c 128,-1,28
 1235 1251 1235 1251 1212 1251 c 2,29,-1
 1075 1251 l 1,30,-1
 1075 727 l 1,31,-1
 1356 727 l 1,32,-1
 1386 887 l 1,33,-1
 1450 887 l 1,34,-1
 1450 475 l 1,35,-1
 1386 475 l 1,36,-1
 1356 637 l 1,37,-1
 1075 637 l 1,38,-1
 1075 90 l 1,39,-1
 1257 90 l 2,40,41
 1319 90 1319 90 1374 91.5 c 128,-1,42
 1429 93 1429 93 1473 95 c 128,-1,43
 1517 97 1517 97 1548.5 100 c 128,-1,44
 1580 103 1580 103 1595 106 c 1,45,-1
 1653 354 l 1,46,-1
 1718 354 l 1,47,-1
 1700 0 l 1,48,-1
 1016 0 l 2,0,1
739 74 m 0,49,50
 768 74 768 74 808.5 76.5 c 128,-1,51
 849 79 849 79 881 84 c 1,52,-1
 881 1257 l 1,53,54
 849 1264 849 1264 816 1266 c 128,-1,55
 783 1268 783 1268 739 1268 c 0,56,57
 609 1268 609 1268 523 1227 c 128,-1,58
 437 1186 437 1186 386 1109.5 c 128,-1,59
 335 1033 335 1033 314 922 c 128,-1,60
 293 811 293 811 293 672 c 0,61,62
 293 532 293 532 314 421 c 128,-1,63
 335 310 335 310 386 233 c 128,-1,64
 437 156 437 156 523 115 c 128,-1,65
 609 74 609 74 739 74 c 0,49,50
EndSplineSet
EndChar

StartChar: oe
Encoding: 339 339 275
Width: 1479
Flags: W
LayerCount: 2
Fore
SplineSet
864 473 m 1,0,-1
 864 455 l 2,1,2
 864 382 864 382 874 315 c 128,-1,3
 884 248 884 248 913.5 196.5 c 128,-1,4
 943 145 943 145 996.5 114.5 c 128,-1,5
 1050 84 1050 84 1137 84 c 0,6,7
 1164 84 1164 84 1195 86.5 c 128,-1,8
 1226 89 1226 89 1256.5 93 c 128,-1,9
 1287 97 1287 97 1316.5 102 c 128,-1,10
 1346 107 1346 107 1370 113 c 1,11,-1
 1370 57 l 1,12,13
 1348 42 1348 42 1317 28.5 c 128,-1,14
 1286 15 1286 15 1248.5 4 c 128,-1,15
 1211 -7 1211 -7 1169.5 -13.5 c 128,-1,16
 1128 -20 1128 -20 1085 -20 c 0,17,18
 971 -20 971 -20 894.5 13 c 128,-1,19
 818 46 818 46 770 111 c 1,20,21
 671 -20 671 -20 465 -20 c 0,22,23
 272 -20 272 -20 175 106.5 c 128,-1,24
 78 233 78 233 78 475 c 0,25,26
 78 713 78 713 175.5 839 c 128,-1,27
 273 965 273 965 473 965 c 0,28,29
 573 965 573 965 648 930.5 c 128,-1,30
 723 896 723 896 772 829 c 1,31,32
 820 898 820 898 893.5 931.5 c 128,-1,33
 967 965 967 965 1063 965 c 0,34,35
 1134 965 1134 965 1197 945 c 128,-1,36
 1260 925 1260 925 1306.5 878 c 128,-1,37
 1353 831 1353 831 1380 752 c 128,-1,38
 1407 673 1407 673 1407 555 c 2,39,-1
 1407 473 l 1,40,-1
 864 473 l 1,0,-1
465 885 m 0,41,42
 403 885 403 885 363 857.5 c 128,-1,43
 323 830 323 830 300 777.5 c 128,-1,44
 277 725 277 725 267.5 648.5 c 128,-1,45
 258 572 258 572 258 475 c 0,46,47
 258 377 258 377 267.5 300 c 128,-1,48
 277 223 277 223 300 169.5 c 128,-1,49
 323 116 323 116 363 87.5 c 128,-1,50
 403 59 403 59 465 59 c 256,51,52
 527 59 527 59 569 87.5 c 128,-1,53
 611 116 611 116 636.5 169.5 c 128,-1,54
 662 223 662 223 673 300 c 128,-1,55
 684 377 684 377 684 475 c 2,56,-1
 684 502 l 1,57,58
 682 593 682 593 670.5 664.5 c 128,-1,59
 659 736 659 736 633 785 c 128,-1,60
 607 834 607 834 566 859.5 c 128,-1,61
 525 885 525 885 465 885 c 0,41,42
1063 885 m 0,62,63
 1012 885 1012 885 974.5 861.5 c 128,-1,64
 937 838 937 838 913 795 c 128,-1,65
 889 752 889 752 877.5 690.5 c 128,-1,66
 866 629 866 629 866 553 c 1,67,-1
 1233 553 l 1,68,69
 1233 629 1233 629 1225 690.5 c 128,-1,70
 1217 752 1217 752 1197.5 795 c 128,-1,71
 1178 838 1178 838 1145.5 861.5 c 128,-1,72
 1113 885 1113 885 1063 885 c 0,62,63
EndSplineSet
EndChar

StartChar: Tbar
Encoding: 358 358 294
Width: 1251
Flags: W
LayerCount: 2
Fore
SplineSet
315 0 m 1,0,-1
 315 53 l 1,1,-1
 528 80 l 1,2,-1
 528 629 l 1,3,-1
 207 629 l 1,4,-1
 207 711 l 1,5,-1
 528 711 l 1,6,-1
 528 1255 l 1,7,-1
 477 1255 l 2,8,9
 346 1255 346 1255 257 1249 c 128,-1,10
 168 1243 168 1243 131 1235 c 1,11,-1
 104 1026 l 1,12,-1
 37 1026 l 1,13,-1
 37 1341 l 1,14,-1
 1217 1341 l 1,15,-1
 1217 1026 l 1,16,-1
 1149 1026 l 1,17,-1
 1122 1235 l 1,18,19
 1104 1239 1104 1239 1068.5 1242 c 128,-1,20
 1033 1245 1033 1245 986 1247.5 c 128,-1,21
 939 1250 939 1250 883.5 1251.5 c 128,-1,22
 828 1253 828 1253 770 1253 c 2,23,-1
 721 1253 l 1,24,-1
 721 711 l 1,25,-1
 1045 711 l 1,26,-1
 1045 629 l 1,27,-1
 721 629 l 1,28,-1
 721 80 l 1,29,-1
 934 53 l 1,30,-1
 934 0 l 1,31,-1
 315 0 l 1,0,-1
EndSplineSet
EndChar

StartChar: tbar
Encoding: 359 359 295
Width: 569
Flags: W
LayerCount: 2
Fore
SplineSet
334 -20 m 0,0,1
 238 -20 238 -20 190.5 37 c 128,-1,2
 143 94 143 94 143 197 c 2,3,-1
 143 497 l 1,4,-1
 23 497 l 1,5,-1
 23 581 l 1,6,-1
 143 581 l 1,7,-1
 143 856 l 1,8,-1
 20 856 l 1,9,-1
 20 901 l 1,10,-1
 145 940 l 1,11,-1
 246 1153 l 1,12,-1
 309 1153 l 1,13,-1
 309 940 l 1,14,-1
 524 940 l 1,15,-1
 524 856 l 1,16,-1
 309 856 l 1,17,-1
 309 581 l 1,18,-1
 515 581 l 1,19,-1
 515 497 l 1,20,-1
 309 497 l 1,21,-1
 309 215 l 2,22,23
 309 150 309 150 338.5 117 c 128,-1,24
 368 84 368 84 416 84 c 0,25,26
 453 84 453 84 489.5 89 c 128,-1,27
 526 94 526 94 557 100 c 1,28,-1
 557 35 l 1,29,30
 542 25 542 25 517.5 15 c 128,-1,31
 493 5 493 5 463.5 -2.5 c 128,-1,32
 434 -10 434 -10 401 -15 c 128,-1,33
 368 -20 368 -20 334 -20 c 0,0,1
EndSplineSet
EndChar

StartChar: longs
Encoding: 383 383 319
Width: 569
Flags: W
LayerCount: 2
Fore
SplineSet
354 78 m 1,0,-1
 517 45 l 1,1,-1
 517 0 l 1,2,-1
 49 0 l 1,3,-1
 49 45 l 1,4,-1
 188 78 l 1,5,-1
 188 1010 l 2,6,7
 188 1116 188 1116 209.5 1196.5 c 128,-1,8
 231 1277 231 1277 271.5 1331.5 c 128,-1,9
 312 1386 312 1386 370.5 1414 c 128,-1,10
 429 1442 429 1442 502 1442 c 0,11,12
 547 1442 547 1442 582 1436.5 c 128,-1,13
 617 1431 617 1431 645 1423 c 1,14,-1
 645 1218 l 1,15,-1
 596 1218 l 1,16,-1
 551 1341 l 1,17,18
 535 1351 535 1351 516 1356.5 c 128,-1,19
 497 1362 497 1362 469 1362 c 0,20,21
 434 1362 434 1362 412 1346.5 c 128,-1,22
 390 1331 390 1331 377 1298.5 c 128,-1,23
 364 1266 364 1266 359 1216 c 128,-1,24
 354 1166 354 1166 354 1096 c 2,25,-1
 354 78 l 1,0,-1
EndSplineSet
EndChar

StartChar: florin
Encoding: 402 402 320
Width: 1024
Flags: W
LayerCount: 2
Fore
SplineSet
219 -285 m 1,0,-1
 356 702 l 1,1,-1
 195 702 l 1,2,-1
 203 752 l 1,3,-1
 369 786 l 1,4,-1
 401 1018 l 2,5,6
 412 1097 412 1097 440 1160.5 c 128,-1,7
 468 1224 468 1224 511.5 1269 c 128,-1,8
 555 1314 555 1314 612.5 1338 c 128,-1,9
 670 1362 670 1362 739 1362 c 0,10,11
 830 1362 830 1362 893 1343 c 1,12,-1
 893 1161 l 1,13,-1
 846 1161 l 1,14,-1
 813 1257 l 1,15,16
 782 1280 782 1280 727 1280 c 0,17,18
 684 1280 684 1280 657 1259 c 128,-1,19
 630 1238 630 1238 613 1201 c 128,-1,20
 596 1164 596 1164 586 1113 c 128,-1,21
 576 1062 576 1062 567 1001 c 2,22,-1
 537 786 l 1,23,-1
 786 786 l 1,24,-1
 772 702 l 1,25,-1
 524 702 l 1,26,-1
 381 -285 l 1,27,-1
 219 -285 l 1,0,-1
EndSplineSet
EndChar

StartChar: circumflex
Encoding: 710 710 327
Width: 682
Flags: W
LayerCount: 2
Fore
SplineSet
18 1119 m 1,0,-1
 18 1152 l 1,1,-1
 236 1425 l 1,2,-1
 449 1425 l 1,3,-1
 666 1152 l 1,4,-1
 666 1119 l 1,5,-1
 610 1119 l 1,6,-1
 342 1302 l 1,7,-1
 74 1119 l 1,8,-1
 18 1119 l 1,0,-1
EndSplineSet
EndChar

StartChar: caron
Encoding: 711 711 328
Width: 682
Flags: W
LayerCount: 2
Fore
SplineSet
74 1425 m 1,0,-1
 342 1242 l 1,1,-1
 610 1425 l 1,2,-1
 666 1425 l 1,3,-1
 666 1392 l 1,4,-1
 449 1119 l 1,5,-1
 236 1119 l 1,6,-1
 18 1392 l 1,7,-1
 18 1425 l 1,8,-1
 74 1425 l 1,0,-1
EndSplineSet
EndChar

StartChar: uni02C9
Encoding: 713 713 329
Width: 682
Flags: W
LayerCount: 2
Fore
SplineSet
27 1141 m 1,0,-1
 27 1250 l 1,1,-1
 655 1250 l 1,2,-1
 655 1141 l 1,3,-1
 27 1141 l 1,0,-1
EndSplineSet
EndChar

StartChar: breve
Encoding: 728 728 330
Width: 682
Flags: W
LayerCount: 2
Fore
SplineSet
340 1119 m 256,0,1
 267 1119 267 1119 213.5 1141 c 128,-1,2
 160 1163 160 1163 125 1201.5 c 128,-1,3
 90 1240 90 1240 72 1291 c 128,-1,4
 54 1342 54 1342 53 1399 c 1,5,-1
 127 1399 l 1,6,7
 136 1362 136 1362 156 1336 c 128,-1,8
 176 1310 176 1310 204.5 1293 c 128,-1,9
 233 1276 233 1276 267.5 1268 c 128,-1,10
 302 1260 302 1260 340 1260 c 0,11,12
 377 1260 377 1260 412 1268 c 128,-1,13
 447 1276 447 1276 475.5 1293 c 128,-1,14
 504 1310 504 1310 524 1336 c 128,-1,15
 544 1362 544 1362 553 1399 c 1,16,-1
 627 1399 l 1,17,18
 625 1342 625 1342 607.5 1291 c 128,-1,19
 590 1240 590 1240 555 1201.5 c 128,-1,20
 520 1163 520 1163 466.5 1141 c 128,-1,21
 413 1119 413 1119 340 1119 c 256,0,1
EndSplineSet
EndChar

StartChar: dotaccent
Encoding: 729 729 331
Width: 682
Flags: W
LayerCount: 2
Fore
SplineSet
452 1247 m 256,0,1
 452 1225 452 1225 443.5 1205.5 c 128,-1,2
 435 1186 435 1186 420 1171 c 128,-1,3
 405 1156 405 1156 385 1147.5 c 128,-1,4
 365 1139 365 1139 343 1139 c 256,5,6
 321 1139 321 1139 301.5 1147.5 c 128,-1,7
 282 1156 282 1156 267 1171 c 128,-1,8
 252 1186 252 1186 243.5 1205.5 c 128,-1,9
 235 1225 235 1225 235 1247 c 256,10,11
 235 1269 235 1269 243.5 1289 c 128,-1,12
 252 1309 252 1309 267 1324 c 128,-1,13
 282 1339 282 1339 301.5 1347.5 c 128,-1,14
 321 1356 321 1356 343 1356 c 256,15,16
 365 1356 365 1356 385 1347.5 c 128,-1,17
 405 1339 405 1339 420 1324 c 128,-1,18
 435 1309 435 1309 443.5 1289 c 128,-1,19
 452 1269 452 1269 452 1247 c 256,0,1
EndSplineSet
EndChar

StartChar: ring
Encoding: 730 730 332
Width: 682
Flags: W
LayerCount: 2
Fore
SplineSet
543 1280 m 256,0,1
 543 1238 543 1238 527 1201 c 128,-1,2
 511 1164 511 1164 483.5 1136.5 c 128,-1,3
 456 1109 456 1109 419 1093 c 128,-1,4
 382 1077 382 1077 340 1077 c 256,5,6
 298 1077 298 1077 261 1093 c 128,-1,7
 224 1109 224 1109 196.5 1136.5 c 128,-1,8
 169 1164 169 1164 153 1201 c 128,-1,9
 137 1238 137 1238 137 1280 c 256,10,11
 137 1322 137 1322 153 1359 c 128,-1,12
 169 1396 169 1396 196.5 1423.5 c 128,-1,13
 224 1451 224 1451 261 1467 c 128,-1,14
 298 1483 298 1483 340 1483 c 256,15,16
 382 1483 382 1483 419 1467 c 128,-1,17
 456 1451 456 1451 483.5 1423.5 c 128,-1,18
 511 1396 511 1396 527 1359 c 128,-1,19
 543 1322 543 1322 543 1280 c 256,0,1
463 1280 m 256,20,21
 463 1305 463 1305 453.5 1327.5 c 128,-1,22
 444 1350 444 1350 427 1367 c 128,-1,23
 410 1384 410 1384 387.5 1393.5 c 128,-1,24
 365 1403 365 1403 340 1403 c 0,25,26
 314 1403 314 1403 292 1393.5 c 128,-1,27
 270 1384 270 1384 253 1367 c 128,-1,28
 236 1350 236 1350 226.5 1327.5 c 128,-1,29
 217 1305 217 1305 217 1280 c 256,30,31
 217 1255 217 1255 226.5 1232.5 c 128,-1,32
 236 1210 236 1210 253 1193.5 c 128,-1,33
 270 1177 270 1177 292 1167 c 128,-1,34
 314 1157 314 1157 340 1157 c 0,35,36
 365 1157 365 1157 387.5 1167 c 128,-1,37
 410 1177 410 1177 427 1193.5 c 128,-1,38
 444 1210 444 1210 453.5 1232.5 c 128,-1,39
 463 1255 463 1255 463 1280 c 256,20,21
EndSplineSet
EndChar

StartChar: ogonek
Encoding: 731 731 333
Width: 682
Flags: W
LayerCount: 2
Fore
SplineSet
356 -403 m 0,0,1
 293 -403 293 -403 249 -385.5 c 128,-1,2
 205 -368 205 -368 177.5 -338 c 128,-1,3
 150 -308 150 -308 137.5 -268.5 c 128,-1,4
 125 -229 125 -229 125 -186 c 0,5,6
 125 -152 125 -152 133.5 -122 c 128,-1,7
 142 -92 142 -92 155 -66.5 c 128,-1,8
 168 -41 168 -41 184 -20 c 128,-1,9
 200 1 200 1 215 16 c 1,10,-1
 324 16 l 1,11,12
 317 6 317 6 307.5 -12.5 c 128,-1,13
 298 -31 298 -31 290 -55 c 128,-1,14
 282 -79 282 -79 276 -106.5 c 128,-1,15
 270 -134 270 -134 270 -162 c 0,16,17
 270 -236 270 -236 305.5 -275.5 c 128,-1,18
 341 -315 341 -315 408 -315 c 0,19,20
 441 -315 441 -315 471 -308.5 c 128,-1,21
 501 -302 501 -302 524 -293 c 1,22,-1
 524 -357 l 1,23,24
 496 -376 496 -376 453 -389.5 c 128,-1,25
 410 -403 410 -403 356 -403 c 0,0,1
EndSplineSet
EndChar

StartChar: tilde
Encoding: 732 732 334
Width: 682
Flags: W
LayerCount: 2
Fore
SplineSet
471 1118 m 0,0,1
 423 1118 423 1118 382.5 1139.5 c 128,-1,2
 342 1161 342 1161 306 1187.5 c 128,-1,3
 270 1214 270 1214 236.5 1235.5 c 128,-1,4
 203 1257 203 1257 170 1257 c 0,5,6
 139 1257 139 1257 121 1246.5 c 128,-1,7
 103 1236 103 1236 92.5 1218.5 c 128,-1,8
 82 1201 82 1201 77.5 1180 c 128,-1,9
 73 1159 73 1159 70 1138 c 1,10,-1
 18 1138 l 1,11,12
 21 1185 21 1185 31.5 1228.5 c 128,-1,13
 42 1272 42 1272 64.5 1306 c 128,-1,14
 87 1340 87 1340 123 1360 c 128,-1,15
 159 1380 159 1380 213 1380 c 0,16,17
 261 1380 261 1380 301.5 1358.5 c 128,-1,18
 342 1337 342 1337 378.5 1310.5 c 128,-1,19
 415 1284 415 1284 448.5 1262.5 c 128,-1,20
 482 1241 482 1241 514 1241 c 0,21,22
 544 1241 544 1241 562 1251.5 c 128,-1,23
 580 1262 580 1262 590.5 1279 c 128,-1,24
 601 1296 601 1296 606 1317 c 128,-1,25
 611 1338 611 1338 614 1359 c 1,26,-1
 666 1359 l 1,27,28
 663 1312 663 1312 652.5 1269 c 128,-1,29
 642 1226 642 1226 619.5 1192 c 128,-1,30
 597 1158 597 1158 561 1138 c 128,-1,31
 525 1118 525 1118 471 1118 c 0,0,1
EndSplineSet
EndChar

StartChar: hungarumlaut
Encoding: 733 733 335
Width: 682
Flags: W
LayerCount: 2
Fore
SplineSet
-8 1119 m 1,0,-1
 -8 1152 l 1,1,-1
 148 1424 l 1,2,-1
 340 1424 l 1,3,-1
 340 1387 l 1,4,-1
 47 1119 l 1,5,-1
 -8 1119 l 1,0,-1
342 1119 m 1,6,-1
 342 1152 l 1,7,-1
 498 1424 l 1,8,-1
 690 1424 l 1,9,-1
 690 1387 l 1,10,-1
 398 1119 l 1,11,-1
 342 1119 l 1,6,-1
EndSplineSet
EndChar

StartChar: tonos
Encoding: 900 900 336
Width: 682
Flags: W
LayerCount: 2
Fore
SplineSet
215 1119 m 1,0,-1
 215 1152 l 1,1,-1
 284 1444 l 1,2,-1
 471 1444 l 1,3,-1
 471 1407 l 1,4,-1
 270 1119 l 1,5,-1
 215 1119 l 1,0,-1
EndSplineSet
EndChar

StartChar: dieresistonos
Encoding: 901 901 337
Width: 682
Flags: W
LayerCount: 2
Fore
SplineSet
265 1119 m 1,0,-1
 265 1152 l 1,1,-1
 314 1474 l 1,2,-1
 501 1474 l 1,3,-1
 501 1437 l 1,4,-1
 320 1119 l 1,5,-1
 265 1119 l 1,0,-1
630 1212 m 256,6,7
 630 1174 630 1174 605 1147.5 c 128,-1,8
 580 1121 580 1121 542 1121 c 0,9,10
 505 1121 505 1121 478.5 1147.5 c 128,-1,11
 452 1174 452 1174 452 1212 c 256,12,13
 452 1250 452 1250 478.5 1276 c 128,-1,14
 505 1302 505 1302 542 1302 c 0,15,16
 580 1302 580 1302 605 1276 c 128,-1,17
 630 1250 630 1250 630 1212 c 256,6,7
230 1212 m 256,18,19
 230 1174 230 1174 204.5 1147.5 c 128,-1,20
 179 1121 179 1121 142 1121 c 0,21,22
 104 1121 104 1121 77.5 1147.5 c 128,-1,23
 51 1174 51 1174 51 1212 c 256,24,25
 51 1250 51 1250 77.5 1276 c 128,-1,26
 104 1302 104 1302 142 1302 c 0,27,28
 179 1302 179 1302 204.5 1276 c 128,-1,29
 230 1250 230 1250 230 1212 c 256,18,19
EndSplineSet
EndChar

StartChar: anoteleia
Encoding: 903 903 339
Width: 569
Flags: W
LayerCount: 2
Fore
SplineSet
377 678 m 0,0,1
 377 652 377 652 367.5 630 c 128,-1,2
 358 608 358 608 342 592 c 128,-1,3
 326 576 326 576 303.5 566.5 c 128,-1,4
 281 557 281 557 256 557 c 0,5,6
 230 557 230 557 208 566.5 c 128,-1,7
 186 576 186 576 170 592 c 128,-1,8
 154 608 154 608 144.5 630 c 128,-1,9
 135 652 135 652 135 678 c 0,10,11
 135 703 135 703 144.5 725 c 128,-1,12
 154 747 154 747 170 763.5 c 128,-1,13
 186 780 186 780 208 789.5 c 128,-1,14
 230 799 230 799 256 799 c 0,15,16
 281 799 281 799 303.5 789.5 c 128,-1,17
 326 780 326 780 342 763.5 c 128,-1,18
 358 747 358 747 367.5 725 c 128,-1,19
 377 703 377 703 377 678 c 0,0,1
EndSplineSet
EndChar

StartChar: Gamma
Encoding: 915 915 349
Width: 1184
Flags: W
LayerCount: 2
Fore
SplineSet
631 0 m 1,0,-1
 59 0 l 1,1,-1
 59 53 l 1,2,-1
 231 79 l 1,3,-1
 231 1261 l 1,4,-1
 59 1288 l 1,5,-1
 59 1341 l 1,6,-1
 1100 1341 l 1,7,-1
 1118 956 l 1,8,-1
 1053 956 l 1,9,-1
 991 1235 l 1,10,11
 961 1241 961 1241 882 1248 c 128,-1,12
 803 1255 803 1255 678 1255 c 2,13,-1
 424 1255 l 1,14,-1
 424 79 l 1,15,-1
 631 53 l 1,16,-1
 631 0 l 1,0,-1
EndSplineSet
EndChar

StartChar: Delta
Encoding: 916 916 350
Width: 1317
Flags: W
LayerCount: 2
Fore
SplineSet
1240 0 m 1,0,-1
 79 0 l 1,1,-1
 78 80 l 1,2,-1
 555 1352 l 1,3,-1
 745 1352 l 1,4,-1
 1240 80 l 1,5,-1
 1240 0 l 1,0,-1
606 1196 m 1,6,-1
 206 109 l 1,7,-1
 1012 109 l 1,8,-1
 606 1196 l 1,6,-1
EndSplineSet
EndChar

StartChar: Theta
Encoding: 920 920 354
Width: 1479
Flags: W
LayerCount: 2
Fore
SplineSet
293 672 m 0,0,1
 293 532 293 532 314 419 c 128,-1,2
 335 306 335 306 386 226 c 128,-1,3
 437 146 437 146 523 102.5 c 128,-1,4
 609 59 609 59 739 59 c 256,5,6
 869 59 869 59 955 102.5 c 128,-1,7
 1041 146 1041 146 1092.5 226 c 128,-1,8
 1144 306 1144 306 1165 419 c 128,-1,9
 1186 532 1186 532 1186 672 c 0,10,11
 1186 811 1186 811 1165 923 c 128,-1,12
 1144 1035 1144 1035 1092.5 1113.5 c 128,-1,13
 1041 1192 1041 1192 955 1234 c 128,-1,14
 869 1276 869 1276 739 1276 c 256,15,16
 609 1276 609 1276 523 1234 c 128,-1,17
 437 1192 437 1192 386 1113.5 c 128,-1,18
 335 1035 335 1035 314 923 c 128,-1,19
 293 811 293 811 293 672 c 0,0,1
84 672 m 256,20,21
 84 850 84 850 127.5 979 c 128,-1,22
 171 1108 171 1108 254 1192 c 128,-1,23
 337 1276 337 1276 459 1316 c 128,-1,24
 581 1356 581 1356 739 1356 c 0,25,26
 892 1356 892 1356 1013.5 1316 c 128,-1,27
 1135 1276 1135 1276 1220 1192 c 128,-1,28
 1305 1108 1305 1108 1350 979 c 128,-1,29
 1395 850 1395 850 1395 672 c 256,30,31
 1395 494 1395 494 1350 363.5 c 128,-1,32
 1305 233 1305 233 1220 148 c 128,-1,33
 1135 63 1135 63 1013.5 21.5 c 128,-1,34
 892 -20 892 -20 739 -20 c 256,35,36
 586 -20 586 -20 465 21.5 c 128,-1,37
 344 63 344 63 259 148 c 128,-1,38
 174 233 174 233 129 363.5 c 128,-1,39
 84 494 84 494 84 672 c 256,20,21
558 610 m 1,40,-1
 527 468 l 1,41,-1
 463 468 l 1,42,-1
 463 880 l 1,43,-1
 527 880 l 1,44,-1
 558 740 l 1,45,-1
 920 740 l 1,46,-1
 951 880 l 1,47,-1
 1015 880 l 1,48,-1
 1015 468 l 1,49,-1
 951 468 l 1,50,-1
 920 610 l 1,51,-1
 558 610 l 1,40,-1
EndSplineSet
EndChar

StartChar: Lambda
Encoding: 923 923 357
Width: 1485
Flags: W
LayerCount: 2
Fore
SplineSet
281 80 m 1,0,-1
 461 53 l 1,1,-1
 461 0 l 1,2,-1
 20 0 l 1,3,-1
 20 53 l 1,4,-1
 165 80 l 1,5,-1
 629 1352 l 1,6,-1
 819 1352 l 1,7,-1
 1294 80 l 1,8,-1
 1464 53 l 1,9,-1
 1464 0 l 1,10,-1
 897 0 l 1,11,-1
 897 53 l 1,12,-1
 1077 80 l 1,13,-1
 682 1197 l 1,14,-1
 281 80 l 1,0,-1
EndSplineSet
EndChar

StartChar: Xi
Encoding: 926 926 360
Width: 1317
Flags: W
LayerCount: 2
Fore
SplineSet
745 170 m 2,0,1
 807 170 807 170 862 171.5 c 128,-1,2
 917 173 917 173 961 175 c 128,-1,3
 1005 177 1005 177 1036.5 180 c 128,-1,4
 1068 183 1068 183 1083 186 c 1,5,-1
 1140 374 l 1,6,-1
 1206 374 l 1,7,-1
 1187 0 l 1,8,-1
 129 0 l 1,9,-1
 110 374 l 1,10,-1
 176 374 l 1,11,-1
 233 186 l 1,12,13
 248 183 248 183 284 180 c 128,-1,14
 320 177 320 177 369 175 c 128,-1,15
 418 173 418 173 477 171.5 c 128,-1,16
 536 170 536 170 598 170 c 2,17,-1
 745 170 l 2,0,1
602 1181 m 2,18,19
 579 1181 579 1181 537 1180.5 c 128,-1,20
 495 1180 495 1180 448 1178.5 c 128,-1,21
 401 1177 401 1177 355 1174 c 128,-1,22
 309 1171 309 1171 278 1167 c 1,23,-1
 226 1010 l 1,24,-1
 160 1010 l 1,25,-1
 180 1341 l 1,26,-1
 1137 1341 l 1,27,-1
 1157 1010 l 1,28,-1
 1091 1010 l 1,29,-1
 1039 1167 l 1,30,31
 1007 1171 1007 1171 961.5 1174 c 128,-1,32
 916 1177 916 1177 869 1178.5 c 128,-1,33
 822 1180 822 1180 780 1180.5 c 128,-1,34
 738 1181 738 1181 715 1181 c 2,35,-1
 602 1181 l 2,18,19
450 610 m 1,36,-1
 419 468 l 1,37,-1
 355 468 l 1,38,-1
 355 880 l 1,39,-1
 419 880 l 1,40,-1
 450 740 l 1,41,-1
 866 740 l 1,42,-1
 897 880 l 1,43,-1
 961 880 l 1,44,-1
 961 468 l 1,45,-1
 897 468 l 1,46,-1
 866 610 l 1,47,-1
 450 610 l 1,36,-1
EndSplineSet
EndChar

StartChar: Pi
Encoding: 928 928 362
Width: 1479
Flags: W
LayerCount: 2
Fore
SplineSet
59 0 m 1,0,-1
 59 53 l 1,1,-1
 231 80 l 1,2,-1
 231 1262 l 1,3,-1
 59 1288 l 1,4,-1
 59 1341 l 1,5,-1
 1419 1341 l 1,6,-1
 1419 1288 l 1,7,-1
 1247 1262 l 1,8,-1
 1247 80 l 1,9,-1
 1419 53 l 1,10,-1
 1419 0 l 1,11,-1
 883 0 l 1,12,-1
 883 53 l 1,13,-1
 1055 80 l 1,14,-1
 1055 1251 l 1,15,-1
 424 1251 l 1,16,-1
 424 80 l 1,17,-1
 596 53 l 1,18,-1
 596 0 l 1,19,-1
 59 0 l 1,0,-1
EndSplineSet
EndChar

StartChar: Sigma
Encoding: 931 931 364
Width: 1192
Flags: W
LayerCount: 2
Fore
SplineSet
678 748 m 1,0,-1
 678 697 l 1,1,-1
 275 170 l 1,2,-1
 536 170 l 2,3,4
 598 170 598 170 667.5 171.5 c 128,-1,5
 737 173 737 173 798 175 c 128,-1,6
 859 177 859 177 905 180 c 128,-1,7
 951 183 951 183 966 186 c 1,8,-1
 1023 374 l 1,9,-1
 1089 374 l 1,10,-1
 1070 0 l 1,11,-1
 80 0 l 1,12,-1
 80 74 l 1,13,-1
 518 646 l 1,14,-1
 88 1262 l 1,15,-1
 88 1341 l 1,16,-1
 1009 1341 l 1,17,-1
 1009 1020 l 1,18,-1
 943 1020 l 1,19,-1
 901 1237 l 1,20,21
 869 1241 869 1241 826 1244 c 128,-1,22
 783 1247 783 1247 739.5 1248.5 c 128,-1,23
 696 1250 696 1250 657 1250.5 c 128,-1,24
 618 1251 618 1251 595 1251 c 2,25,-1
 329 1251 l 1,26,-1
 678 748 l 1,0,-1
EndSplineSet
EndChar

StartChar: Phi
Encoding: 934 934 367
Width: 1497
Flags: W
LayerCount: 2
Fore
SplineSet
839 80 m 1,0,-1
 1011 53 l 1,1,-1
 1011 0 l 1,2,-1
 485 0 l 1,3,-1
 485 53 l 1,4,-1
 657 80 l 1,5,-1
 657 222 l 1,6,-1
 544 222 l 2,7,8
 452 222 452 222 380.5 241.5 c 128,-1,9
 309 261 309 261 255 295 c 128,-1,10
 201 329 201 329 164.5 375 c 128,-1,11
 128 421 128 421 105 473 c 128,-1,12
 82 525 82 525 72 581 c 128,-1,13
 62 637 62 637 62 692 c 0,14,15
 62 775 62 775 86 855 c 128,-1,16
 110 935 110 935 167 997.5 c 128,-1,17
 224 1060 224 1060 318.5 1098.5 c 128,-1,18
 413 1137 413 1137 554 1137 c 2,19,-1
 657 1137 l 1,20,-1
 657 1262 l 1,21,-1
 485 1288 l 1,22,-1
 485 1341 l 1,23,-1
 1011 1341 l 1,24,-1
 1011 1288 l 1,25,-1
 839 1262 l 1,26,-1
 839 1137 l 1,27,-1
 943 1137 l 2,28,29
 1084 1137 1084 1137 1178.5 1098.5 c 128,-1,30
 1273 1060 1273 1060 1330 997.5 c 128,-1,31
 1387 935 1387 935 1411 855 c 128,-1,32
 1435 775 1435 775 1435 692 c 0,33,34
 1435 637 1435 637 1425 581 c 128,-1,35
 1415 525 1415 525 1392 473 c 128,-1,36
 1369 421 1369 421 1332.5 375 c 128,-1,37
 1296 329 1296 329 1242 295 c 128,-1,38
 1188 261 1188 261 1116.5 241.5 c 128,-1,39
 1045 222 1045 222 953 222 c 2,40,-1
 839 222 l 1,41,-1
 839 80 l 1,0,-1
906 300 m 2,42,43
 1000 300 1000 300 1063.5 332 c 128,-1,44
 1127 364 1127 364 1165.5 418 c 128,-1,45
 1204 472 1204 472 1220 542.5 c 128,-1,46
 1236 613 1236 613 1236 690 c 0,47,48
 1236 770 1236 770 1218.5 837.5 c 128,-1,49
 1201 905 1201 905 1161.5 954.5 c 128,-1,50
 1122 1004 1122 1004 1058 1032 c 128,-1,51
 994 1060 994 1060 900 1060 c 2,52,-1
 839 1060 l 1,53,-1
 839 300 l 1,54,-1
 906 300 l 2,42,43
261 690 m 0,55,56
 261 613 261 613 277 542.5 c 128,-1,57
 293 472 293 472 331.5 418 c 128,-1,58
 370 364 370 364 433 332 c 128,-1,59
 496 300 496 300 591 300 c 2,60,-1
 657 300 l 1,61,-1
 657 1060 l 1,62,-1
 597 1060 l 2,63,64
 503 1060 503 1060 439 1032 c 128,-1,65
 375 1004 375 1004 335.5 954.5 c 128,-1,66
 296 905 296 905 278.5 837.5 c 128,-1,67
 261 770 261 770 261 690 c 0,55,56
EndSplineSet
EndChar

StartChar: Psi
Encoding: 936 936 369
Width: 1511
Flags: W
LayerCount: 2
Fore
SplineSet
846 80 m 1,0,-1
 1028 53 l 1,1,-1
 1028 0 l 1,2,-1
 482 0 l 1,3,-1
 482 53 l 1,4,-1
 664 80 l 1,5,-1
 664 506 l 1,6,7
 519 506 519 506 417.5 531.5 c 128,-1,8
 316 557 316 557 251.5 609 c 128,-1,9
 187 661 187 661 157.5 741 c 128,-1,10
 128 821 128 821 128 931 c 2,11,-1
 128 1262 l 1,12,-1
 6 1288 l 1,13,-1
 6 1341 l 1,14,-1
 320 1341 l 1,15,-1
 320 926 l 2,16,17
 320 755 320 755 402 670.5 c 128,-1,18
 484 586 484 586 664 585 c 1,19,-1
 664 1262 l 1,20,-1
 482 1288 l 1,21,-1
 482 1341 l 1,22,-1
 1028 1341 l 1,23,-1
 1028 1288 l 1,24,-1
 846 1262 l 1,25,-1
 846 585 l 1,26,27
 1027 586 1027 586 1109.5 670 c 128,-1,28
 1192 754 1192 754 1192 926 c 2,29,-1
 1192 1341 l 1,30,-1
 1506 1341 l 1,31,-1
 1506 1288 l 1,32,-1
 1384 1262 l 1,33,-1
 1384 931 l 2,34,35
 1384 821 1384 821 1354.5 741 c 128,-1,36
 1325 661 1325 661 1260.5 609 c 128,-1,37
 1196 557 1196 557 1093.5 531.5 c 128,-1,38
 991 506 991 506 846 506 c 1,39,-1
 846 80 l 1,0,-1
EndSplineSet
EndChar

StartChar: Omega
Encoding: 937 937 370
Width: 1522
Flags: W
LayerCount: 2
Fore
SplineSet
761 1276 m 256,0,1
 631 1276 631 1276 545 1241 c 128,-1,2
 459 1206 459 1206 408 1143.5 c 128,-1,3
 357 1081 357 1081 336 993.5 c 128,-1,4
 315 906 315 906 315 801 c 0,5,6
 315 714 315 714 334.5 636 c 128,-1,7
 354 558 354 558 396.5 497 c 128,-1,8
 439 436 439 436 506 395.5 c 128,-1,9
 573 355 573 355 668 343 c 1,10,-1
 695 0 l 1,11,-1
 126 0 l 1,12,-1
 107 330 l 1,13,-1
 173 330 l 1,14,-1
 230 186 l 1,15,16
 245 183 245 183 273.5 180 c 128,-1,17
 302 177 302 177 339.5 175 c 128,-1,18
 377 173 377 173 421.5 171.5 c 128,-1,19
 466 170 466 170 514 170 c 2,20,-1
 586 170 l 1,21,-1
 576 271 l 1,22,23
 473 287 473 287 387 330.5 c 128,-1,24
 301 374 301 374 238.5 442 c 128,-1,25
 176 510 176 510 141 600.5 c 128,-1,26
 106 691 106 691 106 801 c 0,27,28
 106 940 106 940 149.5 1044.5 c 128,-1,29
 193 1149 193 1149 276 1218 c 128,-1,30
 359 1287 359 1287 481 1321.5 c 128,-1,31
 603 1356 603 1356 761 1356 c 0,32,33
 918 1356 918 1356 1040.5 1321.5 c 128,-1,34
 1163 1287 1163 1287 1246 1218 c 128,-1,35
 1329 1149 1329 1149 1372.5 1044.5 c 128,-1,36
 1416 940 1416 940 1416 801 c 0,37,38
 1416 691 1416 691 1381 600.5 c 128,-1,39
 1346 510 1346 510 1283.5 442 c 128,-1,40
 1221 374 1221 374 1135 330.5 c 128,-1,41
 1049 287 1049 287 946 271 c 1,42,-1
 936 170 l 1,43,-1
 1008 170 l 2,44,45
 1056 170 1056 170 1100.5 171.5 c 128,-1,46
 1145 173 1145 173 1182.5 175 c 128,-1,47
 1220 177 1220 177 1248.5 180 c 128,-1,48
 1277 183 1277 183 1292 186 c 1,49,-1
 1349 330 l 1,50,-1
 1415 330 l 1,51,-1
 1396 0 l 1,52,-1
 827 0 l 1,53,-1
 854 343 l 1,54,55
 949 355 949 355 1016 395.5 c 128,-1,56
 1083 436 1083 436 1125.5 497 c 128,-1,57
 1168 558 1168 558 1187.5 636 c 128,-1,58
 1207 714 1207 714 1207 801 c 0,59,60
 1207 906 1207 906 1186 993.5 c 128,-1,61
 1165 1081 1165 1081 1114 1143.5 c 128,-1,62
 1063 1206 1063 1206 977 1241 c 128,-1,63
 891 1276 891 1276 761 1276 c 256,0,1
EndSplineSet
EndChar

StartChar: alpha
Encoding: 945 945 378
Width: 1073
Flags: W
LayerCount: 2
Fore
SplineSet
1024 45 m 1,0,-1
 1024 0 l 1,1,-1
 812 0 l 1,2,3
 801 35 801 35 791 72 c 128,-1,4
 781 109 781 109 772.5 145 c 128,-1,5
 764 181 764 181 757.5 214 c 128,-1,6
 751 247 751 247 746 274 c 1,7,-1
 740 274 l 1,8,9
 705 208 705 208 672 154 c 128,-1,10
 639 100 639 100 600 61.5 c 128,-1,11
 561 23 561 23 510.5 1.5 c 128,-1,12
 460 -20 460 -20 391 -20 c 0,13,14
 318 -20 318 -20 260 10 c 128,-1,15
 202 40 202 40 161.5 99.5 c 128,-1,16
 121 159 121 159 99.5 247.5 c 128,-1,17
 78 336 78 336 78 453 c 0,18,19
 78 580 78 580 106 676 c 128,-1,20
 134 772 134 772 185 836.5 c 128,-1,21
 236 901 236 901 308 933.5 c 128,-1,22
 380 966 380 966 469 966 c 0,23,24
 533 966 533 966 583.5 950.5 c 128,-1,25
 634 935 634 935 673 901.5 c 128,-1,26
 712 868 712 868 741.5 815.5 c 128,-1,27
 771 763 771 763 794 690 c 1,28,-1
 800 690 l 1,29,-1
 870 940 l 1,30,-1
 1027 940 l 1,31,-1
 1027 900 l 1,32,33
 1009 871 1009 871 988 825.5 c 128,-1,34
 967 780 967 780 944.5 724.5 c 128,-1,35
 922 669 922 669 898.5 606.5 c 128,-1,36
 875 544 875 544 852 483 c 1,37,38
 881 357 881 357 912.5 250.5 c 128,-1,39
 944 144 944 144 976 60 c 1,40,-1
 1024 45 l 1,0,-1
724 463 m 1,41,42
 711 575 711 575 691 655 c 128,-1,43
 671 735 671 735 641.5 786.5 c 128,-1,44
 612 838 612 838 573 862 c 128,-1,45
 534 886 534 886 484 886 c 0,46,47
 369 886 369 886 314 773.5 c 128,-1,48
 259 661 259 661 259 453 c 0,49,50
 259 269 259 269 306 173.5 c 128,-1,51
 353 78 353 78 431 78 c 0,52,53
 488 78 488 78 531 110 c 128,-1,54
 574 142 574 142 608.5 195.5 c 128,-1,55
 643 249 643 249 670.5 318.5 c 128,-1,56
 698 388 698 388 724 463 c 1,41,42
EndSplineSet
EndChar

StartChar: beta
Encoding: 946 946 379
Width: 1042
Flags: W
LayerCount: 2
Fore
SplineSet
298 -436 m 1,0,-1
 132 -436 l 1,1,-1
 132 941 l 2,2,3
 132 1082 132 1082 162 1178 c 128,-1,4
 192 1274 192 1274 246 1332.5 c 128,-1,5
 300 1391 300 1391 375.5 1416.5 c 128,-1,6
 451 1442 451 1442 542 1442 c 0,7,8
 628 1442 628 1442 695.5 1418 c 128,-1,9
 763 1394 763 1394 809.5 1350 c 128,-1,10
 856 1306 856 1306 880.5 1242 c 128,-1,11
 905 1178 905 1178 905 1099 c 0,12,13
 905 1024 905 1024 885 966 c 128,-1,14
 865 908 865 908 831.5 866.5 c 128,-1,15
 798 825 798 825 754.5 799 c 128,-1,16
 711 773 711 773 664 763 c 1,17,-1
 664 753 l 1,18,19
 731 739 731 739 785 712 c 128,-1,20
 839 685 839 685 877 641.5 c 128,-1,21
 915 598 915 598 935 536.5 c 128,-1,22
 955 475 955 475 955 392 c 0,23,24
 955 292 955 292 928 215 c 128,-1,25
 901 138 901 138 851 86 c 128,-1,26
 801 34 801 34 728 7 c 128,-1,27
 655 -20 655 -20 564 -20 c 0,28,29
 475 -20 475 -20 409.5 -3.5 c 128,-1,30
 344 13 344 13 298 33 c 1,31,-1
 298 -436 l 1,0,-1
735 1096 m 0,32,33
 735 1156 735 1156 723.5 1205 c 128,-1,34
 712 1254 712 1254 688.5 1289 c 128,-1,35
 665 1324 665 1324 628 1343 c 128,-1,36
 591 1362 591 1362 540 1362 c 0,37,38
 484 1362 484 1362 439 1342.5 c 128,-1,39
 394 1323 394 1323 362.5 1274.5 c 128,-1,40
 331 1226 331 1226 314.5 1144 c 128,-1,41
 298 1062 298 1062 298 937 c 2,42,-1
 298 106 l 1,43,44
 351 89 351 89 415.5 78.5 c 128,-1,45
 480 68 480 68 552 68 c 0,46,47
 661 68 661 68 720.5 146 c 128,-1,48
 780 224 780 224 780 389 c 0,49,50
 780 464 780 464 763.5 522.5 c 128,-1,51
 747 581 747 581 710.5 622 c 128,-1,52
 674 663 674 663 616 686 c 128,-1,53
 558 709 558 709 475 712 c 1,54,-1
 475 790 l 1,55,56
 546 792 546 792 595.5 812 c 128,-1,57
 645 832 645 832 676 870 c 128,-1,58
 707 908 707 908 721 964.5 c 128,-1,59
 735 1021 735 1021 735 1096 c 0,32,33
EndSplineSet
EndChar

StartChar: gamma
Encoding: 947 947 380
Width: 905
Flags: W
LayerCount: 2
Fore
SplineSet
-3 895 m 1,0,-1
 -3 940 l 1,1,-1
 215 940 l 1,2,3
 250 862 250 862 287 766 c 128,-1,4
 324 670 324 670 360 568 c 128,-1,5
 396 466 396 466 428.5 364.5 c 128,-1,6
 461 263 461 263 487 174 c 1,7,-1
 495 174 l 1,8,-1
 665 582 l 2,9,10
 678 612 678 612 688.5 642.5 c 128,-1,11
 699 673 699 673 707 701.5 c 128,-1,12
 715 730 715 730 719.5 755 c 128,-1,13
 724 780 724 780 724 799 c 0,14,15
 724 840 724 840 701 864 c 128,-1,16
 678 888 678 888 654 895 c 1,17,-1
 654 940 l 1,18,-1
 847 940 l 1,19,20
 854 929 854 929 856 907 c 128,-1,21
 858 885 858 885 858 864 c 0,22,23
 858 813 858 813 834.5 741 c 128,-1,24
 811 669 811 669 771 581 c 1,25,-1
 523 18 l 1,26,27
 529 -18 529 -18 534.5 -75.5 c 128,-1,28
 540 -133 540 -133 543.5 -196.5 c 128,-1,29
 547 -260 547 -260 549.5 -321 c 128,-1,30
 552 -382 552 -382 552 -425 c 1,31,-1
 393 -436 l 1,32,-1
 347 -407 l 1,33,34
 347 -367 347 -367 349.5 -317.5 c 128,-1,35
 352 -268 352 -268 357 -215 c 128,-1,36
 362 -162 362 -162 369 -109 c 128,-1,37
 376 -56 376 -56 385 -8 c 1,38,39
 346 106 346 106 303 232 c 128,-1,40
 260 358 260 358 216 477 c 128,-1,41
 172 596 172 596 130 699.5 c 128,-1,42
 88 803 88 803 52 873 c 1,43,-1
 -3 895 l 1,0,-1
EndSplineSet
EndChar

StartChar: delta
Encoding: 948 948 381
Width: 965
Flags: W
LayerCount: 2
Fore
SplineSet
251 1188 m 0,0,1
 251 1246 251 1246 274 1291 c 128,-1,2
 297 1336 297 1336 338.5 1367 c 128,-1,3
 380 1398 380 1398 437.5 1414.5 c 128,-1,4
 495 1431 495 1431 564 1431 c 0,5,6
 632 1431 632 1431 694.5 1421 c 128,-1,7
 757 1411 757 1411 810 1400 c 1,8,-1
 810 1195 l 1,9,-1
 763 1195 l 1,10,-1
 721 1304 l 1,11,12
 668 1351 668 1351 566 1351 c 0,13,14
 485 1351 485 1351 442.5 1311 c 128,-1,15
 400 1271 400 1271 400 1203 c 0,16,17
 400 1166 400 1166 416.5 1132.5 c 128,-1,18
 433 1099 433 1099 463 1065 c 128,-1,19
 493 1031 493 1031 535.5 994.5 c 128,-1,20
 578 958 578 958 631 915 c 0,21,22
 695 862 695 862 743.5 810 c 128,-1,23
 792 758 792 758 824 702.5 c 128,-1,24
 856 647 856 647 872 585 c 128,-1,25
 888 523 888 523 888 450 c 0,26,27
 888 340 888 340 861.5 253 c 128,-1,28
 835 166 835 166 784 105 c 128,-1,29
 733 44 733 44 658 12 c 128,-1,30
 583 -20 583 -20 486 -20 c 0,31,32
 391 -20 391 -20 315 6.5 c 128,-1,33
 239 33 239 33 186 85.5 c 128,-1,34
 133 138 133 138 105 216.5 c 128,-1,35
 77 295 77 295 77 399 c 0,36,37
 77 504 77 504 106 583.5 c 128,-1,38
 135 663 135 663 185 720.5 c 128,-1,39
 235 778 235 778 301.5 815.5 c 128,-1,40
 368 853 368 853 444 873 c 1,41,42
 400 912 400 912 364.5 949 c 128,-1,43
 329 986 329 986 303.5 1024 c 128,-1,44
 278 1062 278 1062 264.5 1102.5 c 128,-1,45
 251 1143 251 1143 251 1188 c 0,0,1
249 391 m 0,46,47
 249 315 249 315 263.5 254 c 128,-1,48
 278 193 278 193 308 149.5 c 128,-1,49
 338 106 338 106 382.5 82.5 c 128,-1,50
 427 59 427 59 487 59 c 0,51,52
 596 59 596 59 655 148.5 c 128,-1,53
 714 238 714 238 714 422 c 0,54,55
 714 482 714 482 703 534 c 128,-1,56
 692 586 692 586 669 632 c 128,-1,57
 646 678 646 678 611 719.5 c 128,-1,58
 576 761 576 761 529 801 c 0,59,60
 522 806 522 806 516 811 c 128,-1,61
 510 816 510 816 504 821 c 1,62,63
 455 804 455 804 409 776 c 128,-1,64
 363 748 363 748 327.5 699 c 128,-1,65
 292 650 292 650 270.5 575.5 c 128,-1,66
 249 501 249 501 249 391 c 0,46,47
EndSplineSet
EndChar

StartChar: epsilon
Encoding: 949 949 382
Width: 860
Flags: W
LayerCount: 2
Fore
SplineSet
801 70 m 1,0,1
 743 32 743 32 656 6 c 128,-1,2
 569 -20 569 -20 457 -20 c 0,3,4
 359 -20 359 -20 288 1 c 128,-1,5
 217 22 217 22 170.5 60.5 c 128,-1,6
 124 99 124 99 101.5 152 c 128,-1,7
 79 205 79 205 79 269 c 0,8,9
 79 321 79 321 97.5 361 c 128,-1,10
 116 401 116 401 147 430 c 128,-1,11
 178 459 178 459 218.5 478 c 128,-1,12
 259 497 259 497 303 506 c 1,13,-1
 303 513 l 1,14,15
 264 526 264 526 230.5 544.5 c 128,-1,16
 197 563 197 563 172.5 588.5 c 128,-1,17
 148 614 148 614 133.5 647.5 c 128,-1,18
 119 681 119 681 119 725 c 0,19,20
 119 790 119 790 152.5 836 c 128,-1,21
 186 882 186 882 240.5 910.5 c 128,-1,22
 295 939 295 939 364 952 c 128,-1,23
 433 965 433 965 504 965 c 0,24,25
 569 965 569 965 641 955.5 c 128,-1,26
 713 946 713 946 773 929 c 1,27,-1
 772 733 l 1,28,-1
 724 733 l 1,29,-1
 667 846 l 1,30,31
 655 853 655 853 635.5 860.5 c 128,-1,32
 616 868 616 868 593.5 874 c 128,-1,33
 571 880 571 880 546 883.5 c 128,-1,34
 521 887 521 887 497 887 c 0,35,36
 462 887 462 887 425 879.5 c 128,-1,37
 388 872 388 872 357.5 853 c 128,-1,38
 327 834 327 834 307.5 801 c 128,-1,39
 288 768 288 768 288 718 c 0,40,41
 288 676 288 676 299.5 645.5 c 128,-1,42
 311 615 311 615 329 594 c 128,-1,43
 347 573 347 573 368.5 560 c 128,-1,44
 390 547 390 547 411 541 c 1,45,46
 432 543 432 543 466 545 c 128,-1,47
 500 547 500 547 534.5 548.5 c 128,-1,48
 569 550 569 550 597.5 551 c 128,-1,49
 626 552 626 552 636 552 c 2,50,-1
 668 552 l 1,51,-1
 668 456 l 1,52,-1
 636 456 l 2,53,54
 626 456 626 456 597 457 c 128,-1,55
 568 458 568 458 531.5 460 c 128,-1,56
 495 462 495 462 457.5 464.5 c 128,-1,57
 420 467 420 467 393 469 c 1,58,59
 369 462 369 462 344 448.5 c 128,-1,60
 319 435 319 435 298.5 412 c 128,-1,61
 278 389 278 389 265 356 c 128,-1,62
 252 323 252 323 252 278 c 0,63,64
 252 243 252 243 265 208 c 128,-1,65
 278 173 278 173 308 145.5 c 128,-1,66
 338 118 338 118 386.5 101 c 128,-1,67
 435 84 435 84 506 84 c 0,68,69
 556 84 556 84 598 88.5 c 128,-1,70
 640 93 640 93 676 100 c 128,-1,71
 712 107 712 107 743 116.5 c 128,-1,72
 774 126 774 126 801 135 c 1,73,-1
 801 70 l 1,0,1
EndSplineSet
EndChar

StartChar: zeta
Encoding: 950 950 383
Width: 848
Flags: W
LayerCount: 2
Fore
SplineSet
802 -82 m 0,0,1
 802 -135 802 -135 784 -176 c 128,-1,2
 766 -217 766 -217 730 -250.5 c 128,-1,3
 694 -284 694 -284 639.5 -311 c 128,-1,4
 585 -338 585 -338 512 -362 c 1,5,-1
 512 -297 l 1,6,7
 545 -284 545 -284 573 -268.5 c 128,-1,8
 601 -253 601 -253 621.5 -233.5 c 128,-1,9
 642 -214 642 -214 653 -190 c 128,-1,10
 664 -166 664 -166 664 -135 c 0,11,12
 664 -77 664 -77 612 -48 c 128,-1,13
 560 -19 560 -19 458 1 c 0,14,15
 357 21 357 21 286.5 52.5 c 128,-1,16
 216 84 216 84 172 129 c 128,-1,17
 128 174 128 174 108.5 234.5 c 128,-1,18
 89 295 89 295 89 373 c 0,19,20
 89 457 89 457 113.5 543 c 128,-1,21
 138 629 138 629 180.5 714.5 c 128,-1,22
 223 800 223 800 279.5 883.5 c 128,-1,23
 336 967 336 967 399 1046.5 c 128,-1,24
 462 1126 462 1126 528.5 1200 c 128,-1,25
 595 1274 595 1274 658 1340 c 1,26,-1
 658 1344 l 1,27,-1
 153 1266 l 1,28,-1
 153 1380 l 1,29,30
 246 1386 246 1386 335 1393 c 128,-1,31
 424 1400 424 1400 505 1407.5 c 128,-1,32
 586 1415 586 1415 656 1422.5 c 128,-1,33
 726 1430 726 1430 780 1438 c 1,34,-1
 780 1370 l 1,35,36
 676 1246 676 1246 584.5 1128 c 128,-1,37
 493 1010 493 1010 425 891 c 128,-1,38
 357 772 357 772 318 649 c 128,-1,39
 279 526 279 526 279 393 c 0,40,41
 279 327 279 327 299 283.5 c 128,-1,42
 319 240 319 240 355 211.5 c 128,-1,43
 391 183 391 183 441.5 166 c 128,-1,44
 492 149 492 149 554 134 c 0,45,46
 677 105 677 105 739.5 55.5 c 128,-1,47
 802 6 802 6 802 -82 c 0,0,1
EndSplineSet
EndChar

StartChar: eta
Encoding: 951 951 384
Width: 1071
Flags: W
LayerCount: 2
Fore
SplineSet
32 940 m 1,0,-1
 320 940 l 1,1,-1
 329 845 l 1,2,3
 365 866 365 866 407 887.5 c 128,-1,4
 449 909 449 909 493 926 c 128,-1,5
 537 943 537 943 580.5 954 c 128,-1,6
 624 965 624 965 663 965 c 0,7,8
 721 965 721 965 769 949 c 128,-1,9
 817 933 817 933 851 899 c 128,-1,10
 885 865 885 865 903.5 813 c 128,-1,11
 922 761 922 761 922 688 c 2,12,-1
 922 70 l 2,13,14
 922 -14 922 -14 926.5 -89 c 128,-1,15
 931 -164 931 -164 937 -224.5 c 128,-1,16
 943 -285 943 -285 950.5 -328.5 c 128,-1,17
 958 -372 958 -372 964 -391 c 1,18,-1
 964 -436 l 1,19,-1
 789 -436 l 1,20,21
 780 -387 780 -387 774 -328.5 c 128,-1,22
 768 -270 768 -270 764 -206 c 128,-1,23
 760 -142 760 -142 758 -75 c 128,-1,24
 756 -8 756 -8 756 58 c 2,25,-1
 756 670 l 2,26,27
 756 758 756 758 715 803 c 128,-1,28
 674 848 674 848 581 848 c 0,29,30
 550 848 550 848 516 841.5 c 128,-1,31
 482 835 482 835 448.5 825 c 128,-1,32
 415 815 415 815 384.5 803 c 128,-1,33
 354 791 354 791 331 781 c 1,34,-1
 331 0 l 1,35,-1
 165 0 l 1,36,-1
 165 870 l 1,37,-1
 32 895 l 1,38,-1
 32 940 l 1,0,-1
EndSplineSet
EndChar

StartChar: theta
Encoding: 952 952 385
Width: 981
Flags: W
LayerCount: 2
Fore
SplineSet
894 710 m 0,0,1
 894 533 894 533 870.5 397 c 128,-1,2
 847 261 847 261 797 168.5 c 128,-1,3
 747 76 747 76 669.5 28 c 128,-1,4
 592 -20 592 -20 484 -20 c 0,5,6
 383 -20 383 -20 309.5 27.5 c 128,-1,7
 236 75 236 75 188.5 167.5 c 128,-1,8
 141 260 141 260 118.5 396 c 128,-1,9
 96 532 96 532 96 710 c 0,10,11
 96 885 96 885 118.5 1020 c 128,-1,12
 141 1155 141 1155 189 1246.5 c 128,-1,13
 237 1338 237 1338 312 1385 c 128,-1,14
 387 1432 387 1432 492 1432 c 0,15,16
 694 1432 694 1432 794 1248.5 c 128,-1,17
 894 1065 894 1065 894 710 c 0,0,1
484 1352 m 256,18,19
 418 1352 418 1352 378 1311.5 c 128,-1,20
 338 1271 338 1271 315.5 1194 c 128,-1,21
 293 1117 293 1117 285 1005 c 128,-1,22
 277 893 277 893 276 750 c 1,23,-1
 714 750 l 1,24,25
 712 893 712 893 700.5 1005 c 128,-1,26
 689 1117 689 1117 663 1194 c 128,-1,27
 637 1271 637 1271 593.5 1311.5 c 128,-1,28
 550 1352 550 1352 484 1352 c 256,18,19
484 59 m 256,29,30
 549 59 549 59 592.5 100 c 128,-1,31
 636 141 636 141 662 218.5 c 128,-1,32
 688 296 688 296 699.5 408 c 128,-1,33
 711 520 711 520 713 662 c 1,34,-1
 276 662 l 1,35,36
 277 520 277 520 285.5 408 c 128,-1,37
 294 296 294 296 316.5 218.5 c 128,-1,38
 339 141 339 141 379 100 c 128,-1,39
 419 59 419 59 484 59 c 256,29,30
EndSplineSet
EndChar

StartChar: iota
Encoding: 953 953 386
Width: 551
Flags: W
LayerCount: 2
Fore
SplineSet
344 214 m 2,0,1
 344 149 344 149 367.5 116.5 c 128,-1,2
 391 84 391 84 429 84 c 0,3,4
 459 84 459 84 488 89 c 128,-1,5
 517 94 517 94 542 100 c 1,6,-1
 542 35 l 1,7,8
 528 25 528 25 507 15 c 128,-1,9
 486 5 486 5 460 -2.5 c 128,-1,10
 434 -10 434 -10 405 -15 c 128,-1,11
 376 -20 376 -20 346 -20 c 0,12,13
 261 -20 261 -20 219.5 37 c 128,-1,14
 178 94 178 94 178 197 c 2,15,-1
 178 870 l 1,16,-1
 45 895 l 1,17,-1
 45 940 l 1,18,-1
 344 940 l 1,19,-1
 344 214 l 2,0,1
EndSplineSet
EndChar

StartChar: kappa
Encoding: 954 954 387
Width: 1032
Flags: W
LayerCount: 2
Fore
SplineSet
324 453 m 1,0,-1
 758 940 l 1,1,-1
 943 940 l 1,2,-1
 943 895 l 1,3,-1
 826 872 l 1,4,-1
 562 594 l 1,5,-1
 902 68 l 1,6,-1
 1004 45 l 1,7,-1
 1004 0 l 1,8,-1
 748 0 l 1,9,-1
 456 474 l 1,10,-1
 324 364 l 1,11,-1
 324 0 l 1,12,-1
 158 0 l 1,13,-1
 158 871 l 1,14,-1
 39 895 l 1,15,-1
 39 940 l 1,16,-1
 324 940 l 1,17,-1
 324 453 l 1,0,-1
EndSplineSet
EndChar

StartChar: lambda
Encoding: 955 955 388
Width: 993
Flags: W
LayerCount: 2
Fore
SplineSet
549 764 m 1,0,1
 540 739 540 739 523 696.5 c 128,-1,2
 506 654 506 654 486.5 607 c 128,-1,3
 467 560 467 560 448 515 c 128,-1,4
 429 470 429 470 417 441 c 2,5,-1
 228 0 l 1,6,-1
 54 0 l 1,7,-1
 54 33 l 1,8,-1
 484 986 l 1,9,-1
 439 1124 l 2,10,11
 406 1226 406 1226 363.5 1287 c 128,-1,12
 321 1348 321 1348 265 1348 c 0,13,14
 249 1348 249 1348 234.5 1344.5 c 128,-1,15
 220 1341 220 1341 208 1336 c 1,16,-1
 168 1253 l 1,17,-1
 119 1253 l 1,18,-1
 119 1423 l 1,19,20
 148 1431 148 1431 187 1436.5 c 128,-1,21
 226 1442 226 1442 267 1442 c 0,22,23
 319 1442 319 1442 357.5 1424.5 c 128,-1,24
 396 1407 396 1407 426.5 1371 c 128,-1,25
 457 1335 457 1335 482 1280.5 c 128,-1,26
 507 1226 507 1226 532 1152 c 2,27,-1
 866 147 l 2,28,29
 882 99 882 99 915 77 c 128,-1,30
 948 55 948 55 982 45 c 1,31,-1
 982 0 l 1,32,-1
 786 0 l 1,33,-1
 549 764 l 1,0,1
EndSplineSet
EndChar

StartChar: mu
Encoding: 956 956 389
Width: 1098
Flags: W
LayerCount: 2
Fore
SplineSet
895 940 m 1,0,-1
 895 70 l 1,1,-1
 1014 45 l 1,2,-1
 1014 0 l 1,3,-1
 740 0 l 1,4,-1
 732 86 l 1,5,6
 703 66 703 66 671.5 47 c 128,-1,7
 640 28 640 28 606.5 13 c 128,-1,8
 573 -2 573 -2 537 -11 c 128,-1,9
 501 -20 501 -20 465 -20 c 0,10,11
 417 -20 417 -20 386 -6.5 c 128,-1,12
 355 7 355 7 332 27 c 1,13,-1
 332 -438 l 1,14,-1
 166 -438 l 1,15,-1
 166 940 l 1,16,-1
 332 940 l 1,17,-1
 332 268 l 2,18,19
 332 185 332 185 372.5 140.5 c 128,-1,20
 413 96 413 96 498 96 c 0,21,22
 554 96 554 96 614 108.5 c 128,-1,23
 674 121 674 121 730 141 c 1,24,-1
 730 940 l 1,25,-1
 895 940 l 1,0,-1
EndSplineSet
EndChar

StartChar: nu
Encoding: 957 957 390
Width: 926
Flags: W
LayerCount: 2
Fore
SplineSet
670 550 m 2,0,1
 704 626 704 626 721.5 691 c 128,-1,2
 739 756 739 756 739 794 c 0,3,4
 739 838 739 838 714.5 862 c 128,-1,5
 690 886 690 886 661 895 c 1,6,-1
 661 940 l 1,7,-1
 859 940 l 1,8,9
 866 928 866 928 872 907.5 c 128,-1,10
 878 887 878 887 878 861 c 0,11,12
 878 823 878 823 863 770.5 c 128,-1,13
 848 718 848 718 819 657 c 2,14,-1
 497 -20 l 1,15,-1
 426 -20 l 1,16,-1
 76 870 l 1,17,-1
 5 895 l 1,18,-1
 5 940 l 1,19,-1
 238 940 l 1,20,-1
 514 204 l 1,21,-1
 670 550 l 2,0,1
EndSplineSet
EndChar

StartChar: xi
Encoding: 958 958 391
Width: 913
Flags: W
LayerCount: 2
Fore
SplineSet
584 802 m 1,0,1
 602 804 602 804 624 806 c 128,-1,2
 646 808 646 808 667.5 809.5 c 128,-1,3
 689 811 689 811 707 812 c 128,-1,4
 725 813 725 813 735 813 c 2,5,-1
 767 813 l 1,6,-1
 767 707 l 1,7,-1
 735 707 l 2,8,9
 725 707 725 707 708.5 708.5 c 128,-1,10
 692 710 692 710 671.5 712 c 128,-1,11
 651 714 651 714 629 716 c 128,-1,12
 607 718 607 718 586 720 c 1,13,14
 428 669 428 669 350.5 589.5 c 128,-1,15
 273 510 273 510 273 389 c 0,16,17
 273 323 273 323 297.5 281.5 c 128,-1,18
 322 240 322 240 366.5 213 c 128,-1,19
 411 186 411 186 474 169 c 128,-1,20
 537 152 537 152 614 135 c 0,21,22
 738 108 738 108 802.5 57 c 128,-1,23
 867 6 867 6 867 -82 c 0,24,25
 867 -135 867 -135 849 -176 c 128,-1,26
 831 -217 831 -217 795 -250.5 c 128,-1,27
 759 -284 759 -284 704.5 -311 c 128,-1,28
 650 -338 650 -338 577 -362 c 1,29,-1
 577 -297 l 1,30,31
 610 -284 610 -284 638 -268.5 c 128,-1,32
 666 -253 666 -253 686.5 -233.5 c 128,-1,33
 707 -214 707 -214 718 -190 c 128,-1,34
 729 -166 729 -166 729 -135 c 0,35,36
 729 -106 729 -106 716 -84.5 c 128,-1,37
 703 -63 703 -63 677 -47 c 128,-1,38
 651 -31 651 -31 612.5 -19.5 c 128,-1,39
 574 -8 574 -8 523 1 c 0,40,41
 414 21 414 21 332.5 48.5 c 128,-1,42
 251 76 251 76 197 117.5 c 128,-1,43
 143 159 143 159 116.5 217 c 128,-1,44
 90 275 90 275 90 356 c 0,45,46
 90 434 90 434 125 495.5 c 128,-1,47
 160 557 160 557 216.5 605 c 128,-1,48
 273 653 273 653 344.5 688 c 128,-1,49
 416 723 416 723 489 747 c 1,50,-1
 489 758 l 1,51,52
 446 770 446 770 398.5 794 c 128,-1,53
 351 818 351 818 311.5 852.5 c 128,-1,54
 272 887 272 887 246 933 c 128,-1,55
 220 979 220 979 220 1036 c 0,56,57
 220 1087 220 1087 243.5 1133.5 c 128,-1,58
 267 1180 267 1180 316.5 1220 c 128,-1,59
 366 1260 366 1260 443.5 1292.5 c 128,-1,60
 521 1325 521 1325 628 1349 c 1,61,-1
 628 1352 l 1,62,-1
 140 1326 l 1,63,-1
 140 1423 l 1,64,65
 175 1423 175 1423 224 1422.5 c 128,-1,66
 273 1422 273 1422 329.5 1422.5 c 128,-1,67
 386 1423 386 1423 447 1423.5 c 128,-1,68
 508 1424 508 1424 567.5 1425 c 128,-1,69
 627 1426 627 1426 682 1427.5 c 128,-1,70
 737 1429 737 1429 782 1431 c 1,71,-1
 782 1345 l 1,72,73
 745 1338 745 1338 701.5 1326.5 c 128,-1,74
 658 1315 658 1315 614 1298 c 128,-1,75
 570 1281 570 1281 528.5 1257 c 128,-1,76
 487 1233 487 1233 455 1200.5 c 128,-1,77
 423 1168 423 1168 403.5 1126 c 128,-1,78
 384 1084 384 1084 384 1031 c 0,79,80
 384 981 384 981 402.5 941 c 128,-1,81
 421 901 421 901 450.5 872 c 128,-1,82
 480 843 480 843 515.5 825.5 c 128,-1,83
 551 808 551 808 584 802 c 1,0,1
EndSplineSet
EndChar

StartChar: pi
Encoding: 960 960 393
Width: 1034
Flags: W
LayerCount: 2
Fore
SplineSet
363 856 m 1,0,-1
 326 398 l 2,1,2
 313 236 313 236 302.5 141 c 128,-1,3
 292 46 292 46 280 0 c 1,4,-1
 97 0 l 1,5,-1
 97 45 l 1,6,7
 126 75 126 75 147 102.5 c 128,-1,8
 168 130 168 130 183 166.5 c 128,-1,9
 198 203 198 203 208 254.5 c 128,-1,10
 218 306 218 306 225 384 c 2,11,-1
 267 856 l 1,12,-1
 133 856 l 1,13,-1
 85 728 l 1,14,-1
 28 728 l 1,15,-1
 49 940 l 1,16,-1
 1003 940 l 1,17,-1
 1003 856 l 1,18,-1
 815 856 l 1,19,-1
 815 214 l 2,20,21
 815 149 815 149 839 116.5 c 128,-1,22
 863 84 863 84 901 84 c 0,23,24
 925 84 925 84 944 89 c 128,-1,25
 963 94 963 94 983 100 c 1,26,-1
 983 35 l 1,27,28
 959 15 959 15 917 -2.5 c 128,-1,29
 875 -20 875 -20 827 -20 c 0,30,31
 649 -20 649 -20 649 197 c 2,32,-1
 649 856 l 1,33,-1
 363 856 l 1,0,-1
EndSplineSet
EndChar

StartChar: rho
Encoding: 961 961 394
Width: 1022
Flags: W
LayerCount: 2
Fore
SplineSet
132 561 m 2,0,1
 132 666 132 666 158 741.5 c 128,-1,2
 184 817 184 817 231 865.5 c 128,-1,3
 278 914 278 914 343 937.5 c 128,-1,4
 408 961 408 961 486 961 c 0,5,6
 574 961 574 961 656 928.5 c 128,-1,7
 738 896 738 896 801 830.5 c 128,-1,8
 864 765 864 765 901.5 665.5 c 128,-1,9
 939 566 939 566 939 432 c 0,10,11
 939 312 939 312 905 226.5 c 128,-1,12
 871 141 871 141 815 86.5 c 128,-1,13
 759 32 759 32 686.5 6 c 128,-1,14
 614 -20 614 -20 538 -20 c 0,15,16
 461 -20 461 -20 404 -7.5 c 128,-1,17
 347 5 347 5 297 22 c 1,18,-1
 297 -436 l 1,19,-1
 132 -436 l 1,20,-1
 132 561 l 2,0,1
514 60 m 0,21,22
 638 60 638 60 701 152.5 c 128,-1,23
 764 245 764 245 764 419 c 0,24,25
 764 544 764 544 739.5 628.5 c 128,-1,26
 715 713 715 713 676 764.5 c 128,-1,27
 637 816 637 816 588.5 838 c 128,-1,28
 540 860 540 860 492 860 c 0,29,30
 400 860 400 860 348.5 792.5 c 128,-1,31
 297 725 297 725 297 575 c 2,32,-1
 297 103 l 1,33,34
 347 83 347 83 397 71.5 c 128,-1,35
 447 60 447 60 514 60 c 0,21,22
EndSplineSet
EndChar

StartChar: sigma1
Encoding: 962 962 395
Width: 811
Flags: W
LayerCount: 2
Fore
SplineSet
508 892 m 0,0,1
 451 892 451 892 404.5 852.5 c 128,-1,2
 358 813 358 813 325.5 745 c 128,-1,3
 293 677 293 677 275.5 585.5 c 128,-1,4
 258 494 258 494 258 390 c 0,5,6
 258 324 258 324 280.5 282 c 128,-1,7
 303 240 303 240 344 213 c 128,-1,8
 385 186 385 186 442 169 c 128,-1,9
 499 152 499 152 568 135 c 0,10,11
 679 108 679 108 735 57.5 c 128,-1,12
 791 7 791 7 791 -81 c 0,13,14
 791 -134 791 -134 773 -175 c 128,-1,15
 755 -216 755 -216 719 -249.5 c 128,-1,16
 683 -283 683 -283 628.5 -310 c 128,-1,17
 574 -337 574 -337 501 -362 c 1,18,-1
 501 -296 l 1,19,20
 534 -283 534 -283 562 -267.5 c 128,-1,21
 590 -252 590 -252 610.5 -232.5 c 128,-1,22
 631 -213 631 -213 642 -188.5 c 128,-1,23
 653 -164 653 -164 653 -132 c 0,24,25
 653 -75 653 -75 606.5 -46 c 128,-1,26
 560 -17 560 -17 467 2 c 0,27,28
 368 22 368 22 294.5 49.5 c 128,-1,29
 221 77 221 77 172 118.5 c 128,-1,30
 123 160 123 160 99 218 c 128,-1,31
 75 276 75 276 75 357 c 0,32,33
 75 487 75 487 110 598.5 c 128,-1,34
 145 710 145 710 204.5 791.5 c 128,-1,35
 264 873 264 873 342.5 919 c 128,-1,36
 421 965 421 965 508 965 c 0,37,38
 574 965 574 965 632.5 955.5 c 128,-1,39
 691 946 691 946 747 931 c 1,40,-1
 747 714 l 1,41,-1
 692 714 l 1,42,-1
 649 843 l 1,43,44
 626 860 626 860 591 876 c 128,-1,45
 556 892 556 892 508 892 c 0,0,1
EndSplineSet
EndChar

StartChar: sigma
Encoding: 963 963 396
Width: 1104
Flags: W
LayerCount: 2
Fore
SplineSet
1016 1048 m 1,0,-1
 1073 1048 l 1,1,-1
 1055 856 l 1,2,-1
 764 856 l 1,3,-1
 764 849 l 1,4,5
 787 829 787 829 820 793 c 128,-1,6
 853 757 853 757 883 705.5 c 128,-1,7
 913 654 913 654 934.5 587 c 128,-1,8
 956 520 956 520 956 438 c 0,9,10
 956 333 956 333 926 248 c 128,-1,11
 896 163 896 163 839.5 103.5 c 128,-1,12
 783 44 783 44 703 12 c 128,-1,13
 623 -20 623 -20 523 -20 c 0,14,15
 422 -20 422 -20 339.5 15 c 128,-1,16
 257 50 257 50 199 114.5 c 128,-1,17
 141 179 141 179 109.5 270 c 128,-1,18
 78 361 78 361 78 473 c 0,19,20
 78 579 78 579 113 665 c 128,-1,21
 148 751 148 751 216 812 c 128,-1,22
 284 873 284 873 383.5 906.5 c 128,-1,23
 483 940 483 940 611 940 c 2,24,-1
 960 940 l 1,25,-1
 1016 1048 l 1,0,-1
533 59 m 0,26,27
 586 59 586 59 630.5 83 c 128,-1,28
 675 107 675 107 707 155.5 c 128,-1,29
 739 204 739 204 756.5 276 c 128,-1,30
 774 348 774 348 774 444 c 0,31,32
 774 526 774 526 763 592 c 128,-1,33
 752 658 752 658 734 709 c 128,-1,34
 716 760 716 760 694 796.5 c 128,-1,35
 672 833 672 833 650 856 c 1,36,37
 558 856 558 856 485.5 831 c 128,-1,38
 413 806 413 806 362.5 756 c 128,-1,39
 312 706 312 706 285 630 c 128,-1,40
 258 554 258 554 258 451 c 0,41,42
 258 347 258 347 280.5 272.5 c 128,-1,43
 303 198 303 198 341.5 150.5 c 128,-1,44
 380 103 380 103 429.5 81 c 128,-1,45
 479 59 479 59 533 59 c 0,26,27
EndSplineSet
EndChar

StartChar: tau
Encoding: 964 964 397
Width: 823
Flags: W
LayerCount: 2
Fore
SplineSet
150 856 m 1,0,-1
 102 728 l 1,1,-1
 45 728 l 1,2,-1
 66 940 l 1,3,-1
 778 940 l 1,4,-1
 778 856 l 1,5,-1
 484 856 l 1,6,-1
 484 214 l 2,7,8
 484 143 484 143 513 113.5 c 128,-1,9
 542 84 542 84 588 84 c 0,10,11
 612 84 612 84 643.5 89.5 c 128,-1,12
 675 95 675 95 696 100 c 1,13,-1
 696 35 l 1,14,15
 684 25 684 25 663.5 15.5 c 128,-1,16
 643 6 643 6 618 -2 c 128,-1,17
 593 -10 593 -10 565.5 -15 c 128,-1,18
 538 -20 538 -20 512 -20 c 0,19,20
 424 -20 424 -20 371 33.5 c 128,-1,21
 318 87 318 87 318 197 c 2,22,-1
 318 856 l 1,23,-1
 150 856 l 1,0,-1
EndSplineSet
EndChar

